<?xml version="1.0" encoding="UTF-8"?><svg id="Layer_1" xmlns="http://www.w3.org/2000/svg" viewBox="0 0 1777.15 959.18"><path d="M787.48,118.03c-10.25,0-18.57-8.31-18.57-18.57,0-10.25,8.31-18.57,18.57-18.57,10.25,0,18.57,8.31,18.57,18.57,0,10.25-8.31,18.57-18.57,18.57Z" fill="#ee447f"/><path d="M686.55,114.86c10.25,0,18.57,8.31,18.57,18.57,0,10.25-8.31,18.57-18.57,18.57s-18.57-8.31-18.57-18.57c0-10.25,8.31-18.57,18.57-18.57Z" fill="#ee447f"/><path d="M484.78,114.86c10.25,0,18.57,8.31,18.57,18.57,0,10.25-8.31,18.57-18.57,18.57s-18.57-8.31-18.57-18.57c0-10.25,8.31-18.57,18.57-18.57Z" fill="#ee447f"/><path d="M383.94,118.03c-10.25,0-18.57-8.31-18.57-18.57,0-10.25,8.31-18.57,18.57-18.57,10.25,0,18.57,8.31,18.57,18.57,0,10.25-8.31,18.57-18.57,18.57Z" fill="#ee447f"/><path d="M283.01,114.86c10.25,0,18.57,8.31,18.57,18.57,0,10.25-8.31,18.57-18.57,18.57-10.25,0-18.57-8.31-18.57-18.57,0-10.25,8.31-18.57,18.57-18.57Z" fill="#ee447f"/><path d="M81.23,114.86c10.25,0,18.57,8.31,18.57,18.57,0,10.25-8.31,18.57-18.57,18.57-10.25,0-18.57-8.31-18.57-18.57,0-10.25,8.31-18.57,18.57-18.57Z" fill="#ee447f"/><path d="M1594.91,118.03c-10.25,0-18.57-8.31-18.57-18.57,0-10.25,8.31-18.57,18.57-18.57,10.25,0,18.57,8.31,18.57,18.57,0,10.25-8.31,18.57-18.57,18.57Z" fill="#ee447f"/><path d="M1493.98,114.86c10.25,0,18.57,8.31,18.57,18.57,0,10.25-8.31,18.57-18.57,18.57s-18.57-8.31-18.57-18.57c0-10.25,8.31-18.57,18.57-18.57Z" fill="#ee447f"/><path d="M1292.21,114.86c10.25,0,18.57,8.31,18.57,18.57,0,10.25-8.31,18.57-18.57,18.57s-18.57-8.31-18.57-18.57c0-10.25,8.31-18.57,18.57-18.57Z" fill="#ee447f"/><path d="M1191.37,118.03c-10.25,0-18.57-8.31-18.57-18.57,0-10.25,8.31-18.57,18.57-18.57,10.25,0,18.57,8.31,18.57,18.57,0,10.25-8.31,18.57-18.57,18.57Z" fill="#ee447f"/><path d="M1090.44,114.86c10.25,0,18.57,8.31,18.57,18.57,0,10.25-8.31,18.57-18.57,18.57-10.25,0-18.57-8.31-18.57-18.57,0-10.25,8.31-18.57,18.57-18.57Z" fill="#ee447f"/><path d="M888.66,114.86c10.25,0,18.57,8.31,18.57,18.57,0,10.25-8.31,18.57-18.57,18.57-10.25,0-18.57-8.31-18.57-18.57,0-10.25,8.31-18.57,18.57-18.57Z" fill="#ee447f"/><path d="M1644.91,142.61c-6,6-14.15,9.38-22.64,9.38h-54.71c-8.49,0-16.64-3.37-22.64-9.38l-29.47-29.47c-11.69-11.21-29.96-11.48-41.99-.85l-30.33,30.33c-6,6-14.15,9.38-22.64,9.38h-54.71c-8.49,0-16.64-3.37-22.64-9.38l-29.47-29.47c-11.69-11.21-29.96-11.48-41.99-.85l-30.33,30.33c-6,6-14.15,9.38-22.64,9.38h-54.71c-8.49,0-16.64-3.37-22.64-9.38l-29.47-29.47c-11.69-11.21-29.95-11.48-41.98-.86l-30.33,30.33c-6,6-14.15,9.38-22.64,9.38h-54.71c-8.49,0-16.64-3.37-22.64-9.38l-29.47-29.47c-12.16-11.66-31.45-11.52-43.42.45l-5.68,5.68c-.67.67-1.38,1.3-2.1,1.9l-21.45,21.45c-6,6-14.15,9.38-22.64,9.38h-54.71c-8.49,0-16.64-3.37-22.64-9.38l-29.47-29.47c-11.69-11.21-29.96-11.48-41.99-.85l-30.33,30.33c-6,6-14.15,9.38-22.64,9.38h-54.71c-8.49,0-16.64-3.37-22.64-9.38l-29.47-29.47c-11.69-11.21-29.96-11.48-41.99-.85l-30.33,30.33c-6,6-14.15,9.38-22.64,9.38h-54.71c-8.49,0-16.64-3.37-22.64-9.38l-29.47-29.47c-11.69-11.21-29.95-11.48-41.98-.86l-30.33,30.33c-6,6-14.15,9.38-22.64,9.38h-54.71c-8.49,0-16.64-3.37-22.64-9.38l-29.47-29.47c-12.16-11.66-31.45-11.52-43.42.45l-5.68,5.68c-8.04,8.04-19.75,11.2-30.74,8.29L0,121.51l31.24-31.24c6-6,14.15-9.38,22.64-9.38h54.71c8.49,0,16.64,3.37,22.64,9.38l29.47,29.47c11.69,11.21,29.95,11.48,41.98.86l30.33-30.33c6-6,14.15-9.38,22.64-9.38h54.71c8.49,0,16.64,3.37,22.64,9.38l29.47,29.47c11.69,11.21,29.96,11.48,41.99.85l30.33-30.33c6-6,14.15-9.38,22.64-9.38h54.71c8.49,0,16.64,3.37,22.64,9.38l29.47,29.47c11.69,11.21,29.96,11.48,41.99.85l30.33-30.33c6-6,14.15-9.38,22.64-9.38h54.71c8.49,0,16.64,3.37,22.64,9.38l29.47,29.47c12.16,11.66,31.45,11.52,43.42-.45l5.68-5.68c.67-.67,1.38-1.3,2.1-1.9l21.45-21.45c6-6,14.15-9.38,22.64-9.38h54.71c8.49,0,16.64,3.37,22.64,9.38l29.47,29.47c11.69,11.21,29.95,11.48,41.98.86l30.33-30.33c6-6,14.15-9.38,22.64-9.38h54.71c8.49,0,16.64,3.37,22.64,9.38l29.47,29.47c11.69,11.21,29.96,11.48,41.99.85l30.33-30.33c6-6,14.15-9.38,22.64-9.38h54.71c8.49,0,16.64,3.37,22.64,9.38l29.47,29.47c11.69,11.21,29.96,11.48,41.99.85l30.33-30.33c6-6,14.15-9.38,22.64-9.38h54.71c8.49,0,16.64,3.37,22.64,9.38l29.47,29.47c12.16,11.66,31.45,11.52,43.42-.45l5.68-5.68c8.04-8.04,19.75-11.2,30.74-8.29l22.86,6.04-31.24,31.24Z" fill="#ee447f"/><path d="M787.56,195.75c10.25,0,18.57,8.31,18.57,18.57,0,10.25-8.31,18.57-18.57,18.57s-18.57-8.31-18.57-18.57c0-10.25,8.31-18.57,18.57-18.57Z" fill="#fec415"/><path d="M686.72,198.93c-10.25,0-18.57-8.31-18.57-18.57,0-10.25,8.31-18.57,18.57-18.57,10.25,0,18.57,8.31,18.57,18.57,0,10.25-8.31,18.57-18.57,18.57Z" fill="#fec415"/><path d="M585.78,195.75c10.25,0,18.57,8.31,18.57,18.57,0,10.25-8.31,18.57-18.57,18.57-10.25,0-18.57-8.31-18.57-18.57,0-10.25,8.31-18.57,18.57-18.57Z" fill="#fec415"/><path d="M384.01,195.75c10.25,0,18.57,8.31,18.57,18.57,0,10.25-8.31,18.57-18.57,18.57-10.25,0-18.57-8.31-18.57-18.57,0-10.25,8.31-18.57,18.57-18.57Z" fill="#fec415"/><path d="M283.17,198.93c-10.25,0-18.57-8.31-18.57-18.57,0-10.25,8.31-18.57,18.57-18.57s18.57,8.31,18.57,18.57c0,10.25-8.31,18.57-18.57,18.57Z" fill="#fec415"/><path d="M1494.15,198.93c-10.25,0-18.57-8.31-18.57-18.57,0-10.25,8.31-18.57,18.57-18.57,10.25,0,18.57,8.31,18.57,18.57,0,10.25-8.31,18.57-18.57,18.57Z" fill="#fec415"/><path d="M1393.21,195.75c10.25,0,18.57,8.31,18.57,18.57,0,10.25-8.31,18.57-18.57,18.57-10.25,0-18.57-8.31-18.57-18.57,0-10.25,8.31-18.57,18.57-18.57Z" fill="#fec415"/><path d="M1191.44,195.75c10.25,0,18.57,8.31,18.57,18.57,0,10.25-8.31,18.57-18.57,18.57-10.25,0-18.57-8.31-18.57-18.57,0-10.25,8.31-18.57,18.57-18.57Z" fill="#fec415"/><path d="M1090.6,198.93c-10.25,0-18.57-8.31-18.57-18.57,0-10.25,8.31-18.57,18.57-18.57s18.57,8.31,18.57,18.57c0,10.25-8.31,18.57-18.57,18.57Z" fill="#fec415"/><path d="M1745.91,223.51c-6,6-14.15,9.38-22.64,9.38h-54.71c-8.49,0-16.64-3.37-22.64-9.38l-29.47-29.47c-11.69-11.21-29.96-11.48-41.99-.85l-30.33,30.33c-6,6-14.15,9.38-22.64,9.38h-54.71c-8.49,0-16.64-3.37-22.64-9.38l-29.47-29.47c-11.69-11.21-29.96-11.48-41.99-.85l-30.33,30.33c-6,6-14.15,9.38-22.64,9.38h-54.71c-8.49,0-16.64-3.37-22.64-9.38l-29.47-29.47c-11.69-11.21-29.95-11.48-41.98-.86l-30.33,30.33c-6,6-14.15,9.38-22.64,9.38h-54.71c-8.49,0-16.64-3.37-22.64-9.38l-29.47-29.47c-12.16-11.66-31.45-11.52-43.42.45l-5.68,5.68c-.67.67-1.38,1.3-2.1,1.9l-21.45,21.45c-6,6-14.15,9.38-22.64,9.38h-54.71c-8.49,0-16.64-3.37-22.64-9.38l-29.47-29.47c-11.69-11.21-29.96-11.48-41.99-.85l-30.33,30.33c-6,6-14.15,9.38-22.64,9.38h-54.71c-8.49,0-16.64-3.37-22.64-9.38l-29.47-29.47c-11.69-11.21-29.96-11.48-41.99-.85l-30.33,30.33c-6,6-14.15,9.38-22.64,9.38h-54.71c-8.49,0-16.64-3.37-22.64-9.38l-29.47-29.47c-11.69-11.21-29.95-11.48-41.98-.86l-30.33,30.33c-6,6-14.15,9.38-22.64,9.38h-54.71c-8.49,0-16.64-3.37-22.64-9.38l-29.47-29.47c-12.16-11.66-31.45-11.52-43.42.45l-5.68,5.68c-8.04,8.04-19.75,11.2-30.74,8.29l-22.86-6.04,31.24-31.24c6-6,14.15-9.38,22.64-9.38h54.71c8.49,0,16.64,3.37,22.64,9.38l29.47,29.47c11.69,11.21,29.95,11.48,41.98.86l30.33-30.33c6-6,14.15-9.38,22.64-9.38h54.71c8.49,0,16.64,3.37,22.64,9.38l29.47,29.47c11.69,11.21,29.96,11.48,41.99.85l30.33-30.33c6-6,14.15-9.38,22.64-9.38h54.71c8.49,0,16.64,3.37,22.64,9.38l29.47,29.47c11.69,11.21,29.96,11.48,41.99.85l30.33-30.33c6-6,14.15-9.38,22.64-9.38h54.71c8.49,0,16.64,3.37,22.64,9.38l29.47,29.47c12.16,11.66,31.45,11.52,43.42-.45l5.68-5.68c.67-.67,1.38-1.3,2.1-1.9l21.45-21.45c6-6,14.15-9.38,22.64-9.38h54.71c8.49,0,16.64,3.37,22.64,9.38l29.47,29.47c11.69,11.21,29.95,11.48,41.98.86l30.33-30.33c6-6,14.15-9.38,22.64-9.38h54.71c8.49,0,16.64,3.37,22.64,9.38l29.47,29.47c11.69,11.21,29.96,11.48,41.99.85l30.33-30.33c6-6,14.15-9.38,22.64-9.38h54.71c8.49,0,16.64,3.37,22.64,9.38l29.47,29.47c11.69,11.21,29.96,11.48,41.99.85l30.33-30.33c6-6,14.15-9.38,22.64-9.38h54.71c8.49,0,16.64,3.37,22.64,9.38l29.47,29.47c12.16,11.66,31.45,11.52,43.42-.45l5.68-5.68c8.04-8.04,19.75-11.2,30.74-8.29l22.86,6.04-31.24,31.24Z" fill="#fec415"/><path d="M787.56,33.96c10.25,0,18.57,8.31,18.57,18.57,0,10.25-8.31,18.57-18.57,18.57-10.25,0-18.57-8.31-18.57-18.57,0-10.25,8.31-18.57,18.57-18.57Z" fill="#8670b2"/><path d="M686.72,37.14c-10.25,0-18.57-8.31-18.57-18.57,0-10.25,8.31-18.57,18.57-18.57s18.57,8.31,18.57,18.57c0,10.25-8.31,18.57-18.57,18.57Z" fill="#8670b2"/><path d="M585.78,33.96c10.25,0,18.57,8.31,18.57,18.57,0,10.25-8.31,18.57-18.57,18.57s-18.57-8.31-18.57-18.57c0-10.25,8.31-18.57,18.57-18.57Z" fill="#8670b2"/><path d="M384.01,33.96c10.25,0,18.57,8.31,18.57,18.57,0,10.25-8.31,18.57-18.57,18.57s-18.57-8.31-18.57-18.57c0-10.25,8.31-18.57,18.57-18.57Z" fill="#8670b2"/><path d="M283.17,37.14c-10.25,0-18.57-8.31-18.57-18.57,0-10.25,8.31-18.57,18.57-18.57,10.25,0,18.57,8.31,18.57,18.57,0,10.25-8.31,18.57-18.57,18.57Z" fill="#8670b2"/><path d="M1594.99,33.96c10.25,0,18.57,8.31,18.57,18.57,0,10.25-8.31,18.57-18.57,18.57-10.25,0-18.57-8.31-18.57-18.57,0-10.25,8.31-18.57,18.57-18.57Z" fill="#8670b2"/><path d="M1494.15,37.14c-10.25,0-18.57-8.31-18.57-18.57,0-10.25,8.31-18.57,18.57-18.57s18.57,8.31,18.57,18.57c0,10.25-8.31,18.57-18.57,18.57Z" fill="#8670b2"/><path d="M1393.21,33.96c10.25,0,18.57,8.31,18.57,18.57,0,10.25-8.31,18.57-18.57,18.57s-18.57-8.31-18.57-18.57c0-10.25,8.31-18.57,18.57-18.57Z" fill="#8670b2"/><path d="M1191.44,33.96c10.25,0,18.57,8.31,18.57,18.57,0,10.25-8.31,18.57-18.57,18.57s-18.57-8.31-18.57-18.57c0-10.25,8.31-18.57,18.57-18.57Z" fill="#8670b2"/><path d="M1090.6,37.14c-10.25,0-18.57-8.31-18.57-18.57,0-10.25,8.31-18.57,18.57-18.57,10.25,0,18.57,8.31,18.57,18.57,0,10.25-8.31,18.57-18.57,18.57Z" fill="#8670b2"/><path d="M1745.91,61.72c-6,6-14.15,9.38-22.64,9.38h-54.71c-8.49,0-16.64-3.37-22.64-9.38l-29.47-29.47c-11.69-11.21-29.96-11.48-41.99-.85l-30.33,30.33c-6,6-14.15,9.38-22.64,9.38h-54.71c-8.49,0-16.64-3.37-22.64-9.38l-29.47-29.47c-11.69-11.21-29.96-11.48-41.99-.85l-30.33,30.33c-6,6-14.15,9.38-22.64,9.38h-54.71c-8.49,0-16.64-3.37-22.64-9.38l-29.47-29.47c-11.69-11.21-29.95-11.48-41.98-.86l-30.33,30.33c-6,6-14.15,9.38-22.64,9.38h-54.71c-8.49,0-16.64-3.37-22.64-9.38l-29.47-29.47c-12.16-11.66-31.45-11.52-43.42.44l-5.68,5.68c-.67.67-1.38,1.3-2.1,1.9l-21.45,21.45c-6,6-14.15,9.38-22.64,9.38h-54.71c-8.49,0-16.64-3.37-22.64-9.38l-29.47-29.47c-11.69-11.21-29.96-11.48-41.99-.85l-30.33,30.33c-6,6-14.15,9.38-22.64,9.38h-54.71c-8.49,0-16.64-3.37-22.64-9.38l-29.47-29.47c-11.69-11.21-29.96-11.48-41.99-.85l-30.33,30.33c-6,6-14.15,9.38-22.64,9.38h-54.71c-8.49,0-16.64-3.37-22.64-9.38l-29.47-29.47c-11.69-11.21-29.95-11.48-41.98-.86l-30.33,30.33c-6,6-14.15,9.38-22.64,9.38h-54.71c-8.49,0-16.64-3.37-22.64-9.38l-29.47-29.47c-12.16-11.66-31.45-11.52-43.42.44l-5.68,5.68c-8.04,8.04-19.75,11.2-30.74,8.29l-22.86-6.04,31.24-31.24C138.25,3.37,146.39,0,154.88,0h54.71c8.49,0,16.64,3.37,22.64,9.38l29.47,29.47c11.69,11.21,29.95,11.48,41.98.86l30.33-30.33c6-6,14.15-9.38,22.64-9.38h54.71c8.49,0,16.64,3.37,22.64,9.38l29.47,29.47c11.69,11.21,29.96,11.48,41.99.85l30.33-30.33c6-6,14.15-9.38,22.64-9.38h54.71c8.49,0,16.64,3.37,22.64,9.38l29.47,29.47c11.69,11.21,29.96,11.48,41.99.85l30.33-30.33c6-6,14.15-9.38,22.64-9.38h54.71c8.49,0,16.64,3.37,22.64,9.38l29.47,29.47c12.16,11.66,31.45,11.52,43.42-.44l5.68-5.68c.67-.67,1.38-1.3,2.1-1.9l21.45-21.45C945.68,3.37,953.82,0,962.31,0h54.71c8.49,0,16.64,3.37,22.64,9.38l29.47,29.47c11.69,11.21,29.95,11.48,41.98.86l30.33-30.33c6-6,14.15-9.38,22.64-9.38h54.71c8.49,0,16.64,3.37,22.64,9.38l29.47,29.47c11.69,11.21,29.96,11.48,41.99.85l30.33-30.33c6-6,14.15-9.38,22.64-9.38h54.71c8.49,0,16.64,3.37,22.64,9.38l29.47,29.47c11.69,11.21,29.96,11.48,41.99.85l30.33-30.33c6-6,14.15-9.38,22.64-9.38h54.71c8.49,0,16.64,3.37,22.64,9.38l29.47,29.47c12.16,11.66,31.45,11.52,43.42-.44l5.68-5.68c8.04-8.04,19.75-11.2,30.74-8.29l22.86,6.04-31.24,31.24Z" fill="#8670b2"/><path d="M585.71,279.83c-10.25,0-18.57-8.31-18.57-18.57,0-10.25,8.31-18.57,18.57-18.57s18.57,8.31,18.57,18.57c0,10.25-8.31,18.57-18.57,18.57Z" fill="#43c4d9"/><path d="M484.78,276.65c10.25,0,18.57,8.31,18.57,18.57,0,10.25-8.31,18.57-18.57,18.57-10.25,0-18.57-8.31-18.57-18.57,0-10.25,8.31-18.57,18.57-18.57Z" fill="#43c4d9"/><path d="M383.94,279.83c-10.25,0-18.57-8.31-18.57-18.57s8.31-18.57,18.57-18.57,18.57,8.31,18.57,18.57c0,10.25-8.31,18.57-18.57,18.57Z" fill="#43c4d9"/><path d="M182.16,279.83c-10.25,0-18.57-8.31-18.57-18.57,0-10.25,8.31-18.57,18.57-18.57s18.57,8.31,18.57,18.57c0,10.25-8.31,18.57-18.57,18.57Z" fill="#43c4d9"/><path d="M81.23,276.65c10.25,0,18.57,8.31,18.57,18.57,0,10.25-8.31,18.57-18.57,18.57s-18.57-8.31-18.57-18.57c0-10.26,8.31-18.57,18.57-18.57Z" fill="#43c4d9"/><path d="M1594.91,279.83c-10.25,0-18.57-8.31-18.57-18.57,0-10.25,8.31-18.57,18.57-18.57,10.25,0,18.57,8.31,18.57,18.57,0,10.25-8.31,18.57-18.57,18.57Z" fill="#43c4d9"/><path d="M1393.14,279.83c-10.25,0-18.57-8.31-18.57-18.57,0-10.25,8.31-18.57,18.57-18.57s18.57,8.31,18.57,18.57c0,10.25-8.31,18.57-18.57,18.57Z" fill="#43c4d9"/><path d="M1292.21,276.65c10.25,0,18.57,8.31,18.57,18.57,0,10.25-8.31,18.57-18.57,18.57-10.25,0-18.57-8.31-18.57-18.57,0-10.25,8.31-18.57,18.57-18.57Z" fill="#43c4d9"/><path d="M1191.37,279.83c-10.25,0-18.57-8.31-18.57-18.57,0-10.25,8.31-18.57,18.57-18.57s18.57,8.31,18.57,18.57c0,10.25-8.31,18.57-18.57,18.57Z" fill="#43c4d9"/><path d="M989.59,279.83c-10.25,0-18.57-8.31-18.57-18.57,0-10.25,8.31-18.57,18.57-18.57s18.57,8.31,18.57,18.57c0,10.25-8.31,18.57-18.57,18.57Z" fill="#43c4d9"/><path d="M888.66,276.65c10.25,0,18.57,8.31,18.57,18.57,0,10.25-8.31,18.57-18.57,18.57s-18.57-8.31-18.57-18.57c0-10.26,8.31-18.57,18.57-18.57Z" fill="#43c4d9"/><path d="M1644.91,304.41c-6,6-14.15,9.38-22.64,9.38h-54.71c-8.49,0-16.64-3.37-22.64-9.38l-29.47-29.47c-11.69-11.21-29.96-11.48-41.99-.85l-30.33,30.33c-6,6-14.15,9.38-22.64,9.38h-54.71c-8.49,0-16.64-3.37-22.64-9.38l-29.47-29.47c-11.69-11.21-29.96-11.48-41.99-.85l-30.33,30.33c-6,6-14.15,9.38-22.64,9.38h-54.71c-8.49,0-16.64-3.37-22.64-9.38l-29.47-29.47c-11.69-11.21-29.95-11.48-41.98-.86l-30.33,30.33c-6,6-14.15,9.38-22.64,9.38h-54.71c-8.49,0-16.64-3.37-22.64-9.38l-29.47-29.47c-12.16-11.66-31.45-11.52-43.42.45l-5.68,5.68c-.67.67-1.38,1.3-2.1,1.9l-21.45,21.45c-6,6-14.15,9.38-22.64,9.38h-54.71c-8.49,0-16.64-3.37-22.64-9.38l-29.47-29.47c-11.69-11.21-29.96-11.48-41.99-.85l-30.33,30.33c-6,6-14.15,9.38-22.64,9.38h-54.71c-8.49,0-16.64-3.37-22.64-9.38l-29.47-29.47c-11.69-11.21-29.96-11.48-41.99-.85l-30.33,30.33c-6,6-14.15,9.38-22.64,9.38h-54.71c-8.49,0-16.64-3.37-22.64-9.38l-29.47-29.47c-11.69-11.21-29.95-11.48-41.98-.86l-30.33,30.33c-6,6-14.15,9.38-22.64,9.38h-54.71c-8.49,0-16.64-3.37-22.64-9.38l-29.47-29.47c-12.16-11.66-31.45-11.52-43.42.45l-5.68,5.68c-8.04,8.04-19.75,11.2-30.74,8.29L0,283.31l31.24-31.24c6-6,14.15-9.38,22.64-9.38h54.71c8.49,0,16.64,3.37,22.64,9.38l29.47,29.47c11.69,11.21,29.95,11.48,41.98.86l30.33-30.33c6-6,14.15-9.38,22.64-9.38h54.71c8.49,0,16.64,3.37,22.64,9.38l29.47,29.47c11.69,11.21,29.96,11.48,41.99.85l30.33-30.33c6-6,14.15-9.38,22.64-9.38h54.71c8.49,0,16.64,3.37,22.64,9.38l29.47,29.47c11.69,11.21,29.96,11.48,41.99.85l30.33-30.33c6-6,14.15-9.38,22.64-9.38h54.71c8.49,0,16.64,3.37,22.64,9.38l29.47,29.47c12.16,11.66,31.45,11.52,43.42-.45l5.68-5.68c.67-.67,1.38-1.3,2.1-1.9l21.45-21.45c6-6,14.15-9.38,22.64-9.38h54.71c8.49,0,16.64,3.37,22.64,9.38l29.47,29.47c11.69,11.21,29.95,11.48,41.98.86l30.33-30.33c6-6,14.15-9.38,22.64-9.38h54.71c8.49,0,16.64,3.37,22.64,9.38l29.47,29.47c11.69,11.21,29.96,11.48,41.99.85l30.33-30.33c6-6,14.15-9.38,22.64-9.38h54.71c8.49,0,16.64,3.37,22.64,9.38l29.47,29.47c11.69,11.21,29.96,11.48,41.99.85l30.33-30.33c6-6,14.15-9.38,22.64-9.38h54.71c8.49,0,16.64,3.37,22.64,9.38l29.47,29.47c12.16,11.66,31.45,11.52,43.42-.45l5.68-5.68c8.04-8.04,19.75-11.2,30.74-8.29l22.86,6.04-31.24,31.24Z" fill="#43c4d9"/><path d="M787.48,440.73c-10.25,0-18.57-8.31-18.57-18.57,0-10.25,8.31-18.57,18.57-18.57,10.25,0,18.57,8.31,18.57,18.57,0,10.25-8.31,18.57-18.57,18.57Z" fill="#ee447f"/><path d="M686.55,437.55c10.25,0,18.57,8.31,18.57,18.57,0,10.25-8.31,18.57-18.57,18.57s-18.57-8.31-18.57-18.57c0-10.25,8.31-18.57,18.57-18.57Z" fill="#ee447f"/><path d="M484.78,437.55c10.25,0,18.57,8.31,18.57,18.57,0,10.25-8.31,18.57-18.57,18.57s-18.57-8.31-18.57-18.57c0-10.25,8.31-18.57,18.57-18.57Z" fill="#ee447f"/><path d="M383.94,440.73c-10.25,0-18.57-8.31-18.57-18.57,0-10.25,8.31-18.57,18.57-18.57,10.25,0,18.57,8.31,18.57,18.57,0,10.25-8.31,18.57-18.57,18.57Z" fill="#ee447f"/><path d="M283.01,437.55c10.25,0,18.57,8.31,18.57,18.57,0,10.25-8.31,18.57-18.57,18.57-10.25,0-18.57-8.31-18.57-18.57,0-10.25,8.31-18.57,18.57-18.57Z" fill="#ee447f"/><path d="M81.23,437.55c10.25,0,18.57,8.31,18.57,18.57,0,10.25-8.31,18.57-18.57,18.57-10.25,0-18.57-8.31-18.57-18.57,0-10.25,8.31-18.57,18.57-18.57Z" fill="#ee447f"/><path d="M1594.91,440.73c-10.25,0-18.57-8.31-18.57-18.57,0-10.25,8.31-18.57,18.57-18.57,10.25,0,18.57,8.31,18.57,18.57,0,10.25-8.31,18.57-18.57,18.57Z" fill="#ee447f"/><path d="M1493.98,437.55c10.25,0,18.57,8.31,18.57,18.57,0,10.25-8.31,18.57-18.57,18.57s-18.57-8.31-18.57-18.57c0-10.25,8.31-18.57,18.57-18.57Z" fill="#ee447f"/><path d="M1292.21,437.55c10.25,0,18.57,8.31,18.57,18.57,0,10.25-8.31,18.57-18.57,18.57s-18.57-8.31-18.57-18.57c0-10.25,8.31-18.57,18.57-18.57Z" fill="#ee447f"/><path d="M1191.37,440.73c-10.25,0-18.57-8.31-18.57-18.57,0-10.25,8.31-18.57,18.57-18.57,10.25,0,18.57,8.31,18.57,18.57,0,10.25-8.31,18.57-18.57,18.57Z" fill="#ee447f"/><path d="M1090.44,437.55c10.25,0,18.57,8.31,18.57,18.57,0,10.25-8.31,18.57-18.57,18.57-10.25,0-18.57-8.31-18.57-18.57,0-10.25,8.31-18.57,18.57-18.57Z" fill="#ee447f"/><path d="M888.66,437.55c10.25,0,18.57,8.31,18.57,18.57,0,10.25-8.31,18.57-18.57,18.57-10.25,0-18.57-8.31-18.57-18.57,0-10.25,8.31-18.57,18.57-18.57Z" fill="#ee447f"/><path d="M1644.91,465.31c-6,6-14.15,9.38-22.64,9.38h-54.71c-8.49,0-16.64-3.37-22.64-9.38l-29.47-29.47c-11.69-11.21-29.96-11.48-41.99-.85l-30.33,30.33c-6,6-14.15,9.38-22.64,9.38h-54.71c-8.49,0-16.64-3.37-22.64-9.38l-29.47-29.47c-11.69-11.21-29.96-11.48-41.99-.85l-30.33,30.33c-6,6-14.15,9.38-22.64,9.38h-54.71c-8.49,0-16.64-3.37-22.64-9.38l-29.47-29.47c-11.69-11.21-29.95-11.48-41.98-.86l-30.33,30.33c-6,6-14.15,9.38-22.64,9.38h-54.71c-8.49,0-16.64-3.37-22.64-9.38l-29.47-29.47c-12.16-11.66-31.45-11.52-43.42.45l-5.68,5.68c-.67.67-1.38,1.3-2.1,1.9l-21.45,21.45c-6,6-14.15,9.38-22.64,9.38h-54.71c-8.49,0-16.64-3.37-22.64-9.38l-29.47-29.47c-11.69-11.21-29.96-11.48-41.99-.85l-30.33,30.33c-6,6-14.15,9.38-22.64,9.38h-54.71c-8.49,0-16.64-3.37-22.64-9.38l-29.47-29.47c-11.69-11.21-29.96-11.48-41.99-.85l-30.33,30.33c-6,6-14.15,9.38-22.64,9.38h-54.71c-8.49,0-16.64-3.37-22.64-9.38l-29.47-29.47c-11.69-11.21-29.95-11.48-41.98-.86l-30.33,30.33c-6,6-14.15,9.38-22.64,9.38h-54.71c-8.49,0-16.64-3.37-22.64-9.38l-29.47-29.47c-12.16-11.66-31.45-11.52-43.42.45l-5.68,5.68c-8.04,8.04-19.75,11.2-30.74,8.29l-22.86-6.04,31.24-31.24c6-6,14.15-9.38,22.64-9.38h54.71c8.49,0,16.64,3.37,22.64,9.38l29.47,29.47c11.69,11.21,29.95,11.48,41.98.86l30.33-30.33c6-6,14.15-9.38,22.64-9.38h54.71c8.49,0,16.64,3.37,22.64,9.38l29.47,29.47c11.69,11.21,29.96,11.48,41.99.85l30.33-30.33c6-6,14.15-9.38,22.64-9.38h54.71c8.49,0,16.64,3.37,22.64,9.38l29.47,29.47c11.69,11.21,29.96,11.48,41.99.85l30.33-30.33c6-6,14.15-9.38,22.64-9.38h54.71c8.49,0,16.64,3.37,22.64,9.38l29.47,29.47c12.16,11.66,31.45,11.52,43.42-.45l5.68-5.68c.67-.67,1.38-1.3,2.1-1.9l21.45-21.45c6-6,14.15-9.38,22.64-9.38h54.71c8.49,0,16.64,3.37,22.64,9.38l29.47,29.47c11.69,11.21,29.95,11.48,41.98.86l30.33-30.33c6-6,14.15-9.38,22.64-9.38h54.71c8.49,0,16.64,3.37,22.64,9.38l29.47,29.47c11.69,11.21,29.96,11.48,41.99.85l30.33-30.33c6-6,14.15-9.38,22.64-9.38h54.71c8.49,0,16.64,3.37,22.64,9.38l29.47,29.47c11.69,11.21,29.96,11.48,41.99.85l30.33-30.33c6-6,14.15-9.38,22.64-9.38h54.71c8.49,0,16.64,3.37,22.64,9.38l29.47,29.47c12.16,11.66,31.45,11.52,43.42-.45l5.68-5.68c8.04-8.04,19.75-11.2,30.74-8.29l22.86,6.04-31.24,31.24Z" fill="#ee447f"/><path d="M787.56,518.45c10.25,0,18.57,8.31,18.57,18.57,0,10.25-8.31,18.57-18.57,18.57s-18.57-8.31-18.57-18.57c0-10.25,8.31-18.57,18.57-18.57Z" fill="#fec415"/><path d="M686.72,521.63c-10.25,0-18.57-8.31-18.57-18.57,0-10.25,8.31-18.57,18.57-18.57,10.25,0,18.57,8.31,18.57,18.57,0,10.25-8.31,18.57-18.57,18.57Z" fill="#fec415"/><path d="M585.78,518.45c10.25,0,18.57,8.31,18.57,18.57,0,10.25-8.31,18.57-18.57,18.57-10.25,0-18.57-8.31-18.57-18.57,0-10.25,8.31-18.57,18.57-18.57Z" fill="#fec415"/><path d="M384.01,518.45c10.25,0,18.57,8.31,18.57,18.57,0,10.25-8.31,18.57-18.57,18.57-10.25,0-18.57-8.31-18.57-18.57,0-10.25,8.31-18.57,18.57-18.57Z" fill="#fec415"/><path d="M283.17,521.63c-10.25,0-18.57-8.31-18.57-18.57,0-10.25,8.31-18.57,18.57-18.57s18.57,8.31,18.57,18.57c0,10.25-8.31,18.57-18.57,18.57Z" fill="#fec415"/><path d="M1494.15,521.63c-10.25,0-18.57-8.31-18.57-18.57,0-10.25,8.31-18.57,18.57-18.57,10.25,0,18.57,8.31,18.57,18.57,0,10.25-8.31,18.57-18.57,18.57Z" fill="#fec415"/><path d="M1393.21,518.45c10.25,0,18.57,8.31,18.57,18.57,0,10.25-8.31,18.57-18.57,18.57-10.25,0-18.57-8.31-18.57-18.57,0-10.25,8.31-18.57,18.57-18.57Z" fill="#fec415"/><path d="M1191.44,518.45c10.25,0,18.57,8.31,18.57,18.57,0,10.25-8.31,18.57-18.57,18.57-10.25,0-18.57-8.31-18.57-18.57,0-10.25,8.31-18.57,18.57-18.57Z" fill="#fec415"/><path d="M1090.6,521.63c-10.25,0-18.57-8.31-18.57-18.57,0-10.25,8.31-18.57,18.57-18.57s18.57,8.31,18.57,18.57c0,10.25-8.31,18.57-18.57,18.57Z" fill="#fec415"/><path d="M1745.91,546.21c-6,6-14.15,9.38-22.64,9.38h-54.71c-8.49,0-16.64-3.37-22.64-9.38l-29.47-29.47c-11.69-11.21-29.96-11.48-41.99-.85l-30.33,30.33c-6,6-14.15,9.38-22.64,9.38h-54.71c-8.49,0-16.64-3.37-22.64-9.38l-29.47-29.47c-11.69-11.21-29.96-11.48-41.99-.85l-30.33,30.33c-6,6-14.15,9.38-22.64,9.38h-54.71c-8.49,0-16.64-3.37-22.64-9.38l-29.47-29.47c-11.69-11.21-29.95-11.48-41.98-.86l-30.33,30.33c-6,6-14.15,9.38-22.64,9.38h-54.71c-8.49,0-16.64-3.37-22.64-9.38l-29.47-29.47c-12.16-11.66-31.45-11.52-43.42.45l-5.68,5.68c-.67.67-1.38,1.3-2.1,1.9l-21.45,21.45c-6,6-14.15,9.38-22.64,9.38h-54.71c-8.49,0-16.64-3.37-22.64-9.38l-29.47-29.47c-11.69-11.21-29.96-11.48-41.99-.85l-30.33,30.33c-6,6-14.15,9.38-22.64,9.38h-54.71c-8.49,0-16.64-3.37-22.64-9.38l-29.47-29.47c-11.69-11.21-29.96-11.48-41.99-.85l-30.33,30.33c-6,6-14.15,9.38-22.64,9.38h-54.71c-8.49,0-16.64-3.37-22.64-9.38l-29.47-29.47c-11.69-11.21-29.95-11.48-41.98-.86l-30.33,30.33c-6,6-14.15,9.38-22.64,9.38h-54.71c-8.49,0-16.64-3.37-22.64-9.38l-29.47-29.47c-12.16-11.66-31.45-11.52-43.42.45l-5.68,5.68c-8.04,8.04-19.75,11.2-30.74,8.29l-22.86-6.04,31.24-31.24c6-6,14.15-9.38,22.64-9.38h54.71c8.49,0,16.64,3.37,22.64,9.38l29.47,29.47c11.69,11.21,29.95,11.48,41.98.86l30.33-30.33c6-6,14.15-9.38,22.64-9.38h54.71c8.49,0,16.64,3.37,22.64,9.38l29.47,29.47c11.69,11.21,29.96,11.48,41.99.85l30.33-30.33c6-6,14.15-9.38,22.64-9.38h54.71c8.49,0,16.64,3.37,22.64,9.38l29.47,29.47c11.69,11.21,29.96,11.48,41.99.85l30.33-30.33c6-6,14.15-9.38,22.64-9.38h54.71c8.49,0,16.64,3.37,22.64,9.38l29.47,29.47c12.16,11.66,31.45,11.52,43.42-.45l5.68-5.68c.67-.67,1.38-1.3,2.1-1.9l21.45-21.45c6-6,14.15-9.38,22.64-9.38h54.71c8.49,0,16.64,3.37,22.64,9.38l29.47,29.47c11.69,11.21,29.95,11.48,41.98.86l30.33-30.33c6-6,14.15-9.38,22.64-9.38h54.71c8.49,0,16.64,3.37,22.64,9.38l29.47,29.47c11.69,11.21,29.96,11.48,41.99.85l30.33-30.33c6-6,14.15-9.38,22.64-9.38h54.71c8.49,0,16.64,3.37,22.64,9.38l29.47,29.47c11.69,11.21,29.96,11.48,41.99.85l30.33-30.33c6-6,14.15-9.38,22.64-9.38h54.71c8.49,0,16.64,3.37,22.64,9.38l29.47,29.47c12.16,11.66,31.45,11.52,43.42-.45l5.68-5.68c8.04-8.04,19.75-11.2,30.74-8.29l22.86,6.04-31.24,31.24Z" fill="#fec415"/><path d="M787.56,356.65c10.25,0,18.57,8.31,18.57,18.57,0,10.25-8.31,18.57-18.57,18.57-10.25,0-18.57-8.31-18.57-18.57,0-10.25,8.31-18.57,18.57-18.57Z" fill="#8670b2"/><path d="M686.72,359.83c-10.25,0-18.57-8.31-18.57-18.57,0-10.25,8.31-18.57,18.57-18.57s18.57,8.31,18.57,18.57c0,10.25-8.31,18.57-18.57,18.57Z" fill="#8670b2"/><path d="M585.78,356.65c10.25,0,18.57,8.31,18.57,18.57,0,10.25-8.31,18.57-18.57,18.57s-18.57-8.31-18.57-18.57c0-10.25,8.31-18.57,18.57-18.57Z" fill="#8670b2"/><path d="M384.01,356.65c10.25,0,18.57,8.31,18.57,18.57,0,10.25-8.31,18.57-18.57,18.57s-18.57-8.31-18.57-18.57c0-10.25,8.31-18.57,18.57-18.57Z" fill="#8670b2"/><path d="M283.17,359.83c-10.25,0-18.57-8.31-18.57-18.57,0-10.25,8.31-18.57,18.57-18.57,10.25,0,18.57,8.31,18.57,18.57,0,10.25-8.31,18.57-18.57,18.57Z" fill="#8670b2"/><path d="M1594.99,356.65c10.25,0,18.57,8.31,18.57,18.57,0,10.25-8.31,18.57-18.57,18.57-10.25,0-18.57-8.31-18.57-18.57,0-10.25,8.31-18.57,18.57-18.57Z" fill="#8670b2"/><path d="M1494.15,359.83c-10.25,0-18.57-8.31-18.57-18.57,0-10.25,8.31-18.57,18.57-18.57s18.57,8.31,18.57,18.57c0,10.25-8.31,18.57-18.57,18.57Z" fill="#8670b2"/><path d="M1393.21,356.65c10.25,0,18.57,8.31,18.57,18.57,0,10.25-8.31,18.57-18.57,18.57s-18.57-8.31-18.57-18.57c0-10.25,8.31-18.57,18.57-18.57Z" fill="#8670b2"/><path d="M1191.44,356.65c10.25,0,18.57,8.31,18.57,18.57,0,10.25-8.31,18.57-18.57,18.57s-18.57-8.31-18.57-18.57c0-10.25,8.31-18.57,18.57-18.57Z" fill="#8670b2"/><path d="M1090.6,359.83c-10.25,0-18.57-8.31-18.57-18.57,0-10.25,8.31-18.57,18.57-18.57,10.25,0,18.57,8.31,18.57,18.57,0,10.25-8.31,18.57-18.57,18.57Z" fill="#8670b2"/><path d="M1745.91,384.41c-6,6-14.15,9.38-22.64,9.38h-54.71c-8.49,0-16.64-3.37-22.64-9.38l-29.47-29.47c-11.69-11.21-29.96-11.48-41.99-.85l-30.33,30.33c-6,6-14.15,9.38-22.64,9.38h-54.71c-8.49,0-16.64-3.37-22.64-9.38l-29.47-29.47c-11.69-11.21-29.96-11.48-41.99-.85l-30.33,30.33c-6,6-14.15,9.38-22.64,9.38h-54.71c-8.49,0-16.64-3.37-22.64-9.38l-29.47-29.47c-11.69-11.21-29.95-11.48-41.98-.86l-30.33,30.33c-6,6-14.15,9.38-22.64,9.38h-54.71c-8.49,0-16.64-3.37-22.64-9.38l-29.47-29.47c-12.16-11.66-31.45-11.52-43.42.44l-5.68,5.68c-.67.67-1.38,1.3-2.1,1.9l-21.45,21.45c-6,6-14.15,9.38-22.64,9.38h-54.71c-8.49,0-16.64-3.37-22.64-9.38l-29.47-29.47c-11.69-11.21-29.96-11.48-41.99-.85l-30.33,30.33c-6,6-14.15,9.38-22.64,9.38h-54.71c-8.49,0-16.64-3.37-22.64-9.38l-29.47-29.47c-11.69-11.21-29.96-11.48-41.99-.85l-30.33,30.33c-6,6-14.15,9.38-22.64,9.38h-54.71c-8.49,0-16.64-3.37-22.64-9.38l-29.47-29.47c-11.69-11.21-29.95-11.48-41.98-.86l-30.33,30.33c-6,6-14.15,9.38-22.64,9.38h-54.71c-8.49,0-16.64-3.37-22.64-9.38l-29.47-29.47c-12.16-11.66-31.45-11.52-43.42.44l-5.68,5.68c-8.04,8.04-19.75,11.2-30.74,8.29l-22.86-6.04,31.24-31.24c6-6,14.15-9.38,22.64-9.38h54.71c8.49,0,16.64,3.37,22.64,9.38l29.47,29.47c11.69,11.21,29.95,11.48,41.98.86l30.33-30.33c6-6,14.15-9.38,22.64-9.38h54.71c8.49,0,16.64,3.37,22.64,9.38l29.47,29.47c11.69,11.21,29.96,11.48,41.99.85l30.33-30.33c6-6,14.15-9.38,22.64-9.38h54.71c8.49,0,16.64,3.37,22.64,9.38l29.47,29.47c11.69,11.21,29.96,11.48,41.99.85l30.33-30.33c6-6,14.15-9.38,22.64-9.38h54.71c8.49,0,16.64,3.37,22.64,9.38l29.47,29.47c12.16,11.66,31.45,11.52,43.42-.44l5.68-5.68c.67-.67,1.38-1.3,2.1-1.9l21.45-21.45c6-6,14.15-9.38,22.64-9.38h54.71c8.49,0,16.64,3.37,22.64,9.38l29.47,29.47c11.69,11.21,29.95,11.48,41.98.86l30.33-30.33c6-6,14.15-9.38,22.64-9.38h54.71c8.49,0,16.64,3.37,22.64,9.38l29.47,29.47c11.69,11.21,29.96,11.48,41.99.85l30.33-30.33c6-6,14.15-9.38,22.64-9.38h54.71c8.49,0,16.64,3.37,22.64,9.38l29.47,29.47c11.69,11.21,29.96,11.48,41.99.85l30.33-30.33c6-6,14.15-9.38,22.64-9.38h54.71c8.49,0,16.64,3.37,22.64,9.38l29.47,29.47c12.16,11.66,31.45,11.52,43.42-.44l5.68-5.68c8.04-8.04,19.75-11.2,30.74-8.29l22.86,6.04-31.24,31.24Z" fill="#8670b2"/><path d="M585.71,602.52c-10.25,0-18.57-8.31-18.57-18.57,0-10.25,8.31-18.57,18.57-18.57s18.57,8.31,18.57,18.57c0,10.25-8.31,18.57-18.57,18.57Z" fill="#43c4d9"/><path d="M484.78,599.35c10.25,0,18.57,8.31,18.57,18.57,0,10.25-8.31,18.57-18.57,18.57-10.25,0-18.57-8.31-18.57-18.57,0-10.25,8.31-18.57,18.57-18.57Z" fill="#43c4d9"/><path d="M383.94,602.52c-10.25,0-18.57-8.31-18.57-18.57s8.31-18.57,18.57-18.57,18.57,8.31,18.57,18.57c0,10.25-8.31,18.57-18.57,18.57Z" fill="#43c4d9"/><path d="M182.16,602.52c-10.25,0-18.57-8.31-18.57-18.57,0-10.25,8.31-18.57,18.57-18.57s18.57,8.31,18.57,18.57c0,10.25-8.31,18.57-18.57,18.57Z" fill="#43c4d9"/><path d="M81.23,599.35c10.25,0,18.57,8.31,18.57,18.57,0,10.25-8.31,18.57-18.57,18.57s-18.57-8.31-18.57-18.57c0-10.26,8.31-18.57,18.57-18.57Z" fill="#43c4d9"/><path d="M1594.91,602.52c-10.25,0-18.57-8.31-18.57-18.57,0-10.25,8.31-18.57,18.57-18.57,10.25,0,18.57,8.31,18.57,18.57,0,10.25-8.31,18.57-18.57,18.57Z" fill="#43c4d9"/><path d="M1393.14,602.52c-10.25,0-18.57-8.31-18.57-18.57,0-10.25,8.31-18.57,18.57-18.57s18.57,8.31,18.57,18.57c0,10.25-8.31,18.57-18.57,18.57Z" fill="#43c4d9"/><path d="M1292.21,599.35c10.25,0,18.57,8.31,18.57,18.57,0,10.25-8.31,18.57-18.57,18.57-10.25,0-18.57-8.31-18.57-18.57,0-10.25,8.31-18.57,18.57-18.57Z" fill="#43c4d9"/><path d="M1191.37,602.52c-10.25,0-18.57-8.31-18.57-18.57,0-10.25,8.31-18.57,18.57-18.57s18.57,8.31,18.57,18.57c0,10.25-8.31,18.57-18.57,18.57Z" fill="#43c4d9"/><path d="M989.59,602.52c-10.25,0-18.57-8.31-18.57-18.57,0-10.25,8.31-18.57,18.57-18.57s18.57,8.31,18.57,18.57c0,10.25-8.31,18.57-18.57,18.57Z" fill="#43c4d9"/><path d="M888.66,599.35c10.25,0,18.57,8.31,18.57,18.57,0,10.25-8.31,18.57-18.57,18.57s-18.57-8.31-18.57-18.57c0-10.26,8.31-18.57,18.57-18.57Z" fill="#43c4d9"/><path d="M1644.91,627.1c-6,6-14.15,9.38-22.64,9.38h-54.71c-8.49,0-16.64-3.37-22.64-9.38l-29.47-29.47c-11.69-11.21-29.96-11.48-41.99-.85l-30.33,30.33c-6,6-14.15,9.38-22.64,9.38h-54.71c-8.49,0-16.64-3.37-22.64-9.38l-29.47-29.47c-11.69-11.21-29.96-11.48-41.99-.85l-30.33,30.33c-6,6-14.15,9.38-22.64,9.38h-54.71c-8.49,0-16.64-3.37-22.64-9.38l-29.47-29.47c-11.69-11.21-29.95-11.48-41.98-.86l-30.33,30.33c-6,6-14.15,9.38-22.64,9.38h-54.71c-8.49,0-16.64-3.37-22.64-9.38l-29.47-29.47c-12.16-11.66-31.45-11.52-43.42.45l-5.68,5.68c-.67.67-1.38,1.3-2.1,1.9l-21.45,21.45c-6,6-14.15,9.38-22.64,9.38h-54.71c-8.49,0-16.64-3.37-22.64-9.38l-29.47-29.47c-11.69-11.21-29.96-11.48-41.99-.85l-30.33,30.33c-6,6-14.15,9.38-22.64,9.38h-54.71c-8.49,0-16.64-3.37-22.64-9.38l-29.47-29.47c-11.69-11.21-29.96-11.48-41.99-.85l-30.33,30.33c-6,6-14.15,9.38-22.64,9.38h-54.71c-8.49,0-16.64-3.37-22.64-9.38l-29.47-29.47c-11.69-11.21-29.95-11.48-41.98-.86l-30.33,30.33c-6,6-14.15,9.38-22.64,9.38h-54.71c-8.49,0-16.64-3.37-22.64-9.38l-29.47-29.47c-12.16-11.66-31.45-11.52-43.42.45l-5.68,5.68c-8.04,8.04-19.75,11.2-30.74,8.29L0,606.01l31.24-31.24c6-6,14.15-9.38,22.64-9.38h54.71c8.49,0,16.64,3.37,22.64,9.38l29.47,29.47c11.69,11.21,29.95,11.48,41.98.86l30.33-30.33c6-6,14.15-9.38,22.64-9.38h54.71c8.49,0,16.64,3.37,22.64,9.38l29.47,29.47c11.69,11.21,29.96,11.48,41.99.85l30.33-30.33c6-6,14.15-9.38,22.64-9.38h54.71c8.49,0,16.64,3.37,22.64,9.38l29.47,29.47c11.69,11.21,29.96,11.48,41.99.85l30.33-30.33c6-6,14.15-9.38,22.64-9.38h54.71c8.49,0,16.64,3.37,22.64,9.38l29.47,29.47c12.16,11.66,31.45,11.52,43.42-.45l5.68-5.68c.67-.67,1.38-1.3,2.1-1.9l21.45-21.45c6-6,14.15-9.38,22.64-9.38h54.71c8.49,0,16.64,3.37,22.64,9.38l29.47,29.47c11.69,11.21,29.95,11.48,41.98.86l30.33-30.33c6-6,14.15-9.38,22.64-9.38h54.71c8.49,0,16.64,3.37,22.64,9.38l29.47,29.47c11.69,11.21,29.96,11.48,41.99.85l30.33-30.33c6-6,14.15-9.38,22.64-9.38h54.71c8.49,0,16.64,3.37,22.64,9.38l29.47,29.47c11.69,11.21,29.96,11.48,41.99.85l30.33-30.33c6-6,14.15-9.38,22.64-9.38h54.71c8.49,0,16.64,3.37,22.64,9.38l29.47,29.47c12.16,11.66,31.45,11.52,43.42-.45l5.68-5.68c8.04-8.04,19.75-11.2,30.74-8.29l22.86,6.04-31.24,31.24Z" fill="#43c4d9"/><path d="M787.48,763.42c-10.25,0-18.57-8.31-18.57-18.57,0-10.25,8.31-18.57,18.57-18.57,10.25,0,18.57,8.31,18.57,18.57,0,10.25-8.31,18.57-18.57,18.57Z" fill="#ee447f"/><path d="M686.55,760.24c10.25,0,18.57,8.31,18.57,18.57,0,10.25-8.31,18.57-18.57,18.57s-18.57-8.31-18.57-18.57c0-10.25,8.31-18.57,18.57-18.57Z" fill="#ee447f"/><path d="M484.78,760.24c10.25,0,18.57,8.31,18.57,18.57,0,10.25-8.31,18.57-18.57,18.57s-18.57-8.31-18.57-18.57c0-10.25,8.31-18.57,18.57-18.57Z" fill="#ee447f"/><path d="M383.94,763.42c-10.25,0-18.57-8.31-18.57-18.57,0-10.25,8.31-18.57,18.57-18.57,10.25,0,18.57,8.31,18.57,18.57,0,10.25-8.31,18.57-18.57,18.57Z" fill="#ee447f"/><path d="M283.01,760.24c10.25,0,18.57,8.31,18.57,18.57,0,10.25-8.31,18.57-18.57,18.57-10.25,0-18.57-8.31-18.57-18.57,0-10.25,8.31-18.57,18.57-18.57Z" fill="#ee447f"/><path d="M81.23,760.24c10.25,0,18.57,8.31,18.57,18.57,0,10.25-8.31,18.57-18.57,18.57-10.25,0-18.57-8.31-18.57-18.57,0-10.25,8.31-18.57,18.57-18.57Z" fill="#ee447f"/><path d="M1594.91,763.42c-10.25,0-18.57-8.31-18.57-18.57,0-10.25,8.31-18.57,18.57-18.57,10.25,0,18.57,8.31,18.57,18.57,0,10.25-8.31,18.57-18.57,18.57Z" fill="#ee447f"/><path d="M1493.98,760.24c10.25,0,18.57,8.31,18.57,18.57,0,10.25-8.31,18.57-18.57,18.57s-18.57-8.31-18.57-18.57c0-10.25,8.31-18.57,18.57-18.57Z" fill="#ee447f"/><path d="M1292.21,760.24c10.25,0,18.57,8.31,18.57,18.57,0,10.25-8.31,18.57-18.57,18.57s-18.57-8.31-18.57-18.57c0-10.25,8.31-18.57,18.57-18.57Z" fill="#ee447f"/><path d="M1191.37,763.42c-10.25,0-18.57-8.31-18.57-18.57,0-10.25,8.31-18.57,18.57-18.57,10.25,0,18.57,8.31,18.57,18.57,0,10.25-8.31,18.57-18.57,18.57Z" fill="#ee447f"/><path d="M1090.44,760.24c10.25,0,18.57,8.31,18.57,18.57,0,10.25-8.31,18.57-18.57,18.57-10.25,0-18.57-8.31-18.57-18.57,0-10.25,8.31-18.57,18.57-18.57Z" fill="#ee447f"/><path d="M888.66,760.24c10.25,0,18.57,8.31,18.57,18.57,0,10.25-8.31,18.57-18.57,18.57-10.25,0-18.57-8.31-18.57-18.57,0-10.25,8.31-18.57,18.57-18.57Z" fill="#ee447f"/><path d="M1644.91,788c-6,6-14.15,9.38-22.64,9.38h-54.71c-8.49,0-16.64-3.37-22.64-9.38l-29.47-29.47c-11.69-11.21-29.96-11.48-41.99-.85l-30.33,30.33c-6,6-14.15,9.38-22.64,9.38h-54.71c-8.49,0-16.64-3.37-22.64-9.38l-29.47-29.47c-11.69-11.21-29.96-11.48-41.99-.85l-30.33,30.33c-6,6-14.15,9.38-22.64,9.38h-54.71c-8.49,0-16.64-3.37-22.64-9.38l-29.47-29.47c-11.69-11.21-29.95-11.48-41.98-.86l-30.33,30.33c-6,6-14.15,9.38-22.64,9.38h-54.71c-8.49,0-16.64-3.37-22.64-9.38l-29.47-29.47c-12.16-11.66-31.45-11.52-43.42.45l-5.68,5.68c-.67.67-1.38,1.3-2.1,1.9l-21.45,21.45c-6,6-14.15,9.38-22.64,9.38h-54.71c-8.49,0-16.64-3.37-22.64-9.38l-29.47-29.47c-11.69-11.21-29.96-11.48-41.99-.85l-30.33,30.33c-6,6-14.15,9.38-22.64,9.38h-54.71c-8.49,0-16.64-3.37-22.64-9.38l-29.47-29.47c-11.69-11.21-29.96-11.48-41.99-.85l-30.33,30.33c-6,6-14.15,9.38-22.64,9.38h-54.71c-8.49,0-16.64-3.37-22.64-9.38l-29.47-29.47c-11.69-11.21-29.95-11.48-41.98-.86l-30.33,30.33c-6,6-14.15,9.38-22.64,9.38h-54.71c-8.49,0-16.64-3.37-22.64-9.38l-29.47-29.47c-12.16-11.66-31.45-11.52-43.42.45l-5.68,5.68c-8.04,8.04-19.75,11.2-30.74,8.29l-22.86-6.04,31.24-31.24c6-6,14.15-9.38,22.64-9.38h54.71c8.49,0,16.64,3.37,22.64,9.38l29.47,29.47c11.69,11.21,29.95,11.48,41.98.86l30.33-30.33c6-6,14.15-9.38,22.64-9.38h54.71c8.49,0,16.64,3.37,22.64,9.38l29.47,29.47c11.69,11.21,29.96,11.48,41.99.85l30.33-30.33c6-6,14.15-9.38,22.64-9.38h54.71c8.49,0,16.64,3.37,22.64,9.38l29.47,29.47c11.69,11.21,29.96,11.48,41.99.85l30.33-30.33c6-6,14.15-9.38,22.64-9.38h54.71c8.49,0,16.64,3.37,22.64,9.38l29.47,29.47c12.16,11.66,31.45,11.52,43.42-.45l5.68-5.68c.67-.67,1.38-1.3,2.1-1.9l21.45-21.45c6-6,14.15-9.38,22.64-9.38h54.71c8.49,0,16.64,3.37,22.64,9.38l29.47,29.47c11.69,11.21,29.95,11.48,41.98.86l30.33-30.33c6-6,14.15-9.38,22.64-9.38h54.71c8.49,0,16.64,3.37,22.64,9.38l29.47,29.47c11.69,11.21,29.96,11.48,41.99.85l30.33-30.33c6-6,14.15-9.38,22.64-9.38h54.71c8.49,0,16.64,3.37,22.64,9.38l29.47,29.47c11.69,11.21,29.96,11.48,41.99.85l30.33-30.33c6-6,14.15-9.38,22.64-9.38h54.71c8.49,0,16.64,3.37,22.64,9.38l29.47,29.47c12.16,11.66,31.45,11.52,43.42-.45l5.68-5.68c8.04-8.04,19.75-11.2,30.74-8.29l22.86,6.04-31.24,31.24Z" fill="#ee447f"/><path d="M787.56,841.14c10.25,0,18.57,8.31,18.57,18.57,0,10.25-8.31,18.57-18.57,18.57s-18.57-8.31-18.57-18.57c0-10.25,8.31-18.57,18.57-18.57Z" fill="#fec415"/><path d="M686.72,844.32c-10.25,0-18.57-8.31-18.57-18.57,0-10.25,8.31-18.57,18.57-18.57,10.25,0,18.57,8.31,18.57,18.57,0,10.25-8.31,18.57-18.57,18.57Z" fill="#fec415"/><path d="M585.78,841.14c10.25,0,18.57,8.31,18.57,18.57,0,10.25-8.31,18.57-18.57,18.57-10.25,0-18.57-8.31-18.57-18.57,0-10.25,8.31-18.57,18.57-18.57Z" fill="#fec415"/><path d="M384.01,841.14c10.25,0,18.57,8.31,18.57,18.57,0,10.25-8.31,18.57-18.57,18.57-10.25,0-18.57-8.31-18.57-18.57,0-10.25,8.31-18.57,18.57-18.57Z" fill="#fec415"/><path d="M283.17,844.32c-10.25,0-18.57-8.31-18.57-18.57,0-10.25,8.31-18.57,18.57-18.57s18.57,8.31,18.57,18.57c0,10.25-8.31,18.57-18.57,18.57Z" fill="#fec415"/><path d="M1494.15,844.32c-10.25,0-18.57-8.31-18.57-18.57,0-10.25,8.31-18.57,18.57-18.57,10.25,0,18.57,8.31,18.57,18.57,0,10.25-8.31,18.57-18.57,18.57Z" fill="#fec415"/><path d="M1393.21,841.14c10.25,0,18.57,8.31,18.57,18.57,0,10.25-8.31,18.57-18.57,18.57-10.25,0-18.57-8.31-18.57-18.57,0-10.25,8.31-18.57,18.57-18.57Z" fill="#fec415"/><path d="M1191.44,841.14c10.25,0,18.57,8.31,18.57,18.57,0,10.25-8.31,18.57-18.57,18.57-10.25,0-18.57-8.31-18.57-18.57,0-10.25,8.31-18.57,18.57-18.57Z" fill="#fec415"/><path d="M1090.6,844.32c-10.25,0-18.57-8.31-18.57-18.57,0-10.25,8.31-18.57,18.57-18.57s18.57,8.31,18.57,18.57c0,10.25-8.31,18.57-18.57,18.57Z" fill="#fec415"/><path d="M1745.91,868.9c-6,6-14.15,9.38-22.64,9.38h-54.71c-8.49,0-16.64-3.37-22.64-9.38l-29.47-29.47c-11.69-11.21-29.96-11.48-41.99-.85l-30.33,30.33c-6,6-14.15,9.38-22.64,9.38h-54.71c-8.49,0-16.64-3.37-22.64-9.38l-29.47-29.47c-11.69-11.21-29.96-11.48-41.99-.85l-30.33,30.33c-6,6-14.15,9.38-22.64,9.38h-54.71c-8.49,0-16.64-3.37-22.64-9.38l-29.47-29.47c-11.69-11.21-29.95-11.48-41.98-.86l-30.33,30.33c-6,6-14.15,9.38-22.64,9.38h-54.71c-8.49,0-16.64-3.37-22.64-9.38l-29.47-29.47c-12.16-11.66-31.45-11.52-43.42.45l-5.68,5.68c-.67.67-1.38,1.3-2.1,1.9l-21.45,21.45c-6,6-14.15,9.38-22.64,9.38h-54.71c-8.49,0-16.64-3.37-22.64-9.38l-29.47-29.47c-11.69-11.21-29.96-11.48-41.99-.85l-30.33,30.33c-6,6-14.15,9.38-22.64,9.38h-54.71c-8.49,0-16.64-3.37-22.64-9.38l-29.47-29.47c-11.69-11.21-29.96-11.48-41.99-.85l-30.33,30.33c-6,6-14.15,9.38-22.64,9.38h-54.71c-8.49,0-16.64-3.37-22.64-9.38l-29.47-29.47c-11.69-11.21-29.95-11.48-41.98-.86l-30.33,30.33c-6,6-14.15,9.38-22.64,9.38h-54.71c-8.49,0-16.64-3.37-22.64-9.38l-29.47-29.47c-12.16-11.66-31.45-11.52-43.42.45l-5.68,5.68c-8.04,8.04-19.75,11.2-30.74,8.29l-22.86-6.04,31.24-31.24c6-6,14.15-9.38,22.64-9.38h54.71c8.49,0,16.64,3.37,22.64,9.38l29.47,29.47c11.69,11.21,29.95,11.48,41.98.86l30.33-30.33c6-6,14.15-9.38,22.64-9.38h54.71c8.49,0,16.64,3.37,22.64,9.38l29.47,29.47c11.69,11.21,29.96,11.48,41.99.85l30.33-30.33c6-6,14.15-9.38,22.64-9.38h54.71c8.49,0,16.64,3.37,22.64,9.38l29.47,29.47c11.69,11.21,29.96,11.48,41.99.85l30.33-30.33c6-6,14.15-9.38,22.64-9.38h54.71c8.49,0,16.64,3.37,22.64,9.38l29.47,29.47c12.16,11.66,31.45,11.52,43.42-.45l5.68-5.68c.67-.67,1.38-1.3,2.1-1.9l21.45-21.45c6-6,14.15-9.38,22.64-9.38h54.71c8.49,0,16.64,3.37,22.64,9.38l29.47,29.47c11.69,11.21,29.95,11.48,41.98.86l30.33-30.33c6-6,14.15-9.38,22.64-9.38h54.71c8.49,0,16.64,3.37,22.64,9.38l29.47,29.47c11.69,11.21,29.96,11.48,41.99.85l30.33-30.33c6-6,14.15-9.38,22.64-9.38h54.71c8.49,0,16.64,3.37,22.64,9.38l29.47,29.47c11.69,11.21,29.96,11.48,41.99.85l30.33-30.33c6-6,14.15-9.38,22.64-9.38h54.71c8.49,0,16.64,3.37,22.64,9.38l29.47,29.47c12.16,11.66,31.45,11.52,43.42-.45l5.68-5.68c8.04-8.04,19.75-11.2,30.74-8.29l22.86,6.04-31.24,31.24Z" fill="#fec415"/><path d="M787.56,679.35c10.25,0,18.57,8.31,18.57,18.57,0,10.25-8.31,18.57-18.57,18.57-10.25,0-18.57-8.31-18.57-18.57,0-10.25,8.31-18.57,18.57-18.57Z" fill="#8670b2"/><path d="M686.72,682.52c-10.25,0-18.57-8.31-18.57-18.57,0-10.25,8.31-18.57,18.57-18.57s18.57,8.31,18.57,18.57c0,10.25-8.31,18.57-18.57,18.57Z" fill="#8670b2"/><path d="M585.78,679.35c10.25,0,18.57,8.31,18.57,18.57,0,10.25-8.31,18.57-18.57,18.57s-18.57-8.31-18.57-18.57c0-10.25,8.31-18.57,18.57-18.57Z" fill="#8670b2"/><path d="M384.01,679.35c10.25,0,18.57,8.31,18.57,18.57,0,10.25-8.31,18.57-18.57,18.57s-18.57-8.31-18.57-18.57c0-10.25,8.31-18.57,18.57-18.57Z" fill="#8670b2"/><path d="M283.17,682.53c-10.25,0-18.57-8.31-18.57-18.57,0-10.25,8.31-18.57,18.57-18.57,10.25,0,18.57,8.31,18.57,18.57,0,10.25-8.31,18.57-18.57,18.57Z" fill="#8670b2"/><path d="M1594.99,679.35c10.25,0,18.57,8.31,18.57,18.57,0,10.25-8.31,18.57-18.57,18.57-10.25,0-18.57-8.31-18.57-18.57,0-10.25,8.31-18.57,18.57-18.57Z" fill="#8670b2"/><path d="M1494.15,682.52c-10.25,0-18.57-8.31-18.57-18.57,0-10.25,8.31-18.57,18.57-18.57s18.57,8.31,18.57,18.57c0,10.25-8.31,18.57-18.57,18.57Z" fill="#8670b2"/><path d="M1393.21,679.35c10.25,0,18.57,8.31,18.57,18.57,0,10.25-8.31,18.57-18.57,18.57s-18.57-8.31-18.57-18.57c0-10.25,8.31-18.57,18.57-18.57Z" fill="#8670b2"/><path d="M1191.44,679.35c10.25,0,18.57,8.31,18.57,18.57,0,10.25-8.31,18.57-18.57,18.57s-18.57-8.31-18.57-18.57c0-10.25,8.31-18.57,18.57-18.57Z" fill="#8670b2"/><path d="M1090.6,682.53c-10.25,0-18.57-8.31-18.57-18.57,0-10.25,8.31-18.57,18.57-18.57,10.25,0,18.57,8.31,18.57,18.57,0,10.25-8.31,18.57-18.57,18.57Z" fill="#8670b2"/><path d="M1745.91,707.1c-6,6-14.15,9.38-22.64,9.38h-54.71c-8.49,0-16.64-3.37-22.64-9.38l-29.47-29.47c-11.69-11.21-29.96-11.48-41.99-.85l-30.33,30.33c-6,6-14.15,9.38-22.64,9.38h-54.71c-8.49,0-16.64-3.37-22.64-9.38l-29.47-29.47c-11.69-11.21-29.96-11.48-41.99-.85l-30.33,30.33c-6,6-14.15,9.38-22.64,9.38h-54.71c-8.49,0-16.64-3.37-22.64-9.38l-29.47-29.47c-11.69-11.21-29.95-11.48-41.98-.86l-30.33,30.33c-6,6-14.15,9.38-22.64,9.38h-54.71c-8.49,0-16.64-3.37-22.64-9.38l-29.47-29.47c-12.16-11.66-31.45-11.52-43.42.44l-5.68,5.68c-.67.67-1.38,1.3-2.1,1.9l-21.45,21.45c-6,6-14.15,9.38-22.64,9.38h-54.71c-8.49,0-16.64-3.37-22.64-9.38l-29.47-29.47c-11.69-11.21-29.96-11.48-41.99-.85l-30.33,30.33c-6,6-14.15,9.38-22.64,9.38h-54.71c-8.49,0-16.64-3.37-22.64-9.38l-29.47-29.47c-11.69-11.21-29.96-11.48-41.99-.85l-30.33,30.33c-6,6-14.15,9.38-22.64,9.38h-54.71c-8.49,0-16.64-3.37-22.64-9.38l-29.47-29.47c-11.69-11.21-29.95-11.48-41.98-.86l-30.33,30.33c-6,6-14.15,9.38-22.64,9.38h-54.71c-8.49,0-16.64-3.37-22.64-9.38l-29.47-29.47c-12.16-11.66-31.45-11.52-43.42.44l-5.68,5.68c-8.04,8.04-19.75,11.2-30.74,8.29l-22.86-6.04,31.24-31.24c6-6,14.15-9.38,22.64-9.38h54.71c8.49,0,16.64,3.37,22.64,9.38l29.47,29.47c11.69,11.21,29.95,11.48,41.98.86l30.33-30.33c6-6,14.15-9.38,22.64-9.38h54.71c8.49,0,16.64,3.37,22.64,9.38l29.47,29.47c11.69,11.21,29.96,11.48,41.99.85l30.33-30.33c6-6,14.15-9.38,22.64-9.38h54.71c8.49,0,16.64,3.37,22.64,9.38l29.47,29.47c11.69,11.21,29.96,11.48,41.99.85l30.33-30.33c6-6,14.15-9.38,22.64-9.38h54.71c8.49,0,16.64,3.37,22.64,9.38l29.47,29.47c12.16,11.66,31.45,11.52,43.42-.44l5.68-5.68c.67-.67,1.38-1.3,2.1-1.9l21.45-21.45c6-6,14.15-9.38,22.64-9.38h54.71c8.49,0,16.64,3.37,22.64,9.38l29.47,29.47c11.69,11.21,29.95,11.48,41.98.86l30.33-30.33c6-6,14.15-9.38,22.64-9.38h54.71c8.49,0,16.64,3.37,22.64,9.38l29.47,29.47c11.69,11.21,29.96,11.48,41.99.85l30.33-30.33c6-6,14.15-9.38,22.64-9.38h54.71c8.49,0,16.64,3.37,22.64,9.38l29.47,29.47c11.69,11.21,29.96,11.48,41.99.85l30.33-30.33c6-6,14.15-9.38,22.64-9.38h54.71c8.49,0,16.64,3.37,22.64,9.38l29.47,29.47c12.16,11.66,31.45,11.52,43.42-.44l5.68-5.68c8.04-8.04,19.75-11.2,30.74-8.29l22.86,6.04-31.24,31.24Z" fill="#8670b2"/><path d="M585.71,925.22c-10.25,0-18.57-8.31-18.57-18.57,0-10.25,8.31-18.57,18.57-18.57s18.57,8.31,18.57,18.57c0,10.25-8.31,18.57-18.57,18.57Z" fill="#43c4d9"/><path d="M484.78,922.04c10.25,0,18.57,8.31,18.57,18.57,0,10.25-8.31,18.57-18.57,18.57-10.25,0-18.57-8.31-18.57-18.57,0-10.25,8.31-18.57,18.57-18.57Z" fill="#43c4d9"/><path d="M383.94,925.22c-10.25,0-18.57-8.31-18.57-18.57s8.31-18.57,18.57-18.57,18.57,8.31,18.57,18.57c0,10.25-8.31,18.57-18.57,18.57Z" fill="#43c4d9"/><path d="M182.16,925.22c-10.25,0-18.57-8.31-18.57-18.57,0-10.25,8.31-18.57,18.57-18.57s18.57,8.31,18.57,18.57c0,10.25-8.31,18.57-18.57,18.57Z" fill="#43c4d9"/><path d="M81.23,922.04c10.25,0,18.57,8.31,18.57,18.57,0,10.25-8.31,18.57-18.57,18.57s-18.57-8.31-18.57-18.57c0-10.26,8.31-18.57,18.57-18.57Z" fill="#43c4d9"/><path d="M1594.91,925.22c-10.25,0-18.57-8.31-18.57-18.57,0-10.25,8.31-18.57,18.57-18.57,10.25,0,18.57,8.31,18.57,18.57,0,10.25-8.31,18.57-18.57,18.57Z" fill="#43c4d9"/><path d="M1393.14,925.22c-10.25,0-18.57-8.31-18.57-18.57,0-10.25,8.31-18.57,18.57-18.57s18.57,8.31,18.57,18.57c0,10.25-8.31,18.57-18.57,18.57Z" fill="#43c4d9"/><path d="M1292.21,922.04c10.25,0,18.57,8.31,18.57,18.57,0,10.25-8.31,18.57-18.57,18.57-10.25,0-18.57-8.31-18.57-18.57,0-10.25,8.31-18.57,18.57-18.57Z" fill="#43c4d9"/><path d="M1191.37,925.22c-10.25,0-18.57-8.31-18.57-18.57,0-10.25,8.31-18.57,18.57-18.57s18.57,8.31,18.57,18.57c0,10.25-8.31,18.57-18.57,18.57Z" fill="#43c4d9"/><path d="M989.59,925.22c-10.25,0-18.57-8.31-18.57-18.57,0-10.25,8.31-18.57,18.57-18.57s18.57,8.31,18.57,18.57c0,10.25-8.31,18.57-18.57,18.57Z" fill="#43c4d9"/><path d="M888.66,922.04c10.25,0,18.57,8.31,18.57,18.57,0,10.25-8.31,18.57-18.57,18.57s-18.57-8.31-18.57-18.57c0-10.26,8.31-18.57,18.57-18.57Z" fill="#43c4d9"/><path d="M1644.91,949.8c-6,6-14.15,9.38-22.64,9.38h-54.71c-8.49,0-16.64-3.37-22.64-9.38l-29.47-29.47c-11.69-11.21-29.96-11.48-41.99-.85l-30.33,30.33c-6,6-14.15,9.38-22.64,9.38h-54.71c-8.49,0-16.64-3.37-22.64-9.38l-29.47-29.47c-11.69-11.21-29.96-11.48-41.99-.85l-30.33,30.33c-6,6-14.15,9.38-22.64,9.38h-54.71c-8.49,0-16.64-3.37-22.64-9.38l-29.47-29.47c-11.69-11.21-29.95-11.48-41.98-.86l-30.33,30.33c-6,6-14.15,9.38-22.64,9.38h-54.71c-8.49,0-16.64-3.37-22.64-9.38l-29.47-29.47c-12.16-11.66-31.45-11.52-43.42.45l-5.68,5.68c-.67.67-1.38,1.3-2.1,1.9l-21.45,21.45c-6,6-14.15,9.38-22.64,9.38h-54.71c-8.49,0-16.64-3.37-22.64-9.38l-29.47-29.47c-11.69-11.21-29.96-11.48-41.99-.85l-30.33,30.33c-6,6-14.15,9.38-22.64,9.38h-54.71c-8.49,0-16.64-3.37-22.64-9.38l-29.47-29.47c-11.69-11.21-29.96-11.48-41.99-.85l-30.33,30.33c-6,6-14.15,9.38-22.64,9.38h-54.71c-8.49,0-16.64-3.37-22.64-9.38l-29.47-29.47c-11.69-11.21-29.95-11.48-41.98-.86l-30.33,30.33c-6,6-14.15,9.38-22.64,9.38h-54.71c-8.49,0-16.64-3.37-22.64-9.38l-29.47-29.47c-12.16-11.66-31.45-11.52-43.42.45l-5.68,5.68c-8.04,8.04-19.75,11.2-30.74,8.29L0,928.7l31.24-31.24c6-6,14.15-9.38,22.64-9.38h54.71c8.49,0,16.64,3.37,22.64,9.38l29.47,29.47c11.69,11.21,29.95,11.48,41.98.86l30.33-30.33c6-6,14.15-9.38,22.64-9.38h54.71c8.49,0,16.64,3.37,22.64,9.38l29.47,29.47c11.69,11.21,29.96,11.48,41.99.85l30.33-30.33c6-6,14.15-9.38,22.64-9.38h54.71c8.49,0,16.64,3.37,22.64,9.38l29.47,29.47c11.69,11.21,29.96,11.48,41.99.85l30.33-30.33c6-6,14.15-9.38,22.64-9.38h54.71c8.49,0,16.64,3.37,22.64,9.38l29.47,29.47c12.16,11.66,31.45,11.52,43.42-.45l5.68-5.68c.67-.67,1.38-1.3,2.1-1.9l21.45-21.45c6-6,14.15-9.38,22.64-9.38h54.71c8.49,0,16.64,3.37,22.64,9.38l29.47,29.47c11.69,11.21,29.95,11.48,41.98.86l30.33-30.33c6-6,14.15-9.38,22.64-9.38h54.71c8.49,0,16.64,3.37,22.64,9.38l29.47,29.47c11.69,11.21,29.96,11.48,41.99.85l30.33-30.33c6-6,14.15-9.38,22.64-9.38h54.71c8.49,0,16.64,3.37,22.64,9.38l29.47,29.47c11.69,11.21,29.96,11.48,41.99.85l30.33-30.33c6-6,14.15-9.38,22.64-9.38h54.71c8.49,0,16.64,3.37,22.64,9.38l29.47,29.47c12.16,11.66,31.45,11.52,43.42-.45l5.68-5.68c8.04-8.04,19.75-11.2,30.74-8.29l22.86,6.04-31.24,31.24Z" fill="#43c4d9"/></svg>