<?xml version="1.0" encoding="UTF-8"?><svg id="Layer_1" xmlns="http://www.w3.org/2000/svg" viewBox="0 0 1485.78 568.39"><path d="M72.02,32.92c9.09,0,16.46-7.37,16.46-16.46,0-9.09-7.37-16.46-16.46-16.46-9.09,0-16.46,7.37-16.46,16.46,0,9.09,7.37,16.46,16.46,16.46Z" fill="#ee447f"/><path d="M145.04,46.57c0,9.09,7.37,16.46,16.46,16.46,9.09,0,16.46-7.37,16.46-16.46,0-9.09-7.37-16.46-16.46-16.46-9.09,0-16.46,7.37-16.46,16.46Z" fill="#ee447f"/><path d="M323.92,46.57c0,9.09,7.37,16.46,16.46,16.46,9.09,0,16.46-7.37,16.46-16.46,0-9.09-7.37-16.46-16.46-16.46-9.09,0-16.46,7.37-16.46,16.46Z" fill="#ee447f"/><path d="M429.78,32.92c9.09,0,16.46-7.37,16.46-16.46,0-9.09-7.37-16.46-16.46-16.46-9.09,0-16.46,7.37-16.46,16.46,0,9.09,7.37,16.46,16.46,16.46Z" fill="#ee447f"/><path d="M502.8,46.57c0,9.09,7.37,16.46,16.46,16.46,9.09,0,16.46-7.37,16.46-16.46,0-9.09-7.37-16.46-16.46-16.46-9.09,0-16.46,7.37-16.46,16.46Z" fill="#ee447f"/><path d="M681.69,46.57c0,9.09,7.37,16.46,16.46,16.46,9.09,0,16.46-7.37,16.46-16.46,0-9.09-7.37-16.46-16.46-16.46-9.09,0-16.46,7.37-16.46,16.46Z" fill="#ee447f"/><path d="M47.77,63.03h48.5c7.53,0,14.75-2.99,20.07-8.31l26.13-26.13c10.36-9.93,26.56-10.18,37.22-.76l26.89,26.89c5.32,5.32,12.54,8.31,20.07,8.31h48.5c7.53,0,14.75-2.99,20.07-8.31l26.13-26.13c10.36-9.93,26.56-10.18,37.22-.76l26.89,26.89c5.32,5.32,12.54,8.31,20.07,8.31h48.5c7.53,0,14.75-2.99,20.07-8.31l26.13-26.13c10.36-9.93,26.56-10.18,37.22-.76l26.89,26.89c5.32,5.32,12.54,8.31,20.07,8.31h48.5c7.53,0,14.75-2.99,20.07-8.31l26.13-26.13c10.48-10.05,26.94-10.21,37.6-.46l26.59,26.59c5.32,5.32,12.54,8.31,20.07,8.31h48.5c7.53,0,14.75-2.99,20.07-8.31l26.13-26.13c10.36-9.93,26.56-10.18,37.22-.76l26.89,26.89c5.32,5.32,12.54,8.31,20.07,8.31h48.5c7.53,0,14.75-2.99,20.07-8.31l26.13-26.13c10.36-9.93,26.56-10.18,37.22-.76l26.89,26.89c5.32,5.32,12.54,8.31,20.07,8.31h48.5c7.53,0,14.75-2.99,20.07-8.31l26.13-26.13c10.36-9.93,26.56-10.18,37.22-.76l26.89,26.89c5.32,5.32,12.54,8.31,20.07,8.31h48.5c7.53,0,14.75-2.99,20.07-8.31l26.13-26.13c10.78-10.33,27.88-10.22,38.5.39l5.03,5.03c7.13,7.13,17.51,9.93,27.25,7.35l20.27-5.36-27.69-27.69c-5.32-5.32-12.54-8.31-20.07-8.31h-48.5c-7.53,0-14.75,2.99-20.07,8.31l-26.13,26.13c-10.36,9.93-26.56,10.18-37.22.76l-26.89-26.89c-5.32-5.32-12.54-8.31-20.07-8.31h-48.5c-7.53,0-14.75,2.99-20.07,8.31l-26.13,26.13c-10.36,9.93-26.56,10.18-37.22.76l-26.89-26.89c-5.32-5.32-12.54-8.31-20.07-8.31h-48.5c-7.53,0-14.75,2.99-20.07,8.31l-26.13,26.13c-10.36,9.93-26.56,10.18-37.22.76l-26.89-26.89C916.11,2.99,908.89,0,901.36,0h-48.5c-7.53,0-14.75,2.99-20.07,8.31l-26.13,26.13c-10.48,10.05-26.94,10.21-37.6.46l-26.59-26.59C737.15,2.99,729.93,0,722.4,0h-48.5c-7.53,0-14.75,2.99-20.07,8.31l-26.13,26.13c-10.36,9.93-26.56,10.18-37.22.76l-26.89-26.89C558.26,2.99,551.04,0,543.52,0h-48.5c-7.53,0-14.75,2.99-20.07,8.31l-26.13,26.13c-10.36,9.93-26.56,10.18-37.22.76l-26.89-26.89C379.38,2.99,372.16,0,364.63,0h-48.5c-7.53,0-14.75,2.99-20.07,8.31l-26.13,26.13c-10.36,9.93-26.56,10.18-37.22.76l-26.89-26.89C200.5,2.99,193.28,0,185.75,0h-48.5c-7.53,0-14.75,2.99-20.07,8.31l-26.13,26.13c-10.78,10.33-27.88,10.22-38.5-.39l-5.03-5.03c-7.13-7.13-17.51-9.93-27.25-7.35L0,27.02l27.69,27.69c5.32,5.32,12.54,8.31,20.07,8.31Z" fill="#ee447f"/><path d="M55.56,305.24c0,9.09,7.37,16.46,16.46,16.46,9.09,0,16.46-7.37,16.46-16.46,0-9.09-7.37-16.46-16.46-16.46-9.09,0-16.46,7.37-16.46,16.46Z" fill="#ee447f"/><path d="M161.5,318.89c-9.09,0-16.46,7.37-16.46,16.46,0,9.09,7.37,16.46,16.46,16.46,9.09,0,16.46-7.37,16.46-16.46,0-9.09-7.37-16.46-16.46-16.46Z" fill="#ee447f"/><path d="M340.38,318.89c-9.09,0-16.46,7.37-16.46,16.46,0,9.09,7.37,16.46,16.46,16.46,9.09,0,16.46-7.37,16.46-16.46,0-9.09-7.37-16.46-16.46-16.46Z" fill="#ee447f"/><path d="M413.32,305.24c0,9.09,7.37,16.46,16.46,16.46,9.09,0,16.46-7.37,16.46-16.46,0-9.09-7.37-16.46-16.46-16.46-9.09,0-16.46,7.37-16.46,16.46Z" fill="#ee447f"/><path d="M519.26,318.89c-9.09,0-16.46,7.37-16.46,16.46,0,9.09,7.37,16.46,16.46,16.46,9.09,0,16.46-7.37,16.46-16.46,0-9.09-7.37-16.46-16.46-16.46Z" fill="#ee447f"/><path d="M698.15,318.89c-9.09,0-16.46,7.37-16.46,16.46,0,9.09,7.37,16.46,16.46,16.46,9.09,0,16.46-7.37,16.46-16.46,0-9.09-7.37-16.46-16.46-16.46Z" fill="#ee447f"/><path d="M787.63,32.92c9.09,0,16.46-7.37,16.46-16.46,0-9.09-7.37-16.46-16.46-16.46-9.09,0-16.46,7.37-16.46,16.46,0,9.09,7.37,16.46,16.46,16.46Z" fill="#ee447f"/><path d="M860.65,46.57c0,9.09,7.37,16.46,16.46,16.46,9.09,0,16.46-7.37,16.46-16.46,0-9.09-7.37-16.46-16.46-16.46-9.09,0-16.46,7.37-16.46,16.46Z" fill="#ee447f"/><path d="M1039.53,46.57c0,9.09,7.37,16.46,16.46,16.46,9.09,0,16.46-7.37,16.46-16.46,0-9.09-7.37-16.46-16.46-16.46-9.09,0-16.46,7.37-16.46,16.46Z" fill="#ee447f"/><path d="M1145.39,32.92c9.09,0,16.46-7.37,16.46-16.46,0-9.09-7.37-16.46-16.46-16.46-9.09,0-16.46,7.37-16.46,16.46,0,9.09,7.37,16.46,16.46,16.46Z" fill="#ee447f"/><path d="M1218.41,46.57c0,9.09,7.37,16.46,16.46,16.46,9.09,0,16.46-7.37,16.46-16.46,0-9.09-7.37-16.46-16.46-16.46-9.09,0-16.46,7.37-16.46,16.46Z" fill="#ee447f"/><path d="M1397.3,46.57c0,9.09,7.37,16.46,16.46,16.46,9.09,0,16.46-7.37,16.46-16.46,0-9.09-7.37-16.46-16.46-16.46-9.09,0-16.46,7.37-16.46,16.46Z" fill="#ee447f"/><path d="M771.17,305.24c0,9.09,7.37,16.46,16.46,16.46,9.09,0,16.46-7.37,16.46-16.46,0-9.09-7.37-16.46-16.46-16.46-9.09,0-16.46,7.37-16.46,16.46Z" fill="#ee447f"/><path d="M877.11,318.89c-9.09,0-16.46,7.37-16.46,16.46s7.37,16.46,16.46,16.46c9.09,0,16.46-7.37,16.46-16.46,0-9.09-7.37-16.46-16.46-16.46Z" fill="#ee447f"/><path d="M1055.99,318.89c-9.09,0-16.46,7.37-16.46,16.46s7.37,16.46,16.46,16.46c9.09,0,16.46-7.37,16.46-16.46,0-9.09-7.37-16.46-16.46-16.46Z" fill="#ee447f"/><path d="M1128.93,305.24c0,9.09,7.37,16.46,16.46,16.46,9.09,0,16.46-7.37,16.46-16.46,0-9.09-7.37-16.46-16.46-16.46-9.09,0-16.46,7.37-16.46,16.46Z" fill="#ee447f"/><path d="M1234.88,318.89c-9.09,0-16.46,7.37-16.46,16.46s7.37,16.46,16.46,16.46c9.09,0,16.46-7.37,16.46-16.46,0-9.09-7.37-16.46-16.46-16.46Z" fill="#ee447f"/><path d="M1413.76,318.89c-9.09,0-16.46,7.37-16.46,16.46,0,9.09,7.37,16.46,16.46,16.46,9.09,0,16.46-7.37,16.46-16.46,0-9.09-7.37-16.46-16.46-16.46Z" fill="#ee447f"/><path d="M1438.01,288.78h-48.5c-7.53,0-14.75,2.99-20.07,8.31l-26.13,26.13c-10.36,9.93-26.56,10.18-37.22.76l-26.89-26.89c-5.32-5.32-12.54-8.31-20.07-8.31h-48.5c-7.53,0-14.75,2.99-20.07,8.31l-26.13,26.13c-10.36,9.93-26.56,10.18-37.22.76l-26.89-26.89c-5.32-5.32-12.54-8.31-20.07-8.31h-48.5c-7.53,0-14.75,2.99-20.07,8.31l-26.13,26.13c-10.36,9.93-26.56,10.18-37.22.76l-26.89-26.89c-5.32-5.32-12.54-8.31-20.07-8.31h-48.5c-7.53,0-14.75,2.99-20.07,8.31l-26.13,26.13c-10.48,10.05-26.94,10.21-37.6.46l-26.59-26.59c-5.32-5.32-12.54-8.31-20.07-8.31h-48.5c-7.53,0-14.75,2.99-20.07,8.31l-26.13,26.13c-10.36,9.93-26.56,10.18-37.22.76l-26.89-26.89c-5.32-5.32-12.54-8.31-20.07-8.31h-48.5c-7.53,0-14.75,2.99-20.07,8.31l-26.13,26.13c-10.36,9.93-26.56,10.18-37.22.76l-26.89-26.89c-5.32-5.32-12.54-8.31-20.07-8.31h-48.5c-7.53,0-14.75,2.99-20.07,8.31l-26.13,26.13c-10.36,9.93-26.56,10.18-37.22.76l-26.89-26.89c-5.32-5.32-12.54-8.31-20.07-8.31h-48.5c-7.53,0-14.75,2.99-20.07,8.31l-26.13,26.13c-10.78,10.33-27.88,10.22-38.5-.39l-5.03-5.03c-7.13-7.13-17.51-9.93-27.25-7.35l-20.27,5.36,27.69,27.69c5.32,5.32,12.54,8.31,20.07,8.31h48.5c7.53,0,14.75-2.99,20.07-8.31l26.13-26.13c10.36-9.93,26.56-10.18,37.22-.76l26.89,26.89c5.32,5.32,12.54,8.31,20.07,8.31h48.5c7.53,0,14.75-2.99,20.07-8.31l26.13-26.13c10.36-9.93,26.56-10.18,37.22-.76l26.89,26.89c5.32,5.32,12.54,8.31,20.07,8.31h48.5c7.53,0,14.75-2.99,20.07-8.31l26.13-26.13c10.36-9.93,26.56-10.18,37.22-.76l26.89,26.89c5.32,5.32,12.54,8.31,20.07,8.31h48.5c7.53,0,14.75-2.99,20.07-8.31l26.13-26.13c10.48-10.05,26.94-10.21,37.6-.46l26.59,26.59c5.32,5.32,12.54,8.31,20.07,8.31h48.5c7.53,0,14.75-2.99,20.07-8.31l26.13-26.13c10.36-9.93,26.56-10.18,37.22-.76l26.89,26.89c5.32,5.32,12.54,8.31,20.07,8.31h48.5c7.53,0,14.75-2.99,20.07-8.31l26.13-26.13c10.36-9.93,26.56-10.18,37.22-.76l26.89,26.89c5.32,5.32,12.54,8.31,20.07,8.31h48.5c7.53,0,14.75-2.99,20.07-8.31l26.13-26.13c10.36-9.93,26.56-10.18,37.22-.76l26.89,26.89c5.32,5.32,12.54,8.31,20.07,8.31h48.5c7.53,0,14.75-2.99,20.07-8.31l26.13-26.13c10.78-10.33,27.88-10.22,38.5.39l5.03,5.03c7.13,7.13,17.51,9.93,27.25,7.35l20.27-5.36-27.69-27.69c-5.32-5.32-12.54-8.31-20.07-8.31Z" fill="#ee447f"/><path d="M145.04,118.76c0,9.09,7.37,16.46,16.46,16.46,9.09,0,16.46-7.37,16.46-16.46,0-9.09-7.37-16.46-16.46-16.46-9.09,0-16.46,7.37-16.46,16.46Z" fill="#fec415"/><path d="M250.9,105.12c9.09,0,16.46-7.37,16.46-16.46,0-9.09-7.37-16.46-16.46-16.46-9.09,0-16.46,7.37-16.46,16.46,0,9.09,7.37,16.46,16.46,16.46Z" fill="#fec415"/><path d="M323.92,118.76c0,9.09,7.37,16.46,16.46,16.46,9.09,0,16.46-7.37,16.46-16.46,0-9.09-7.37-16.46-16.46-16.46-9.09,0-16.46,7.37-16.46,16.46Z" fill="#fec415"/><path d="M502.8,118.76c0,9.09,7.37,16.46,16.46,16.46,9.09,0,16.46-7.37,16.46-16.46,0-9.09-7.37-16.46-16.46-16.46-9.09,0-16.46,7.37-16.46,16.46Z" fill="#fec415"/><path d="M608.67,105.12c9.09,0,16.46-7.37,16.46-16.46,0-9.09-7.37-16.46-16.46-16.46-9.09,0-16.46,7.37-16.46,16.46,0,9.09,7.37,16.46,16.46,16.46Z" fill="#fec415"/><path d="M47.77,135.22h48.5c7.53,0,14.75-2.99,20.07-8.31l26.13-26.13c10.36-9.93,26.56-10.18,37.22-.76l26.89,26.89c5.32,5.32,12.54,8.31,20.07,8.31h48.5c7.53,0,14.75-2.99,20.07-8.31l26.13-26.13c10.36-9.93,26.56-10.18,37.22-.76l26.89,26.89c5.32,5.32,12.54,8.31,20.07,8.31h48.5c7.53,0,14.75-2.99,20.07-8.31l26.13-26.13c10.36-9.93,26.56-10.18,37.22-.76l26.89,26.89c5.32,5.32,12.54,8.31,20.07,8.31h48.5c7.53,0,14.75-2.99,20.07-8.31l26.13-26.13c10.48-10.05,26.94-10.21,37.6-.46l26.59,26.59c5.32,5.32,12.54,8.31,20.07,8.31h48.5c7.53,0,14.75-2.99,20.07-8.31l26.13-26.13c10.36-9.93,26.56-10.18,37.22-.76l26.89,26.89c5.32,5.32,12.54,8.31,20.07,8.31h48.5c7.53,0,14.75-2.99,20.07-8.31l26.13-26.13c10.36-9.93,26.56-10.18,37.22-.76l26.89,26.89c5.32,5.32,12.54,8.31,20.07,8.31h48.5c7.53,0,14.75-2.99,20.07-8.31l26.13-26.13c10.36-9.93,26.56-10.18,37.22-.76l26.89,26.89c5.32,5.32,12.54,8.31,20.07,8.31h48.5c7.53,0,14.75-2.99,20.07-8.31l26.13-26.13c10.78-10.33,27.88-10.22,38.5.39l5.03,5.03c7.13,7.13,17.51,9.93,27.25,7.35l20.27-5.36-27.69-27.69c-5.32-5.32-12.54-8.31-20.07-8.31h-48.5c-7.53,0-14.75,2.99-20.07,8.31l-26.13,26.13c-10.36,9.93-26.56,10.18-37.22.76l-26.89-26.89c-5.32-5.32-12.54-8.31-20.07-8.31h-48.5c-7.53,0-14.75,2.99-20.07,8.31l-26.13,26.13c-10.36,9.93-26.56,10.18-37.22.76l-26.89-26.89c-5.32-5.32-12.54-8.31-20.07-8.31h-48.5c-7.53,0-14.75,2.99-20.07,8.31l-26.13,26.13c-10.36,9.93-26.56,10.18-37.22.76l-26.89-26.89c-5.32-5.32-12.54-8.31-20.07-8.31h-48.5c-7.53,0-14.75,2.99-20.07,8.31l-26.13,26.13c-10.48,10.05-26.94,10.21-37.6.46l-26.59-26.59c-5.32-5.32-12.54-8.31-20.07-8.31h-48.5c-7.53,0-14.75,2.99-20.07,8.31l-26.13,26.13c-10.36,9.93-26.56,10.18-37.22.76l-26.89-26.89c-5.32-5.32-12.54-8.31-20.07-8.31h-48.5c-7.53,0-14.75,2.99-20.07,8.31l-26.13,26.13c-10.36,9.93-26.56,10.18-37.22.76l-26.89-26.89c-5.32-5.32-12.54-8.31-20.07-8.31h-48.5c-7.53,0-14.75,2.99-20.07,8.31l-26.13,26.13c-10.36,9.93-26.56,10.18-37.22.76l-26.89-26.89c-5.32-5.32-12.54-8.31-20.07-8.31h-48.5c-7.53,0-14.75,2.99-20.07,8.31l-26.13,26.13c-10.78,10.33-27.88,10.22-38.5-.39l-5.03-5.03c-7.13-7.13-17.51-9.93-27.25-7.35L0,99.21l27.69,27.69c5.32,5.32,12.54,8.31,20.07,8.31Z" fill="#fec415"/><path d="M161.5,391.08c-9.09,0-16.46,7.37-16.46,16.46,0,9.09,7.37,16.46,16.46,16.46,9.09,0,16.46-7.37,16.46-16.46,0-9.09-7.37-16.46-16.46-16.46Z" fill="#fec415"/><path d="M234.44,377.44c0,9.09,7.37,16.46,16.46,16.46,9.09,0,16.46-7.37,16.46-16.46,0-9.09-7.37-16.46-16.46-16.46-9.09,0-16.46,7.37-16.46,16.46Z" fill="#fec415"/><path d="M340.38,391.08c-9.09,0-16.46,7.37-16.46,16.46,0,9.09,7.37,16.46,16.46,16.46,9.09,0,16.46-7.37,16.46-16.46,0-9.09-7.37-16.46-16.46-16.46Z" fill="#fec415"/><path d="M519.26,391.08c-9.09,0-16.46,7.37-16.46,16.46,0,9.09,7.37,16.46,16.46,16.46,9.09,0,16.46-7.37,16.46-16.46,0-9.09-7.37-16.46-16.46-16.46Z" fill="#fec415"/><path d="M592.21,377.44c0,9.09,7.37,16.46,16.46,16.46,9.09,0,16.46-7.37,16.46-16.46,0-9.09-7.37-16.46-16.46-16.46-9.09,0-16.46,7.37-16.46,16.46Z" fill="#fec415"/><path d="M860.65,118.76c0,9.09,7.37,16.46,16.46,16.46,9.09,0,16.46-7.37,16.46-16.46,0-9.09-7.37-16.46-16.46-16.46-9.09,0-16.46,7.37-16.46,16.46Z" fill="#fec415"/><path d="M966.51,105.12c9.09,0,16.46-7.37,16.46-16.46,0-9.09-7.37-16.46-16.46-16.46-9.09,0-16.46,7.37-16.46,16.46,0,9.09,7.37,16.46,16.46,16.46Z" fill="#fec415"/><path d="M1039.53,118.76c0,9.09,7.37,16.46,16.46,16.46,9.09,0,16.46-7.37,16.46-16.46,0-9.09-7.37-16.46-16.46-16.46-9.09,0-16.46,7.37-16.46,16.46Z" fill="#fec415"/><path d="M1218.41,118.76c0,9.09,7.37,16.46,16.46,16.46,9.09,0,16.46-7.37,16.46-16.46,0-9.09-7.37-16.46-16.46-16.46-9.09,0-16.46,7.37-16.46,16.46Z" fill="#fec415"/><path d="M1324.28,105.12c9.09,0,16.46-7.37,16.46-16.46s-7.37-16.46-16.46-16.46c-9.09,0-16.46,7.37-16.46,16.46,0,9.09,7.37,16.46,16.46,16.46Z" fill="#fec415"/><path d="M877.11,391.08c-9.09,0-16.46,7.37-16.46,16.46s7.37,16.46,16.46,16.46c9.09,0,16.46-7.37,16.46-16.46,0-9.09-7.37-16.46-16.46-16.46Z" fill="#fec415"/><path d="M950.05,377.44c0,9.09,7.37,16.46,16.46,16.46,9.09,0,16.46-7.37,16.46-16.46,0-9.09-7.37-16.46-16.46-16.46-9.09,0-16.46,7.37-16.46,16.46Z" fill="#fec415"/><path d="M1055.99,391.08c-9.09,0-16.46,7.37-16.46,16.46s7.37,16.46,16.46,16.46c9.09,0,16.46-7.37,16.46-16.46,0-9.09-7.37-16.46-16.46-16.46Z" fill="#fec415"/><path d="M1234.88,391.08c-9.09,0-16.46,7.37-16.46,16.46s7.37,16.46,16.46,16.46c9.09,0,16.46-7.37,16.46-16.46,0-9.09-7.37-16.46-16.46-16.46Z" fill="#fec415"/><path d="M1307.82,377.44c0,9.09,7.37,16.46,16.46,16.46,9.09,0,16.46-7.37,16.46-16.46s-7.37-16.46-16.46-16.46c-9.09,0-16.46,7.37-16.46,16.46Z" fill="#fec415"/><path d="M1438.01,360.98h-48.5c-7.53,0-14.75,2.99-20.07,8.31l-26.13,26.13c-10.36,9.93-26.56,10.18-37.22.76l-26.89-26.89c-5.32-5.32-12.54-8.31-20.07-8.31h-48.5c-7.53,0-14.75,2.99-20.07,8.31l-26.13,26.13c-10.36,9.93-26.56,10.18-37.22.76l-26.89-26.89c-5.32-5.32-12.54-8.31-20.07-8.31h-48.5c-7.53,0-14.75,2.99-20.07,8.31l-26.13,26.13c-10.36,9.93-26.56,10.18-37.22.76l-26.89-26.89c-5.32-5.32-12.54-8.31-20.07-8.31h-48.5c-7.53,0-14.75,2.99-20.07,8.31l-26.13,26.13c-10.48,10.05-26.94,10.21-37.6.46l-26.59-26.59c-5.32-5.32-12.54-8.31-20.07-8.31h-48.5c-7.53,0-14.75,2.99-20.07,8.31l-26.13,26.13c-10.36,9.93-26.56,10.18-37.22.76l-26.89-26.89c-5.32-5.32-12.54-8.31-20.07-8.31h-48.5c-7.53,0-14.75,2.99-20.07,8.31l-26.13,26.13c-10.36,9.93-26.56,10.18-37.22.76l-26.89-26.89c-5.32-5.32-12.54-8.31-20.07-8.31h-48.5c-7.53,0-14.75,2.99-20.07,8.31l-26.13,26.13c-10.36,9.93-26.56,10.18-37.22.76l-26.89-26.89c-5.32-5.32-12.54-8.31-20.07-8.31h-48.5c-7.53,0-14.75,2.99-20.07,8.31l-26.13,26.13c-10.78,10.33-27.88,10.22-38.5-.39l-5.03-5.03c-7.13-7.13-17.51-9.93-27.25-7.35l-20.27,5.36,27.69,27.69c5.32,5.32,12.54,8.31,20.07,8.31h48.5c7.53,0,14.75-2.99,20.07-8.31l26.13-26.13c10.36-9.93,26.56-10.18,37.22-.76l26.89,26.89c5.32,5.32,12.54,8.31,20.07,8.31h48.5c7.53,0,14.75-2.99,20.07-8.31l26.13-26.13c10.36-9.93,26.56-10.18,37.22-.76l26.89,26.89c5.32,5.32,12.54,8.31,20.07,8.31h48.5c7.53,0,14.75-2.99,20.07-8.31l26.13-26.13c10.36-9.93,26.56-10.18,37.22-.76l26.89,26.89c5.32,5.32,12.54,8.31,20.07,8.31h48.5c7.53,0,14.75-2.99,20.07-8.31l26.13-26.13c10.48-10.05,26.94-10.21,37.6-.46l26.59,26.59c5.32,5.32,12.54,8.31,20.07,8.31h48.5c7.53,0,14.75-2.99,20.07-8.31l26.13-26.13c10.36-9.93,26.56-10.18,37.22-.76l26.89,26.89c5.32,5.32,12.54,8.31,20.07,8.31h48.5c7.53,0,14.75-2.99,20.07-8.31l26.13-26.13c10.36-9.93,26.56-10.18,37.22-.76l26.89,26.89c5.32,5.32,12.54,8.31,20.07,8.31h48.5c7.53,0,14.75-2.99,20.07-8.31l26.13-26.13c10.36-9.93,26.56-10.18,37.22-.76l26.89,26.89c5.32,5.32,12.54,8.31,20.07,8.31h48.5c7.53,0,14.75-2.99,20.07-8.31l26.13-26.13c10.78-10.33,27.88-10.22,38.5.39l5.03,5.03c7.13,7.13,17.51,9.93,27.25,7.35l20.27-5.36-27.69-27.69c-5.32-5.32-12.54-8.31-20.07-8.31Z" fill="#fec415"/><path d="M72.02,177.31c9.09,0,16.46-7.37,16.46-16.46,0-9.09-7.37-16.46-16.46-16.46-9.09,0-16.46,7.37-16.46,16.46,0,9.09,7.37,16.46,16.46,16.46Z" fill="#43c4d9"/><path d="M250.9,177.31c9.09,0,16.46-7.37,16.46-16.46,0-9.09-7.37-16.46-16.46-16.46-9.09,0-16.46,7.37-16.46,16.46,0,9.09,7.37,16.46,16.46,16.46Z" fill="#43c4d9"/><path d="M323.92,190.96c0,9.09,7.37,16.46,16.46,16.46,9.09,0,16.46-7.37,16.46-16.46,0-9.09-7.37-16.46-16.46-16.46-9.09,0-16.46,7.37-16.46,16.46Z" fill="#43c4d9"/><path d="M429.78,177.31c9.09,0,16.46-7.37,16.46-16.46,0-9.09-7.37-16.46-16.46-16.46-9.09,0-16.46,7.37-16.46,16.46,0,9.09,7.37,16.46,16.46,16.46Z" fill="#43c4d9"/><path d="M608.67,177.31c9.09,0,16.46-7.37,16.46-16.46,0-9.09-7.37-16.46-16.46-16.46-9.09,0-16.46,7.37-16.46,16.46,0,9.09,7.37,16.46,16.46,16.46Z" fill="#43c4d9"/><path d="M681.69,190.96c0,9.09,7.37,16.46,16.46,16.46,9.09,0,16.46-7.37,16.46-16.46,0-9.09-7.37-16.46-16.46-16.46-9.09,0-16.46,7.37-16.46,16.46Z" fill="#43c4d9"/><path d="M47.77,207.42h48.5c7.53,0,14.75-2.99,20.07-8.31l26.13-26.13c10.36-9.93,26.56-10.18,37.22-.76l26.89,26.89c5.32,5.32,12.54,8.31,20.07,8.31h48.5c7.53,0,14.75-2.99,20.07-8.31l26.13-26.13c10.36-9.93,26.56-10.18,37.22-.76l26.89,26.89c5.32,5.32,12.54,8.31,20.07,8.31h48.5c7.53,0,14.75-2.99,20.07-8.31l26.13-26.13c10.36-9.93,26.56-10.18,37.22-.76l26.89,26.89c5.32,5.32,12.54,8.31,20.07,8.31h48.5c7.53,0,14.75-2.99,20.07-8.31l26.13-26.13c10.48-10.05,26.94-10.21,37.6-.46l26.59,26.59c5.32,5.32,12.54,8.31,20.07,8.31h48.5c7.53,0,14.75-2.99,20.07-8.31l26.13-26.13c10.36-9.93,26.56-10.18,37.22-.76l26.89,26.89c5.32,5.32,12.54,8.31,20.07,8.31h48.5c7.53,0,14.75-2.99,20.07-8.31l26.13-26.13c10.36-9.93,26.56-10.18,37.22-.76l26.89,26.89c5.32,5.32,12.54,8.31,20.07,8.31h48.5c7.53,0,14.75-2.99,20.07-8.31l26.13-26.13c10.36-9.93,26.56-10.18,37.22-.76l26.89,26.89c5.32,5.32,12.54,8.31,20.07,8.31h48.5c7.53,0,14.75-2.99,20.07-8.31l26.13-26.13c10.78-10.33,27.88-10.22,38.5.39l5.03,5.03c7.13,7.13,17.51,9.93,27.25,7.35l20.27-5.36-27.69-27.69c-5.32-5.32-12.54-8.31-20.07-8.31h-48.5c-7.53,0-14.75,2.99-20.07,8.31l-26.13,26.13c-10.36,9.93-26.56,10.18-37.22.76l-26.89-26.89c-5.32-5.32-12.54-8.31-20.07-8.31h-48.5c-7.53,0-14.75,2.99-20.07,8.31l-26.13,26.13c-10.36,9.93-26.56,10.18-37.22.76l-26.89-26.89c-5.32-5.32-12.54-8.31-20.07-8.31h-48.5c-7.53,0-14.75,2.99-20.07,8.31l-26.13,26.13c-10.36,9.93-26.56,10.18-37.22.76l-26.89-26.89c-5.32-5.32-12.54-8.31-20.07-8.31h-48.5c-7.53,0-14.75,2.99-20.07,8.31l-26.13,26.13c-10.48,10.05-26.94,10.21-37.6.46l-26.59-26.59c-5.32-5.32-12.54-8.31-20.07-8.31h-48.5c-7.53,0-14.75,2.99-20.07,8.31l-26.13,26.13c-10.36,9.93-26.56,10.18-37.22.76l-26.89-26.89c-5.32-5.32-12.54-8.31-20.07-8.31h-48.5c-7.53,0-14.75,2.99-20.07,8.31l-26.13,26.13c-10.36,9.93-26.56,10.18-37.22.76l-26.89-26.89c-5.32-5.32-12.54-8.31-20.07-8.31h-48.5c-7.53,0-14.75,2.99-20.07,8.31l-26.13,26.13c-10.36,9.93-26.56,10.18-37.22.76l-26.89-26.89c-5.32-5.32-12.54-8.31-20.07-8.31h-48.5c-7.53,0-14.75,2.99-20.07,8.31l-26.13,26.13c-10.78,10.33-27.88,10.22-38.5-.39l-5.03-5.03c-7.13-7.13-17.51-9.93-27.25-7.35l-20.27,5.36,27.69,27.69c5.32,5.32,12.54,8.31,20.07,8.31Z" fill="#43c4d9"/><path d="M55.56,449.63c0,9.09,7.37,16.46,16.46,16.46,9.09,0,16.46-7.37,16.46-16.46,0-9.09-7.37-16.46-16.46-16.46-9.09,0-16.46,7.37-16.46,16.46Z" fill="#43c4d9"/><path d="M234.44,449.63c0,9.09,7.37,16.46,16.46,16.46,9.09,0,16.46-7.37,16.46-16.46,0-9.09-7.37-16.46-16.46-16.46-9.09,0-16.46,7.37-16.46,16.46Z" fill="#43c4d9"/><path d="M340.38,463.28c-9.09,0-16.46,7.37-16.46,16.46,0,9.09,7.37,16.46,16.46,16.46,9.09,0,16.46-7.37,16.46-16.46,0-9.09-7.37-16.46-16.46-16.46Z" fill="#43c4d9"/><path d="M413.32,449.63c0,9.09,7.37,16.46,16.46,16.46,9.09,0,16.46-7.37,16.46-16.46,0-9.09-7.37-16.46-16.46-16.46-9.09,0-16.46,7.37-16.46,16.46Z" fill="#43c4d9"/><path d="M592.21,449.63c0,9.09,7.37,16.46,16.46,16.46,9.09,0,16.46-7.37,16.46-16.46,0-9.09-7.37-16.46-16.46-16.46-9.09,0-16.46,7.37-16.46,16.46Z" fill="#43c4d9"/><path d="M698.15,463.28c-9.09,0-16.46,7.37-16.46,16.46,0,9.09,7.37,16.46,16.46,16.46,9.09,0,16.46-7.37,16.46-16.46,0-9.09-7.37-16.46-16.46-16.46Z" fill="#43c4d9"/><path d="M787.63,177.31c9.09,0,16.46-7.37,16.46-16.46,0-9.09-7.37-16.46-16.46-16.46-9.09,0-16.46,7.37-16.46,16.46,0,9.09,7.37,16.46,16.46,16.46Z" fill="#43c4d9"/><path d="M966.51,177.31c9.09,0,16.46-7.37,16.46-16.46,0-9.09-7.37-16.46-16.46-16.46-9.09,0-16.46,7.37-16.46,16.46,0,9.09,7.37,16.46,16.46,16.46Z" fill="#43c4d9"/><path d="M1039.53,190.96c0,9.09,7.37,16.46,16.46,16.46,9.09,0,16.46-7.37,16.46-16.46,0-9.09-7.37-16.46-16.46-16.46-9.09,0-16.46,7.37-16.46,16.46Z" fill="#43c4d9"/><path d="M1145.39,177.31c9.09,0,16.46-7.37,16.46-16.46,0-9.09-7.37-16.46-16.46-16.46-9.09,0-16.46,7.37-16.46,16.46,0,9.09,7.37,16.46,16.46,16.46Z" fill="#43c4d9"/><path d="M1324.28,177.31c9.09,0,16.46-7.37,16.46-16.46s-7.37-16.46-16.46-16.46c-9.09,0-16.46,7.37-16.46,16.46,0,9.09,7.37,16.46,16.46,16.46Z" fill="#43c4d9"/><path d="M1397.3,190.96c0,9.09,7.37,16.46,16.46,16.46,9.09,0,16.46-7.37,16.46-16.46,0-9.09-7.37-16.46-16.46-16.46-9.09,0-16.46,7.37-16.46,16.46Z" fill="#43c4d9"/><path d="M771.17,449.63c0,9.09,7.37,16.46,16.46,16.46,9.09,0,16.46-7.37,16.46-16.46,0-9.09-7.37-16.46-16.46-16.46-9.09,0-16.46,7.37-16.46,16.46Z" fill="#43c4d9"/><path d="M950.05,449.63c0,9.09,7.37,16.46,16.46,16.46,9.09,0,16.46-7.37,16.46-16.46,0-9.09-7.37-16.46-16.46-16.46-9.09,0-16.46,7.37-16.46,16.46Z" fill="#43c4d9"/><path d="M1055.99,463.28c-9.09,0-16.46,7.37-16.46,16.46s7.37,16.46,16.46,16.46c9.09,0,16.46-7.37,16.46-16.46,0-9.09-7.37-16.46-16.46-16.46Z" fill="#43c4d9"/><path d="M1128.93,449.63c0,9.09,7.37,16.46,16.46,16.46,9.09,0,16.46-7.37,16.46-16.46,0-9.09-7.37-16.46-16.46-16.46-9.09,0-16.46,7.37-16.46,16.46Z" fill="#43c4d9"/><path d="M1307.82,449.63c0,9.09,7.37,16.46,16.46,16.46,9.09,0,16.46-7.37,16.46-16.46s-7.37-16.46-16.46-16.46c-9.09,0-16.46,7.37-16.46,16.46Z" fill="#43c4d9"/><path d="M1413.76,463.28c-9.09,0-16.46,7.37-16.46,16.46,0,9.09,7.37,16.46,16.46,16.46,9.09,0,16.46-7.37,16.46-16.46,0-9.09-7.37-16.46-16.46-16.46Z" fill="#43c4d9"/><path d="M1438.01,433.17h-48.5c-7.53,0-14.75,2.99-20.07,8.31l-26.13,26.13c-10.36,9.93-26.56,10.18-37.22.76l-26.89-26.89c-5.32-5.32-12.54-8.31-20.07-8.31h-48.5c-7.53,0-14.75,2.99-20.07,8.31l-26.13,26.13c-10.36,9.93-26.56,10.18-37.22.76l-26.89-26.89c-5.32-5.32-12.54-8.31-20.07-8.31h-48.5c-7.53,0-14.75,2.99-20.07,8.31l-26.13,26.13c-10.36,9.93-26.56,10.18-37.22.76l-26.89-26.89c-5.32-5.32-12.54-8.31-20.07-8.31h-48.5c-7.53,0-14.75,2.99-20.07,8.31l-26.13,26.13c-10.48,10.05-26.94,10.21-37.6.46l-26.59-26.59c-5.32-5.32-12.54-8.31-20.07-8.31h-48.5c-7.53,0-14.75,2.99-20.07,8.31l-26.13,26.13c-10.36,9.93-26.56,10.18-37.22.76l-26.89-26.89c-5.32-5.32-12.54-8.31-20.07-8.31h-48.5c-7.53,0-14.75,2.99-20.07,8.31l-26.13,26.13c-10.36,9.93-26.56,10.18-37.22.76l-26.89-26.89c-5.32-5.32-12.54-8.31-20.07-8.31h-48.5c-7.53,0-14.75,2.99-20.07,8.31l-26.13,26.13c-10.36,9.93-26.56,10.18-37.22.76l-26.89-26.89c-5.32-5.32-12.54-8.31-20.07-8.31h-48.5c-7.53,0-14.75,2.99-20.07,8.31l-26.13,26.13c-10.78,10.33-27.88,10.22-38.5-.39l-5.03-5.03c-7.13-7.13-17.51-9.93-27.25-7.35l-20.27,5.36,27.69,27.69c5.32,5.32,12.54,8.31,20.07,8.31h48.5c7.53,0,14.75-2.99,20.07-8.31l26.13-26.13c10.36-9.93,26.56-10.18,37.22-.76l26.89,26.89c5.32,5.32,12.54,8.31,20.07,8.31h48.5c7.53,0,14.75-2.99,20.07-8.31l26.13-26.13c10.36-9.93,26.56-10.18,37.22-.76l26.89,26.89c5.32,5.32,12.54,8.31,20.07,8.31h48.5c7.53,0,14.75-2.99,20.07-8.31l26.13-26.13c10.36-9.93,26.56-10.18,37.22-.76l26.89,26.89c5.32,5.32,12.54,8.31,20.07,8.31h48.5c7.53,0,14.75-2.99,20.07-8.31l26.13-26.13c10.48-10.05,26.94-10.21,37.6-.46l26.59,26.59c5.32,5.32,12.54,8.31,20.07,8.31h48.5c7.53,0,14.75-2.99,20.07-8.31l26.13-26.13c10.36-9.93,26.56-10.18,37.22-.76l26.89,26.89c5.32,5.32,12.54,8.31,20.07,8.31h48.5c7.53,0,14.75-2.99,20.07-8.31l26.13-26.13c10.36-9.93,26.56-10.18,37.22-.76l26.89,26.89c5.32,5.32,12.54,8.31,20.07,8.31h48.5c7.53,0,14.75-2.99,20.07-8.31l26.13-26.13c10.36-9.93,26.56-10.18,37.22-.76l26.89,26.89c5.32,5.32,12.54,8.31,20.07,8.31h48.5c7.53,0,14.75-2.99,20.07-8.31l26.13-26.13c10.78-10.33,27.88-10.22,38.5.39l5.03,5.03c7.13,7.13,17.51,9.93,27.25,7.35l20.27-5.36-27.69-27.69c-5.32-5.32-12.54-8.31-20.07-8.31Z" fill="#43c4d9"/><path d="M72.02,249.51c9.09,0,16.46-7.37,16.46-16.46,0-9.09-7.37-16.46-16.46-16.46-9.09,0-16.46,7.37-16.46,16.46,0,9.09,7.37,16.46,16.46,16.46Z" fill="#8670b2"/><path d="M145.04,263.15c0,9.09,7.37,16.46,16.46,16.46,9.09,0,16.46-7.37,16.46-16.46,0-9.09-7.37-16.46-16.46-16.46-9.09,0-16.46,7.37-16.46,16.46Z" fill="#8670b2"/><path d="M250.9,249.51c9.09,0,16.46-7.37,16.46-16.46,0-9.09-7.37-16.46-16.46-16.46-9.09,0-16.46,7.37-16.46,16.46,0,9.09,7.37,16.46,16.46,16.46Z" fill="#8670b2"/><path d="M429.78,249.51c9.09,0,16.46-7.37,16.46-16.46,0-9.09-7.37-16.46-16.46-16.46-9.09,0-16.46,7.37-16.46,16.46,0,9.09,7.37,16.46,16.46,16.46Z" fill="#8670b2"/><path d="M502.8,263.15c0,9.09,7.37,16.46,16.46,16.46,9.09,0,16.46-7.37,16.46-16.46,0-9.09-7.37-16.46-16.46-16.46-9.09,0-16.46,7.37-16.46,16.46Z" fill="#8670b2"/><path d="M608.67,249.51c9.09,0,16.46-7.37,16.46-16.46,0-9.09-7.37-16.46-16.46-16.46-9.09,0-16.46,7.37-16.46,16.46,0,9.09,7.37,16.46,16.46,16.46Z" fill="#8670b2"/><path d="M681.69,263.15c0,9.09,7.37,16.46,16.46,16.46,9.09,0,16.46-7.37,16.46-16.46,0-9.09-7.37-16.46-16.46-16.46-9.09,0-16.46,7.37-16.46,16.46Z" fill="#8670b2"/><path d="M47.77,279.61h48.5c7.53,0,14.75-2.99,20.07-8.31l26.13-26.13c10.36-9.93,26.56-10.18,37.22-.76l26.89,26.89c5.32,5.32,12.54,8.31,20.07,8.31h48.5c7.53,0,14.75-2.99,20.07-8.31l26.13-26.13c10.36-9.93,26.56-10.18,37.22-.76l26.89,26.89c5.32,5.32,12.54,8.31,20.07,8.31h48.5c7.53,0,14.75-2.99,20.07-8.31l26.13-26.13c10.36-9.93,26.56-10.18,37.22-.76l26.89,26.89c5.32,5.32,12.54,8.31,20.07,8.31h48.5c7.53,0,14.75-2.99,20.07-8.31l26.13-26.13c10.48-10.05,26.94-10.21,37.6-.46l26.59,26.59c5.32,5.32,12.54,8.31,20.07,8.31h48.5c7.53,0,14.75-2.99,20.07-8.31l26.13-26.13c10.36-9.93,26.56-10.18,37.22-.76l26.89,26.89c5.32,5.32,12.54,8.31,20.07,8.31h48.5c7.53,0,14.75-2.99,20.07-8.31l26.13-26.13c10.36-9.93,26.56-10.18,37.22-.76l26.89,26.89c5.32,5.32,12.54,8.31,20.07,8.31h48.5c7.53,0,14.75-2.99,20.07-8.31l26.13-26.13c10.36-9.93,26.56-10.18,37.22-.76l26.89,26.89c5.32,5.32,12.54,8.31,20.07,8.31h48.5c7.53,0,14.75-2.99,20.07-8.31l26.13-26.13c10.78-10.33,27.88-10.22,38.5.39l5.03,5.03c7.13,7.13,17.51,9.93,27.25,7.35l20.27-5.36-27.69-27.69c-5.32-5.32-12.54-8.31-20.07-8.31h-48.5c-7.53,0-14.75,2.99-20.07,8.31l-26.13,26.13c-10.36,9.93-26.56,10.18-37.22.76l-26.89-26.89c-5.32-5.32-12.54-8.31-20.07-8.31h-48.5c-7.53,0-14.75,2.99-20.07,8.31l-26.13,26.13c-10.36,9.93-26.56,10.18-37.22.76l-26.89-26.89c-5.32-5.32-12.54-8.31-20.07-8.31h-48.5c-7.53,0-14.75,2.99-20.07,8.31l-26.13,26.13c-10.36,9.93-26.56,10.18-37.22.76l-26.89-26.89c-5.32-5.32-12.54-8.31-20.07-8.31h-48.5c-7.53,0-14.75,2.99-20.07,8.31l-26.13,26.13c-10.48,10.05-26.94,10.21-37.6.46l-26.59-26.59c-5.32-5.32-12.54-8.31-20.07-8.31h-48.5c-7.53,0-14.75,2.99-20.07,8.31l-26.13,26.13c-10.36,9.93-26.56,10.18-37.22.76l-26.89-26.89c-5.32-5.32-12.54-8.31-20.07-8.31h-48.5c-7.53,0-14.75,2.99-20.07,8.31l-26.13,26.13c-10.36,9.93-26.56,10.18-37.22.76l-26.89-26.89c-5.32-5.32-12.54-8.31-20.07-8.31h-48.5c-7.53,0-14.75,2.99-20.07,8.31l-26.13,26.13c-10.36,9.93-26.56,10.18-37.22.76l-26.89-26.89c-5.32-5.32-12.54-8.31-20.07-8.31h-48.5c-7.53,0-14.75,2.99-20.07,8.31l-26.13,26.13c-10.78,10.33-27.88,10.22-38.5-.39l-5.03-5.03c-7.13-7.13-17.51-9.93-27.25-7.35l-20.27,5.36,27.69,27.69c5.32,5.32,12.54,8.31,20.07,8.31Z" fill="#8670b2"/><path d="M55.56,521.83c0,9.09,7.37,16.46,16.46,16.46,9.09,0,16.46-7.37,16.46-16.46,0-9.09-7.37-16.46-16.46-16.46-9.09,0-16.46,7.37-16.46,16.46Z" fill="#8670b2"/><path d="M161.5,535.47c-9.09,0-16.46,7.37-16.46,16.46,0,9.09,7.37,16.46,16.46,16.46,9.09,0,16.46-7.37,16.46-16.46,0-9.09-7.37-16.46-16.46-16.46Z" fill="#8670b2"/><path d="M234.44,521.83c0,9.09,7.37,16.46,16.46,16.46,9.09,0,16.46-7.37,16.46-16.46,0-9.09-7.37-16.46-16.46-16.46-9.09,0-16.46,7.37-16.46,16.46Z" fill="#8670b2"/><path d="M413.32,521.83c0,9.09,7.37,16.46,16.46,16.46,9.09,0,16.46-7.37,16.46-16.46,0-9.09-7.37-16.46-16.46-16.46-9.09,0-16.46,7.37-16.46,16.46Z" fill="#8670b2"/><path d="M519.26,535.47c-9.09,0-16.46,7.37-16.46,16.46,0,9.09,7.37,16.46,16.46,16.46,9.09,0,16.46-7.37,16.46-16.46,0-9.09-7.37-16.46-16.46-16.46Z" fill="#8670b2"/><path d="M592.21,521.83c0,9.09,7.37,16.46,16.46,16.46,9.09,0,16.46-7.37,16.46-16.46,0-9.09-7.37-16.46-16.46-16.46-9.09,0-16.46,7.37-16.46,16.46Z" fill="#8670b2"/><path d="M698.15,535.47c-9.09,0-16.46,7.37-16.46,16.46,0,9.09,7.37,16.46,16.46,16.46,9.09,0,16.46-7.37,16.46-16.46,0-9.09-7.37-16.46-16.46-16.46Z" fill="#8670b2"/><path d="M787.63,249.51c9.09,0,16.46-7.37,16.46-16.46,0-9.09-7.37-16.46-16.46-16.46-9.09,0-16.46,7.37-16.46,16.46,0,9.09,7.37,16.46,16.46,16.46Z" fill="#8670b2"/><path d="M860.65,263.15c0,9.09,7.37,16.46,16.46,16.46,9.09,0,16.46-7.37,16.46-16.46,0-9.09-7.37-16.46-16.46-16.46-9.09,0-16.46,7.37-16.46,16.46Z" fill="#8670b2"/><path d="M966.51,249.51c9.09,0,16.46-7.37,16.46-16.46,0-9.09-7.37-16.46-16.46-16.46-9.09,0-16.46,7.37-16.46,16.46,0,9.09,7.37,16.46,16.46,16.46Z" fill="#8670b2"/><path d="M1145.39,249.51c9.09,0,16.46-7.37,16.46-16.46,0-9.09-7.37-16.46-16.46-16.46-9.09,0-16.46,7.37-16.46,16.46,0,9.09,7.37,16.46,16.46,16.46Z" fill="#8670b2"/><path d="M1218.41,263.15c0,9.09,7.37,16.46,16.46,16.46,9.09,0,16.46-7.37,16.46-16.46,0-9.09-7.37-16.46-16.46-16.46-9.09,0-16.46,7.37-16.46,16.46Z" fill="#8670b2"/><path d="M1324.28,249.51c9.09,0,16.46-7.37,16.46-16.46s-7.37-16.46-16.46-16.46c-9.09,0-16.46,7.37-16.46,16.46,0,9.09,7.37,16.46,16.46,16.46Z" fill="#8670b2"/><path d="M1397.3,263.15c0,9.09,7.37,16.46,16.46,16.46,9.09,0,16.46-7.37,16.46-16.46,0-9.09-7.37-16.46-16.46-16.46-9.09,0-16.46,7.37-16.46,16.46Z" fill="#8670b2"/><path d="M771.17,521.83c0,9.09,7.37,16.46,16.46,16.46,9.09,0,16.46-7.37,16.46-16.46,0-9.09-7.37-16.46-16.46-16.46-9.09,0-16.46,7.37-16.46,16.46Z" fill="#8670b2"/><path d="M877.11,535.47c-9.09,0-16.46,7.37-16.46,16.46s7.37,16.46,16.46,16.46c9.09,0,16.46-7.37,16.46-16.46,0-9.09-7.37-16.46-16.46-16.46Z" fill="#8670b2"/><path d="M950.05,521.83c0,9.09,7.37,16.46,16.46,16.46,9.09,0,16.46-7.37,16.46-16.46,0-9.09-7.37-16.46-16.46-16.46-9.09,0-16.46,7.37-16.46,16.46Z" fill="#8670b2"/><path d="M1128.93,521.83c0,9.09,7.37,16.46,16.46,16.46,9.09,0,16.46-7.37,16.46-16.46,0-9.09-7.37-16.46-16.46-16.46-9.09,0-16.46,7.37-16.46,16.46Z" fill="#8670b2"/><path d="M1234.88,535.47c-9.09,0-16.46,7.37-16.46,16.46s7.37,16.46,16.46,16.46c9.09,0,16.46-7.37,16.46-16.46,0-9.09-7.37-16.46-16.46-16.46Z" fill="#8670b2"/><path d="M1307.82,521.83c0,9.09,7.37,16.46,16.46,16.46,9.09,0,16.46-7.37,16.46-16.46s-7.37-16.46-16.46-16.46c-9.09,0-16.46,7.37-16.46,16.46Z" fill="#8670b2"/><path d="M1413.76,535.47c-9.09,0-16.46,7.37-16.46,16.46,0,9.09,7.37,16.46,16.46,16.46,9.09,0,16.46-7.37,16.46-16.46,0-9.09-7.37-16.46-16.46-16.46Z" fill="#8670b2"/><path d="M1438.01,505.37h-48.5c-7.53,0-14.75,2.99-20.07,8.31l-26.13,26.13c-10.36,9.93-26.56,10.18-37.22.76l-26.89-26.89c-5.32-5.32-12.54-8.31-20.07-8.31h-48.5c-7.53,0-14.75,2.99-20.07,8.31l-26.13,26.13c-10.36,9.93-26.56,10.18-37.22.76l-26.89-26.89c-5.32-5.32-12.54-8.31-20.07-8.31h-48.5c-7.53,0-14.75,2.99-20.07,8.31l-26.13,26.13c-10.36,9.93-26.56,10.18-37.22.76l-26.89-26.89c-5.32-5.32-12.54-8.31-20.07-8.31h-48.5c-7.53,0-14.75,2.99-20.07,8.31l-26.13,26.13c-10.48,10.05-26.94,10.21-37.6.46l-26.59-26.59c-5.32-5.32-12.54-8.31-20.07-8.31h-48.5c-7.53,0-14.75,2.99-20.07,8.31l-26.13,26.13c-10.36,9.93-26.56,10.18-37.22.76l-26.89-26.89c-5.32-5.32-12.54-8.31-20.07-8.31h-48.5c-7.53,0-14.75,2.99-20.07,8.31l-26.13,26.13c-10.36,9.93-26.56,10.18-37.22.76l-26.89-26.89c-5.32-5.32-12.54-8.31-20.07-8.31h-48.5c-7.53,0-14.75,2.99-20.07,8.31l-26.13,26.13c-10.36,9.93-26.56,10.18-37.22.76l-26.89-26.89c-5.32-5.32-12.54-8.31-20.07-8.31h-48.5c-7.53,0-14.75,2.99-20.07,8.31l-26.13,26.13c-10.78,10.33-27.88,10.22-38.5-.39l-5.03-5.03c-7.13-7.13-17.51-9.93-27.25-7.35l-20.27,5.36,27.69,27.69c5.32,5.32,12.54,8.31,20.07,8.31h48.5c7.53,0,14.75-2.99,20.07-8.31l26.13-26.13c10.36-9.93,26.56-10.18,37.22-.76l26.89,26.89c5.32,5.32,12.54,8.31,20.07,8.31h48.5c7.53,0,14.75-2.99,20.07-8.31l26.13-26.13c10.36-9.93,26.56-10.18,37.22-.76l26.89,26.89c5.32,5.32,12.54,8.31,20.07,8.31h48.5c7.53,0,14.75-2.99,20.07-8.31l26.13-26.13c10.36-9.93,26.56-10.18,37.22-.76l26.89,26.89c5.32,5.32,12.54,8.31,20.07,8.31h48.5c7.53,0,14.75-2.99,20.07-8.31l26.13-26.13c10.48-10.05,26.94-10.21,37.6-.46l26.59,26.59c5.32,5.32,12.54,8.31,20.07,8.31h48.5c7.53,0,14.75-2.99,20.07-8.31l26.13-26.13c10.36-9.93,26.56-10.18,37.22-.76l26.89,26.89c5.32,5.32,12.54,8.31,20.07,8.31h48.5c7.53,0,14.75-2.99,20.07-8.31l26.13-26.13c10.36-9.93,26.56-10.18,37.22-.76l26.89,26.89c5.32,5.32,12.54,8.31,20.07,8.31h48.5c7.53,0,14.75-2.99,20.07-8.31l26.13-26.13c10.36-9.93,26.56-10.18,37.22-.76l26.89,26.89c5.32,5.32,12.54,8.31,20.07,8.31h48.5c7.53,0,14.75-2.99,20.07-8.31l26.13-26.13c10.78-10.33,27.88-10.22,38.5.39l5.03,5.03c7.13,7.13,17.51,9.93,27.25,7.35l20.27-5.36-27.69-27.69c-5.32-5.32-12.54-8.31-20.07-8.31Z" fill="#8670b2"/></svg>