<?xml version="1.0" encoding="UTF-8"?><svg id="Layer_1" xmlns="http://www.w3.org/2000/svg" viewBox="0 0 619.3 293.01"><defs><style>.cls-1{fill:#fff;}</style></defs><rect class="cls-1" x="128.37" y="146.98" width="56.69" height="21.55" rx="2.4" ry="2.4" transform="translate(-65.65 157.02) rotate(-45)"/><rect class="cls-1" x="105.87" y="124.48" width="56.69" height="21.56" rx="2.4" ry="2.4" transform="translate(-56.33 134.52) rotate(-45)"/><path class="cls-1" d="M101.4,102.45c5.43-5.43,5.43-14.24,0-19.67-5.43-5.43-14.24-5.43-19.67,0-5.43,5.43-5.43,14.24,0,19.67,5.43,5.43,14.24,5.43,19.67,0Z"/><path class="cls-1" d="M125.33,65.55c-7.24,4.21-11.69,11.96-11.69,20.34v5.91c0,12.64-10.24,22.88-22.88,22.88h-5.91c-8.38,0-16.12,4.45-20.34,11.69l-8.77,15.06h32.55c6.26,0,12.26-2.49,16.68-6.91l28.5-28.5c4.42-4.42,6.91-10.42,6.91-16.68v-32.55s-15.06,8.77-15.06,8.77Z"/><path class="cls-1" d="M209.26,102.06c5.34-5.34,5.34-14.01,0-19.35-5.34-5.34-14.01-5.34-19.35,0-5.34,5.34-5.34,14.01,0,19.35,5.34,5.34,14.01,5.34,19.35,0Z"/><path class="cls-1" d="M226.94,125.85c-4.21-7.24-11.96-11.69-20.34-11.69h-5.91c-12.64,0-22.88-10.24-22.88-22.88v-5.91c0-8.38-4.45-16.12-11.69-20.34l-15.06-8.77v32.55c0,6.26,2.49,12.26,6.91,16.68l28.5,28.5c4.42,4.42,10.42,6.91,16.68,6.91h32.55l-8.77-15.06Z"/><path class="cls-1" d="M189.53,190.57c-5.43,5.43-5.43,14.23,0,19.65,5.43,5.43,14.23,5.43,19.65,0,5.43-5.43,5.43-14.23,0-19.65-5.43-5.43-14.23-5.43-19.65,0Z"/><path class="cls-1" d="M202.62,151.57c-6.26,0-12.26,2.49-16.68,6.91l-28.5,28.5c-4.42,4.42-6.91,10.42-6.91,16.68v32.55s15.06-8.77,15.06-8.77c7.24-4.21,11.69-11.96,11.69-20.34v-5.91c0-12.64,10.24-22.88,22.88-22.88h5.91c8.38,0,16.12-4.45,20.34-11.69l8.77-15.06h-32.55Z"/><path class="cls-1" d="M81.2,191.08c-5.43,5.43-5.43,14.24,0,19.68,5.43,5.43,14.24,5.43,19.68,0,5.43-5.43,5.43-14.24,0-19.68-5.43-5.43-14.24-5.43-19.68,0Z"/><path class="cls-1" d="M132.96,187.51l-28.5-28.5c-4.42-4.42-10.42-6.91-16.68-6.91h-32.55s8.77,15.06,8.77,15.06c4.21,7.24,11.96,11.69,20.34,11.69h5.91c12.64,0,22.88,10.24,22.88,22.88v5.91c0,8.38,4.45,16.12,11.69,20.34l15.06,8.77v-32.55c0-6.26-2.49-12.26-6.91-16.68Z"/><path class="cls-1" d="M288.89,78.89h8.86v39.36h-8.86v-16.7h-14.88v16.7h-8.86v-39.36h8.86v15.05h14.88v-15.05Z"/><path class="cls-1" d="M304.26,103.54c0-2.65.41-4.97,1.22-6.96.81-1.99,1.88-3.64,3.21-4.97,1.33-1.33,2.85-2.33,4.57-3.01,1.72-.68,3.49-1.02,5.31-1.02,4.24,0,7.59,1.3,10.05,3.89,2.46,2.6,3.69,6.41,3.69,11.44,0,.49-.02,1.03-.06,1.62s-.08,1.11-.11,1.56h-19.2c.19,1.74,1,3.12,2.44,4.15,1.44,1.02,3.37,1.53,5.79,1.53,1.55,0,3.08-.14,4.57-.43,1.5-.28,2.72-.63,3.66-1.05l1.14,6.87c-.45.23-1.06.46-1.82.68-.76.23-1.6.43-2.53.59-.93.17-1.92.31-2.98.43-1.06.11-2.12.17-3.18.17-2.69,0-5.03-.4-7.01-1.19-1.99-.8-3.64-1.88-4.94-3.27-1.31-1.38-2.27-3.02-2.9-4.91-.62-1.89-.94-3.94-.94-6.13ZM324.13,100.3c-.04-.72-.16-1.42-.37-2.1-.21-.68-.53-1.29-.97-1.82-.44-.53-.98-.97-1.65-1.31-.66-.34-1.49-.51-2.47-.51s-1.76.16-2.44.48c-.68.32-1.25.75-1.7,1.28-.45.53-.8,1.15-1.05,1.84-.25.7-.43,1.41-.54,2.13h11.19Z"/><path class="cls-1" d="M348.96,87.58c2.5,0,4.58.28,6.25.85,1.67.57,3,1.38,4,2.44,1,1.06,1.71,2.35,2.13,3.86.42,1.52.62,3.2.62,5.06v17.61c-1.21.27-2.9.58-5.05.94-2.16.36-4.77.54-7.84.54-1.93,0-3.68-.17-5.25-.51-1.57-.34-2.92-.9-4.06-1.68-1.14-.77-2.01-1.79-2.61-3.04-.61-1.25-.91-2.78-.91-4.6s.35-3.22,1.05-4.43c.7-1.21,1.64-2.18,2.81-2.9,1.17-.72,2.52-1.24,4.03-1.56,1.51-.32,3.09-.48,4.71-.48,1.1,0,2.07.05,2.93.14.85.09,1.54.22,2.07.37v-.8c0-1.44-.44-2.59-1.31-3.46-.87-.87-2.39-1.3-4.54-1.3-1.44,0-2.86.1-4.26.31-1.4.21-2.61.5-3.64.88l-1.08-6.82c.49-.15,1.11-.31,1.85-.48.74-.17,1.54-.32,2.41-.45.87-.13,1.79-.25,2.75-.34.97-.09,1.94-.14,2.92-.14ZM349.64,112.34c.83,0,1.63-.02,2.39-.06.76-.04,1.36-.09,1.82-.17v-6.42c-.34-.08-.85-.15-1.53-.23-.68-.08-1.31-.11-1.87-.11-.79,0-1.54.05-2.24.14s-1.32.28-1.85.54c-.53.27-.95.62-1.25,1.08-.3.45-.45,1.02-.45,1.7,0,1.33.44,2.24,1.33,2.75.89.51,2.11.77,3.66.77Z"/><path class="cls-1" d="M380.81,118.82c-2.46-.04-4.46-.31-5.99-.8-1.53-.49-2.75-1.18-3.64-2.07-.89-.89-1.5-1.97-1.82-3.24-.32-1.27-.48-2.7-.48-4.29v-32.89l8.46-1.36v32.55c0,.76.06,1.44.17,2.05s.33,1.12.65,1.53c.32.42.79.76,1.39,1.02.61.26,1.42.44,2.44.51l-1.19,6.99Z"/><path class="cls-1" d="M385.89,80.93l8.46-1.36v8.8h10.17v7.04h-10.17v10.51c0,1.78.31,3.2.94,4.26.62,1.06,1.88,1.59,3.78,1.59.91,0,1.85-.09,2.81-.26.97-.17,1.85-.41,2.64-.71l1.19,6.59c-1.02.42-2.16.78-3.41,1.08s-2.78.45-4.6.45c-2.31,0-4.22-.31-5.74-.94-1.52-.62-2.73-1.49-3.64-2.61-.91-1.11-1.54-2.47-1.9-4.06-.36-1.59-.54-3.35-.54-5.28v-25.11Z"/><path class="cls-1" d="M410.84,118.25v-42.71l8.46-1.36v14.31c.57-.19,1.3-.37,2.19-.54.89-.17,1.75-.26,2.58-.26,2.42,0,4.44.33,6.05.99,1.61.66,2.9,1.6,3.86,2.81.97,1.21,1.65,2.65,2.04,4.32.4,1.67.6,3.52.6,5.57v16.87h-8.46v-15.85c0-2.73-.35-4.66-1.05-5.79-.7-1.14-2-1.71-3.89-1.71-.76,0-1.47.07-2.13.2s-1.26.27-1.79.43v22.72h-8.46Z"/><path class="cls-1" d="M265.15,127.17h8.86v39.36h-8.86v-39.36Z"/><path class="cls-1" d="M281.93,137.68c1.44-.42,3.29-.81,5.57-1.17,2.27-.36,4.66-.54,7.16-.54s4.65.33,6.33.99c1.68.66,3.02,1.6,4,2.81.98,1.21,1.68,2.65,2.1,4.32.42,1.67.62,3.52.62,5.57v16.87h-8.46v-15.85c0-2.73-.36-4.66-1.08-5.79-.72-1.14-2.06-1.71-4.03-1.71-.61,0-1.25.03-1.93.09-.68.06-1.29.12-1.82.2v23.06h-8.46v-28.85Z"/><path class="cls-1" d="M327.74,127.8c1.59,0,3.05.16,4.37.49,1.33.32,2.35.63,3.07.94l-1.65,6.76c-.76-.34-1.58-.6-2.47-.77-.89-.17-1.71-.26-2.47-.26-1.02,0-1.88.14-2.59.43-.7.28-1.25.67-1.65,1.16-.4.49-.68,1.08-.85,1.76-.17.68-.26,1.42-.26,2.22v1.48h10.45v7.04h-10.45v17.49h-8.46v-26.12c0-3.86,1.09-6.93,3.27-9.2,2.18-2.27,5.41-3.41,9.68-3.41Z"/><path class="cls-1" d="M366.02,151.54c0,2.35-.34,4.5-1.02,6.45-.68,1.95-1.67,3.62-2.95,5-1.29,1.38-2.83,2.45-4.63,3.21-1.8.76-3.82,1.14-6.05,1.14s-4.19-.38-5.99-1.14c-1.8-.76-3.34-1.83-4.63-3.21-1.29-1.38-2.29-3.05-3.01-5-.72-1.95-1.08-4.1-1.08-6.45s.37-4.49,1.11-6.42c.74-1.93,1.76-3.58,3.07-4.94,1.31-1.36,2.86-2.42,4.66-3.18,1.8-.76,3.76-1.13,5.88-1.13s4.14.38,5.93,1.13c1.8.76,3.34,1.82,4.63,3.18,1.29,1.36,2.29,3.01,3.01,4.94.72,1.93,1.08,4.07,1.08,6.42ZM357.39,151.54c0-2.61-.52-4.67-1.56-6.16-1.04-1.5-2.53-2.24-4.46-2.24s-3.43.75-4.49,2.24c-1.06,1.49-1.59,3.55-1.59,6.16s.53,4.69,1.59,6.22c1.06,1.53,2.56,2.3,4.49,2.3s3.42-.77,4.46-2.3c1.04-1.53,1.56-3.61,1.56-6.22Z"/><path class="cls-1" d="M389.79,144.16c-.76-.19-1.65-.39-2.67-.6-1.02-.21-2.12-.31-3.29-.31-.53,0-1.16.05-1.9.14s-1.3.2-1.68.31v22.83h-8.46v-28.29c1.51-.53,3.3-1.03,5.37-1.51,2.06-.47,4.36-.71,6.9-.71.45,0,1,.03,1.65.09.64.06,1.29.13,1.93.23.64.09,1.29.21,1.93.34.64.14,1.19.29,1.65.49l-1.42,6.99Z"/><path class="cls-1" d="M411.72,150.69c0-2.73-.35-4.66-1.05-5.79-.7-1.14-1.9-1.71-3.61-1.71-.53,0-1.08.03-1.65.09-.57.06-1.12.12-1.65.2v23.06h-8.46v-28.85c.72-.19,1.56-.39,2.53-.6.97-.21,1.99-.4,3.07-.57,1.08-.17,2.19-.3,3.32-.4s2.25-.14,3.35-.14c2.16,0,3.91.28,5.25.82,1.34.55,2.45,1.2,3.32,1.96,1.21-.87,2.6-1.55,4.18-2.05,1.57-.49,3.02-.74,4.34-.74,2.39,0,4.34.33,5.88.99,1.53.66,2.75,1.6,3.66,2.81.91,1.21,1.53,2.65,1.87,4.32.34,1.67.51,3.52.51,5.57v16.87h-8.46v-15.85c0-2.73-.35-4.66-1.05-5.79-.7-1.14-1.9-1.71-3.61-1.71-.46,0-1.09.11-1.9.34-.82.23-1.49.51-2.02.85.26.87.43,1.79.51,2.75.08.97.11,2,.11,3.09v16.3h-8.46v-15.85Z"/><path class="cls-1" d="M454.45,135.86c2.5,0,4.58.28,6.25.85,1.67.57,3,1.38,4,2.44,1,1.06,1.71,2.35,2.13,3.86.42,1.52.62,3.2.62,5.06v17.61c-1.21.27-2.9.58-5.05.94-2.16.36-4.77.54-7.84.54-1.93,0-3.68-.17-5.25-.51-1.57-.34-2.92-.9-4.06-1.68-1.14-.77-2.01-1.79-2.61-3.04-.61-1.25-.91-2.78-.91-4.6s.35-3.22,1.05-4.43c.7-1.21,1.64-2.18,2.81-2.9,1.17-.72,2.52-1.24,4.03-1.56,1.51-.32,3.09-.48,4.71-.48,1.1,0,2.07.05,2.93.14.85.09,1.54.22,2.07.37v-.8c0-1.44-.44-2.59-1.31-3.46-.87-.87-2.39-1.3-4.54-1.3-1.44,0-2.86.1-4.26.31-1.4.21-2.61.5-3.64.88l-1.08-6.82c.49-.15,1.11-.31,1.85-.48s1.54-.32,2.41-.45c.87-.13,1.79-.25,2.75-.34.97-.09,1.94-.14,2.92-.14ZM455.14,160.63c.83,0,1.63-.02,2.39-.06.76-.04,1.36-.09,1.82-.17v-6.42c-.34-.08-.85-.15-1.53-.23-.68-.08-1.31-.11-1.87-.11-.79,0-1.54.05-2.24.14s-1.32.28-1.85.54c-.53.27-.95.62-1.25,1.08-.3.45-.45,1.02-.45,1.7,0,1.33.44,2.24,1.33,2.75.89.51,2.11.77,3.66.77Z"/><path class="cls-1" d="M474.19,129.22l8.46-1.36v8.8h10.17v7.04h-10.17v10.51c0,1.78.31,3.2.94,4.26.62,1.06,1.88,1.59,3.78,1.59.91,0,1.85-.09,2.81-.26.97-.17,1.85-.41,2.64-.71l1.19,6.59c-1.02.42-2.16.78-3.41,1.08-1.25.3-2.78.45-4.6.45-2.31,0-4.22-.31-5.74-.94-1.52-.62-2.73-1.49-3.64-2.61-.91-1.11-1.54-2.47-1.9-4.06-.36-1.59-.54-3.35-.54-5.28v-25.11Z"/><path class="cls-1" d="M508.22,128.02c0,1.55-.5,2.78-1.51,3.67s-2.19,1.33-3.55,1.33-2.55-.44-3.55-1.33c-1-.89-1.51-2.11-1.51-3.67s.5-2.77,1.51-3.66c1-.89,2.19-1.34,3.55-1.34s2.55.45,3.55,1.34c1,.89,1.51,2.11,1.51,3.66ZM507.42,166.54h-8.46v-29.88h8.46v29.88Z"/><path class="cls-1" d="M513.15,151.6c0-2.16.35-4.19,1.05-6.11.7-1.91,1.71-3.58,3.04-5,1.33-1.42,2.93-2.55,4.83-3.38,1.89-.83,4.05-1.25,6.47-1.25,1.59,0,3.05.14,4.37.43s2.61.69,3.86,1.22l-1.76,6.76c-.79-.3-1.67-.57-2.61-.8s-2.01-.34-3.18-.34c-2.5,0-4.36.77-5.59,2.33-1.23,1.55-1.85,3.6-1.85,6.14,0,2.69.58,4.77,1.73,6.25,1.15,1.48,3.17,2.21,6.05,2.21,1.02,0,2.12-.09,3.29-.28,1.17-.19,2.25-.49,3.24-.91l1.19,6.93c-.98.42-2.21.77-3.69,1.08-1.48.3-3.11.45-4.88.45-2.73,0-5.08-.41-7.04-1.22-1.97-.81-3.59-1.92-4.86-3.32-1.27-1.4-2.2-3.06-2.78-4.97-.59-1.91-.88-3.99-.88-6.22Z"/><path class="cls-1" d="M551.41,160.46c1.55,0,2.65-.15,3.29-.45.64-.3.97-.89.97-1.76,0-.68-.42-1.28-1.25-1.79-.83-.51-2.1-1.09-3.8-1.73-1.33-.49-2.53-1-3.61-1.53-1.08-.53-2-1.16-2.75-1.9-.76-.74-1.34-1.62-1.76-2.64-.42-1.02-.62-2.25-.62-3.69,0-2.8,1.04-5.02,3.12-6.64,2.08-1.63,4.94-2.44,8.58-2.44,1.82,0,3.56.16,5.23.48,1.67.32,2.99.67,3.97,1.05l-1.48,6.59c-.98-.34-2.05-.64-3.21-.91-1.16-.26-2.45-.4-3.89-.4-2.65,0-3.98.74-3.98,2.21,0,.34.06.64.17.91.11.27.34.52.68.77.34.25.8.51,1.39.8.59.29,1.33.6,2.24.94,1.85.69,3.39,1.37,4.6,2.03,1.22.67,2.17,1.39,2.87,2.17s1.19,1.64,1.48,2.58c.29.94.43,2.04.43,3.29,0,2.95-1.11,5.18-3.32,6.69-2.22,1.51-5.35,2.27-9.4,2.27-2.65,0-4.86-.23-6.62-.68-1.76-.46-2.98-.83-3.66-1.14l1.42-6.87c1.44.57,2.92,1.01,4.43,1.33,1.51.32,3.01.48,4.49.48Z"/><path class="cls-1" d="M265.15,214.83v-39.36h26.58v7.44h-17.72v7.72h15.73v7.27h-15.73v9.49h19.03v7.44h-27.89Z"/><path class="cls-1" d="M296.91,199.89c0-2.31.35-4.42,1.05-6.33s1.71-3.56,3.04-4.94c1.33-1.38,2.95-2.45,4.88-3.21,1.93-.76,4.13-1.14,6.59-1.14,1.02,0,2.09.05,3.21.14,1.12.09,2.21.22,3.29.37,1.08.15,2.11.33,3.1.54.98.21,1.85.43,2.61.65v39.36h-8.46v-11.25c-.95.42-1.93.74-2.95.97-1.02.23-2.12.34-3.29.34-4.24,0-7.48-1.39-9.71-4.18-2.24-2.78-3.35-6.56-3.35-11.33ZM305.54,200.12c0,5.42,2.01,8.12,6.02,8.12.87,0,1.73-.11,2.59-.34.85-.23,1.54-.51,2.07-.85v-15.28c-.42-.08-.95-.14-1.59-.2-.64-.06-1.34-.09-2.1-.09-2.31,0-4.05.79-5.23,2.36-1.17,1.57-1.76,3.66-1.76,6.28Z"/><path class="cls-1" d="M357.52,213.8c-1.44.42-3.29.81-5.57,1.16-2.27.36-4.66.54-7.16.54s-4.65-.34-6.33-1.02c-1.69-.68-3.02-1.64-4-2.87-.99-1.23-1.69-2.7-2.1-4.4-.42-1.7-.62-3.58-.62-5.62v-16.64h8.46v15.62c0,2.73.36,4.7,1.08,5.91.72,1.21,2.06,1.82,4.03,1.82.61,0,1.25-.03,1.93-.09.68-.05,1.29-.12,1.82-.2v-23.06h8.46v28.85Z"/><path class="cls-1" d="M374.09,176.32c0,1.55-.5,2.78-1.51,3.67s-2.19,1.33-3.55,1.33-2.55-.44-3.55-1.33c-1-.89-1.51-2.11-1.51-3.67s.5-2.77,1.51-3.66c1-.89,2.19-1.34,3.55-1.34s2.55.45,3.55,1.34,1.51,2.11,1.51,3.66ZM373.29,214.83h-8.46v-29.88h8.46v29.88Z"/><path class="cls-1" d="M380.28,177.51l8.46-1.36v8.8h10.17v7.04h-10.17v10.51c0,1.78.31,3.2.94,4.26.62,1.06,1.88,1.59,3.78,1.59.91,0,1.85-.09,2.81-.26.97-.17,1.85-.41,2.64-.71l1.19,6.59c-1.02.42-2.16.78-3.41,1.08s-2.78.45-4.6.45c-2.31,0-4.22-.31-5.74-.94-1.52-.62-2.73-1.49-3.64-2.61-.91-1.11-1.54-2.47-1.9-4.06-.36-1.59-.54-3.35-.54-5.28v-25.11Z"/><path class="cls-1" d="M432.44,184.95c-1.71,5.75-3.49,11.15-5.35,16.19-1.86,5.03-3.89,9.92-6.09,14.65-.8,1.7-1.59,3.15-2.39,4.35-.8,1.19-1.67,2.18-2.62,2.95-.95.77-2.02,1.34-3.21,1.7-1.19.36-2.59.54-4.18.54-1.33,0-2.55-.12-3.67-.37-1.12-.25-2.04-.52-2.76-.82l1.48-6.76c.87.3,1.65.51,2.33.62.68.11,1.4.17,2.16.17,1.51,0,2.68-.41,3.49-1.22.81-.81,1.51-1.94,2.07-3.38-1.93-3.79-3.86-8.04-5.8-12.75-1.93-4.71-3.75-10-5.45-15.87h8.98c.38,1.48.83,3.08,1.34,4.8.51,1.72,1.06,3.47,1.63,5.23.57,1.76,1.15,3.47,1.74,5.14.59,1.67,1.15,3.18,1.68,4.54.49-1.36,1.01-2.88,1.54-4.54.53-1.67,1.06-3.38,1.57-5.14.51-1.76,1.01-3.5,1.48-5.23.47-1.72.9-3.32,1.28-4.8h8.75Z"/><path class="cls-1" d="M476.29,207.21v7.61h-26.3v-39.36h8.86v31.75h17.44Z"/><path class="cls-1" d="M492.55,184.15c2.5,0,4.58.28,6.25.85,1.67.57,3,1.38,4,2.44,1,1.06,1.71,2.35,2.13,3.86.42,1.52.62,3.2.62,5.06v17.61c-1.21.27-2.9.58-5.05.94-2.16.36-4.77.54-7.84.54-1.93,0-3.68-.17-5.25-.51-1.57-.34-2.92-.9-4.06-1.68-1.14-.77-2.01-1.79-2.61-3.04-.61-1.25-.91-2.78-.91-4.6s.35-3.22,1.05-4.43c.7-1.21,1.64-2.18,2.81-2.9,1.17-.72,2.52-1.24,4.03-1.56,1.51-.32,3.09-.48,4.71-.48,1.1,0,2.07.05,2.93.14s1.54.22,2.07.37v-.8c0-1.44-.44-2.59-1.31-3.46-.87-.87-2.39-1.3-4.54-1.3-1.44,0-2.86.1-4.26.31-1.4.21-2.61.5-3.64.88l-1.08-6.82c.49-.15,1.11-.31,1.85-.48s1.54-.32,2.41-.45c.87-.13,1.79-.25,2.75-.34.97-.09,1.94-.14,2.92-.14ZM493.23,208.92c.83,0,1.63-.02,2.39-.06.76-.04,1.36-.09,1.82-.17v-6.42c-.34-.08-.85-.15-1.53-.23-.68-.08-1.31-.11-1.87-.11-.79,0-1.54.05-2.24.14-.7.09-1.32.28-1.85.54-.53.27-.95.62-1.25,1.08-.3.45-.45,1.02-.45,1.7,0,1.33.44,2.24,1.33,2.75.89.51,2.11.77,3.66.77Z"/><path class="cls-1" d="M540.42,199.89c0,2.38-.35,4.54-1.05,6.47s-1.71,3.58-3.04,4.94c-1.33,1.36-2.95,2.41-4.88,3.15-1.93.74-4.13,1.11-6.59,1.11-1.02,0-2.09-.05-3.21-.14-1.12-.1-2.21-.22-3.29-.37-1.08-.15-2.11-.33-3.1-.54-.98-.21-1.85-.43-2.61-.65v-41.75l8.46-1.36v14.88c.95-.42,1.93-.74,2.95-.97,1.02-.23,2.12-.34,3.29-.34,2.12,0,4,.37,5.62,1.11,1.63.74,2.99,1.79,4.09,3.15,1.1,1.36,1.93,3,2.5,4.91.57,1.91.85,4.04.85,6.39ZM531.78,199.66c0-5.45-2.01-8.18-6.02-8.18-.87,0-1.73.11-2.58.34-.85.23-1.54.51-2.07.85v15.39c.42.08.95.14,1.59.2.64.06,1.34.09,2.1.09,2.31,0,4.05-.8,5.23-2.39,1.17-1.59,1.76-3.69,1.76-6.3Z"/></svg>