<?xml version="1.0" encoding="UTF-8"?><svg id="Layer_1" xmlns="http://www.w3.org/2000/svg" viewBox="0 0 579.44 422.52"><defs><style>.cls-1{fill:#ee447f;}.cls-2{fill:#fec415;}.cls-3{fill:#2e2a6a;}.cls-4{fill:#43c4d9;}.cls-5{fill:#8670b2;}</style></defs><rect class="cls-3" x="270.71" y="142.75" width="56.91" height="21.64" rx="2.4" ry="2.4" transform="translate(-20.96 256.52) rotate(-45)"/><rect class="cls-3" x="248.13" y="120.16" width="56.91" height="21.64" rx="2.4" ry="2.4" transform="translate(-11.61 233.94) rotate(-45)"/><path class="cls-5" d="M243.65,98.05c5.45-5.45,5.45-14.29,0-19.75-5.45-5.45-14.29-5.45-19.75,0-5.45,5.45-5.45,14.29,0,19.75,5.45,5.45,14.29,5.45,19.75,0Z"/><path class="cls-5" d="M267.67,61.01c-7.27,4.23-11.74,12-11.74,20.41v5.94c0,12.68-10.28,22.97-22.97,22.97h-5.94c-8.41,0-16.18,4.47-20.41,11.74l-8.8,15.12h32.68c6.28,0,12.3-2.5,16.75-6.94l28.61-28.61c4.44-4.44,6.94-10.46,6.94-16.75v-32.68s-15.12,8.8-15.12,8.8Z"/><path class="cls-1" d="M351.91,97.66c5.36-5.36,5.36-14.06,0-19.42-5.36-5.36-14.06-5.36-19.42,0-5.36,5.36-5.36,14.06,0,19.42,5.36,5.36,14.06,5.36,19.42,0Z"/><path class="cls-1" d="M369.66,121.54c-4.23-7.27-12-11.74-20.41-11.74h-5.94c-12.68,0-22.97-10.28-22.97-22.97v-5.94c0-8.41-4.47-16.18-11.74-20.41l-15.12-8.8v32.68c0,6.28,2.5,12.3,6.94,16.75l28.61,28.61c4.44,4.44,10.46,6.94,16.75,6.94h32.68l-8.8-15.12Z"/><path class="cls-2" d="M332.11,186.51c-5.45,5.45-5.45,14.28,0,19.73,5.45,5.45,14.28,5.45,19.73,0,5.45-5.45,5.45-14.28,0-19.73-5.45-5.45-14.28-5.45-19.73,0Z"/><path class="cls-2" d="M345.26,147.36c-6.28,0-12.3,2.5-16.75,6.94l-28.61,28.61c-4.44,4.44-6.94,10.46-6.94,16.75v32.68s15.12-8.8,15.12-8.8c7.27-4.23,11.74-12,11.74-20.41v-5.94c0-12.68,10.28-22.97,22.97-22.97h5.94c8.41,0,16.18-4.47,20.41-11.74l8.8-15.12h-32.68Z"/><path class="cls-4" d="M223.37,187.02c-5.45,5.45-5.45,14.3,0,19.75,5.45,5.45,14.3,5.45,19.75,0,5.45-5.45,5.45-14.3,0-19.75-5.45-5.45-14.3-5.45-19.75,0Z"/><path class="cls-4" d="M275.32,183.44l-28.61-28.61c-4.44-4.44-10.46-6.94-16.75-6.94h-32.68s8.8,15.12,8.8,15.12c4.23,7.27,12,11.74,20.41,11.74h5.94c12.68,0,22.97,10.28,22.97,22.97v5.94c0,8.41,4.47,16.18,11.74,20.41l15.12,8.8v-32.68c0-6.28-2.5-12.3-6.94-16.75Z"/><path class="cls-3" d="M77.19,268.18h8.84v39.27h-8.84v-16.66h-14.84v16.66h-8.84v-39.27h8.84v15.01h14.84v-15.01Z"/><path class="cls-3" d="M91.36,292.77c0-2.64.41-4.96,1.22-6.94.81-1.98,1.88-3.64,3.2-4.96,1.32-1.32,2.84-2.32,4.56-3,1.72-.68,3.49-1.02,5.3-1.02,4.23,0,7.57,1.29,10.03,3.88,2.45,2.59,3.68,6.39,3.68,11.42,0,.49-.02,1.03-.06,1.61-.04.59-.08,1.11-.11,1.56h-19.15c.19,1.74,1,3.12,2.44,4.14,1.44,1.02,3.36,1.53,5.78,1.53,1.55,0,3.07-.14,4.56-.42,1.49-.28,2.71-.63,3.65-1.05l1.13,6.86c-.45.23-1.06.45-1.81.68-.76.23-1.6.42-2.52.59-.93.17-1.92.31-2.97.43-1.06.11-2.12.17-3.17.17-2.68,0-5.02-.4-7-1.19-1.98-.79-3.63-1.88-4.93-3.26-1.3-1.38-2.27-3.01-2.89-4.9-.62-1.89-.94-3.93-.94-6.12ZM111.19,289.54c-.04-.72-.16-1.42-.37-2.1-.21-.68-.53-1.28-.96-1.81-.43-.53-.98-.96-1.64-1.3-.66-.34-1.48-.51-2.46-.51s-1.76.16-2.44.48c-.68.32-1.25.75-1.7,1.28-.45.53-.8,1.14-1.05,1.84-.25.7-.42,1.41-.54,2.12h11.16Z"/><path class="cls-3" d="M134.8,276.84c2.49,0,4.57.28,6.23.85,1.66.57,2.99,1.38,3.99,2.44,1,1.06,1.71,2.34,2.12,3.85s.62,3.19.62,5.04v17.56c-1.21.26-2.89.58-5.04.93-2.15.36-4.76.54-7.82.54-1.93,0-3.67-.17-5.24-.51-1.57-.34-2.92-.9-4.05-1.67-1.13-.77-2-1.78-2.61-3.03-.6-1.25-.91-2.78-.91-4.59s.35-3.21,1.05-4.42c.7-1.21,1.63-2.17,2.8-2.89,1.17-.72,2.51-1.24,4.02-1.56,1.51-.32,3.08-.48,4.7-.48,1.09,0,2.07.05,2.92.14.85.09,1.54.22,2.07.37v-.79c0-1.44-.43-2.59-1.3-3.46-.87-.87-2.38-1.3-4.53-1.3-1.44,0-2.85.1-4.25.31-1.4.21-2.61.5-3.63.88l-1.08-6.8c.49-.15,1.11-.31,1.84-.48.74-.17,1.54-.32,2.41-.45.87-.13,1.79-.24,2.75-.34.96-.09,1.94-.14,2.92-.14ZM135.48,301.55c.83,0,1.62-.02,2.38-.06.75-.04,1.36-.09,1.81-.17v-6.4c-.34-.08-.85-.15-1.53-.23-.68-.08-1.3-.11-1.87-.11-.79,0-1.54.05-2.24.14-.7.1-1.31.27-1.84.54-.53.26-.94.62-1.25,1.08s-.45,1.02-.45,1.7c0,1.32.44,2.24,1.33,2.75.89.51,2.11.76,3.65.76Z"/><path class="cls-3" d="M165.42,308.01c-2.46-.04-4.45-.3-5.98-.79s-2.74-1.18-3.63-2.07c-.89-.89-1.49-1.96-1.81-3.23-.32-1.27-.48-2.69-.48-4.28v-32.81l8.44-1.36v32.47c0,.76.06,1.44.17,2.04.11.6.33,1.11.65,1.53s.78.76,1.39,1.02c.6.26,1.42.43,2.44.51l-1.19,6.97Z"/><path class="cls-3" d="M169.34,270.22l8.44-1.36v8.78h10.14v7.02h-10.14v10.48c0,1.78.31,3.19.94,4.25.62,1.06,1.88,1.59,3.77,1.59.91,0,1.84-.08,2.81-.25.96-.17,1.84-.41,2.63-.71l1.19,6.57c-1.02.42-2.15.77-3.4,1.08-1.25.3-2.78.45-4.59.45-2.3,0-4.21-.31-5.72-.94-1.51-.62-2.72-1.49-3.63-2.61-.91-1.11-1.54-2.46-1.9-4.05-.36-1.59-.54-3.34-.54-5.27v-25.04Z"/><path class="cls-3" d="M193.08,307.44v-42.61l8.44-1.36v14.28c.57-.19,1.29-.37,2.18-.54s1.75-.25,2.58-.25c2.42,0,4.43.33,6.03.99,1.61.66,2.89,1.6,3.85,2.81.96,1.21,1.64,2.64,2.04,4.31.4,1.66.59,3.51.59,5.55v16.83h-8.44v-15.81c0-2.72-.35-4.65-1.05-5.78-.7-1.13-1.99-1.7-3.88-1.7-.76,0-1.46.07-2.12.2-.66.13-1.26.27-1.79.42v22.66h-8.44Z"/><path class="cls-3" d="M237.79,268.18h8.84v39.27h-8.84v-39.27Z"/><path class="cls-3" d="M253.36,278.66c1.43-.42,3.28-.8,5.55-1.16,2.27-.36,4.65-.54,7.14-.54s4.64.33,6.32.99c1.68.66,3.01,1.6,3.99,2.81.98,1.21,1.68,2.64,2.1,4.31.41,1.66.62,3.51.62,5.55v16.83h-8.44v-15.81c0-2.72-.36-4.65-1.08-5.78-.72-1.13-2.06-1.7-4.02-1.7-.6,0-1.25.03-1.93.08-.68.06-1.28.12-1.81.2v23h-8.44v-28.78Z"/><path class="cls-3" d="M298.21,267.99c1.59,0,3.04.16,4.36.48,1.32.32,2.34.63,3.06.94l-1.64,6.74c-.76-.34-1.58-.59-2.46-.76-.89-.17-1.71-.26-2.46-.26-1.02,0-1.88.14-2.58.42-.7.28-1.25.67-1.64,1.16-.4.49-.68,1.08-.85,1.76-.17.68-.26,1.42-.26,2.21v1.47h10.43v7.02h-10.43v18.26h-8.44v-26.87c0-3.85,1.08-6.91,3.26-9.18,2.17-2.27,5.39-3.4,9.66-3.4Z"/><path class="cls-3" d="M336.44,292.48c0,2.34-.34,4.49-1.02,6.43-.68,1.95-1.66,3.61-2.95,4.99-1.29,1.38-2.83,2.45-4.62,3.2-1.79.76-3.81,1.13-6.03,1.13s-4.18-.38-5.98-1.13c-1.79-.75-3.33-1.82-4.62-3.2-1.29-1.38-2.29-3.04-3-4.99-.72-1.95-1.08-4.09-1.08-6.43s.37-4.48,1.11-6.4c.74-1.93,1.76-3.57,3.06-4.93,1.3-1.36,2.85-2.42,4.65-3.17,1.79-.75,3.75-1.13,5.86-1.13s4.13.38,5.92,1.13c1.79.76,3.33,1.81,4.62,3.17,1.28,1.36,2.28,3,3,4.93.72,1.93,1.08,4.06,1.08,6.4ZM327.83,292.48c0-2.61-.52-4.65-1.56-6.15-1.04-1.49-2.52-2.24-4.45-2.24s-3.42.75-4.48,2.24c-1.06,1.49-1.59,3.54-1.59,6.15s.53,4.68,1.59,6.2c1.06,1.53,2.55,2.29,4.48,2.29s3.41-.76,4.45-2.29c1.04-1.53,1.56-3.6,1.56-6.2Z"/><path class="cls-3" d="M358.99,285.12c-.76-.19-1.64-.39-2.66-.59-1.02-.21-2.12-.31-3.29-.31-.53,0-1.16.05-1.9.14-.74.09-1.29.2-1.67.31v22.78h-8.44v-28.22c1.51-.53,3.3-1.03,5.35-1.5,2.06-.47,4.35-.71,6.88-.71.45,0,1,.03,1.64.08.64.06,1.28.13,1.93.23.64.09,1.28.21,1.93.34s1.19.29,1.64.48l-1.42,6.97Z"/><path class="cls-3" d="M379.72,291.63c0-2.72-.35-4.65-1.05-5.78-.7-1.13-1.9-1.7-3.6-1.7-.53,0-1.08.03-1.64.08-.57.06-1.11.12-1.64.2v23h-8.44v-28.78c.72-.19,1.56-.39,2.52-.59.96-.21,1.98-.4,3.06-.57,1.08-.17,2.18-.3,3.31-.4,1.13-.09,2.25-.14,3.34-.14,2.15,0,3.9.27,5.24.82,1.34.55,2.45,1.2,3.32,1.95,1.21-.87,2.6-1.55,4.16-2.04,1.57-.49,3.01-.74,4.33-.74,2.38,0,4.33.33,5.86.99,1.53.66,2.75,1.6,3.65,2.81.91,1.21,1.53,2.64,1.87,4.31.34,1.66.51,3.51.51,5.55v16.83h-8.44v-15.81c0-2.72-.35-4.65-1.05-5.78-.7-1.13-1.9-1.7-3.6-1.7-.45,0-1.09.11-1.9.34-.81.23-1.48.51-2.01.85.26.87.43,1.78.51,2.75.08.96.11,1.99.11,3.09v16.26h-8.44v-15.81Z"/><path class="cls-3" d="M421.2,276.84c2.49,0,4.57.28,6.23.85,1.66.57,2.99,1.38,3.99,2.44,1,1.06,1.71,2.34,2.12,3.85s.62,3.19.62,5.04v17.56c-1.21.26-2.89.58-5.04.93-2.15.36-4.76.54-7.82.54-1.93,0-3.67-.17-5.24-.51-1.57-.34-2.92-.9-4.05-1.67-1.13-.77-2-1.78-2.61-3.03-.6-1.25-.91-2.78-.91-4.59s.35-3.21,1.05-4.42c.7-1.21,1.63-2.17,2.8-2.89,1.17-.72,2.51-1.24,4.02-1.56,1.51-.32,3.08-.48,4.7-.48,1.09,0,2.07.05,2.92.14.85.09,1.54.22,2.07.37v-.79c0-1.44-.43-2.59-1.3-3.46-.87-.87-2.38-1.3-4.53-1.3-1.44,0-2.85.1-4.25.31-1.4.21-2.61.5-3.63.88l-1.08-6.8c.49-.15,1.11-.31,1.84-.48.74-.17,1.54-.32,2.41-.45.87-.13,1.79-.24,2.75-.34.96-.09,1.94-.14,2.92-.14ZM421.88,301.55c.83,0,1.62-.02,2.38-.06.75-.04,1.36-.09,1.81-.17v-6.4c-.34-.08-.85-.15-1.53-.23-.68-.08-1.3-.11-1.87-.11-.79,0-1.54.05-2.24.14-.7.1-1.31.27-1.84.54-.53.26-.94.62-1.25,1.08s-.45,1.02-.45,1.7c0,1.32.44,2.24,1.33,2.75.89.51,2.11.76,3.65.76Z"/><path class="cls-3" d="M439.73,270.22l8.44-1.36v8.78h10.14v7.02h-10.14v10.48c0,1.78.31,3.19.94,4.25.62,1.06,1.88,1.59,3.77,1.59.91,0,1.84-.08,2.81-.25.96-.17,1.84-.41,2.63-.71l1.19,6.57c-1.02.42-2.15.77-3.4,1.08-1.25.3-2.78.45-4.59.45-2.3,0-4.21-.31-5.72-.94-1.51-.62-2.72-1.49-3.63-2.61-.91-1.11-1.54-2.46-1.9-4.05-.36-1.59-.54-3.34-.54-5.27v-25.04Z"/><path class="cls-3" d="M472.52,269.03c0,1.55-.5,2.77-1.5,3.65-1,.89-2.18,1.33-3.54,1.33s-2.54-.44-3.54-1.33c-1-.89-1.5-2.1-1.5-3.65s.5-2.77,1.5-3.65c1-.89,2.18-1.33,3.54-1.33s2.54.44,3.54,1.33c1,.89,1.5,2.11,1.5,3.65ZM471.72,307.44h-8.44v-29.8h8.44v29.8Z"/><path class="cls-3" d="M476.28,292.54c0-2.15.35-4.18,1.05-6.09s1.71-3.57,3.03-4.99c1.32-1.42,2.93-2.54,4.82-3.37,1.89-.83,4.04-1.25,6.46-1.25,1.59,0,3.04.14,4.36.42,1.32.28,2.61.69,3.85,1.22l-1.76,6.74c-.79-.3-1.66-.57-2.61-.79-.94-.23-2-.34-3.17-.34-2.49,0-4.35.77-5.58,2.32-1.23,1.55-1.84,3.59-1.84,6.12,0,2.68.58,4.76,1.73,6.23,1.15,1.47,3.16,2.21,6.03,2.21,1.02,0,2.12-.09,3.29-.28,1.17-.19,2.25-.49,3.23-.91l1.19,6.91c-.98.42-2.21.78-3.68,1.08-1.47.3-3.1.45-4.87.45-2.72,0-5.06-.41-7.03-1.22-1.96-.81-3.58-1.92-4.84-3.32-1.27-1.4-2.19-3.05-2.78-4.96-.59-1.91-.88-3.98-.88-6.2Z"/><path class="cls-3" d="M513.3,301.38c1.55,0,2.64-.15,3.29-.45s.96-.89.96-1.76c0-.68-.42-1.28-1.25-1.78-.83-.51-2.1-1.09-3.8-1.73-1.32-.49-2.52-1-3.6-1.53-1.08-.53-1.99-1.16-2.75-1.9-.76-.74-1.34-1.61-1.76-2.63-.42-1.02-.62-2.25-.62-3.68,0-2.79,1.04-5,3.12-6.63,2.08-1.62,4.93-2.44,8.56-2.44,1.81,0,3.55.16,5.21.48,1.66.32,2.98.67,3.97,1.05l-1.47,6.57c-.98-.34-2.05-.64-3.2-.91-1.15-.26-2.45-.4-3.88-.4-2.64,0-3.97.74-3.97,2.21,0,.34.06.64.17.91s.34.52.68.76c.34.25.8.51,1.39.8.58.29,1.33.6,2.24.94,1.85.69,3.38,1.36,4.59,2.03,1.21.67,2.16,1.39,2.86,2.16.7.77,1.19,1.63,1.47,2.57s.42,2.04.42,3.28c0,2.94-1.11,5.17-3.31,6.67-2.21,1.51-5.34,2.26-9.38,2.26-2.64,0-4.84-.23-6.6-.68s-2.98-.83-3.65-1.13l1.42-6.86c1.44.57,2.91,1.01,4.42,1.33,1.51.32,3,.48,4.48.48Z"/><path class="cls-3" d="M156.44,360.35v-39.26h26.52v7.42h-17.68v7.71h15.69v7.25h-15.69v9.46h18.98v7.42h-27.82Z"/><path class="cls-3" d="M186.96,345.45c0-2.3.35-4.41,1.05-6.32.7-1.91,1.71-3.55,3.03-4.93,1.32-1.38,2.95-2.45,4.87-3.2,1.93-.75,4.12-1.13,6.57-1.13,1.02,0,2.09.05,3.2.14,1.11.1,2.21.22,3.29.37s2.11.33,3.09.54c.98.21,1.85.42,2.61.65v39.26h-8.44v-11.22c-.94.42-1.93.74-2.95.96-1.02.23-2.12.34-3.29.34-4.23,0-7.46-1.39-9.69-4.16-2.23-2.78-3.34-6.55-3.34-11.3ZM195.57,345.67c0,5.4,2,8.1,6.01,8.1.87,0,1.73-.11,2.58-.34.85-.23,1.54-.51,2.07-.85v-15.24c-.42-.07-.94-.14-1.59-.2-.64-.06-1.34-.08-2.1-.08-2.3,0-4.04.78-5.21,2.35-1.17,1.57-1.76,3.65-1.76,6.26Z"/><path class="cls-3" d="M246.27,359.33c-1.44.42-3.29.8-5.55,1.16-2.27.36-4.65.54-7.14.54s-4.64-.34-6.32-1.02c-1.68-.68-3.01-1.63-3.99-2.86-.98-1.23-1.68-2.69-2.1-4.39s-.62-3.57-.62-5.61v-16.6h8.44v15.58c0,2.72.36,4.68,1.08,5.89.72,1.21,2.06,1.81,4.02,1.81.6,0,1.25-.03,1.93-.08s1.28-.12,1.81-.2v-23h8.44v28.78Z"/><path class="cls-3" d="M261.65,321.93c0,1.55-.5,2.77-1.5,3.65-1,.89-2.18,1.33-3.54,1.33s-2.54-.44-3.54-1.33c-1-.89-1.5-2.11-1.5-3.65s.5-2.77,1.5-3.65c1-.89,2.18-1.33,3.54-1.33s2.54.44,3.54,1.33,1.5,2.11,1.5,3.65ZM260.85,360.35h-8.44v-29.8h8.44v29.8Z"/><path class="cls-3" d="M266.68,323.12l8.44-1.36v8.78h10.14v7.02h-10.14v10.48c0,1.78.31,3.19.94,4.25.62,1.06,1.88,1.59,3.77,1.59.91,0,1.84-.08,2.81-.25.96-.17,1.84-.41,2.63-.71l1.19,6.57c-1.02.42-2.15.77-3.4,1.08-1.25.3-2.78.45-4.59.45-2.3,0-4.21-.31-5.72-.94-1.51-.62-2.72-1.49-3.63-2.61-.91-1.11-1.54-2.46-1.9-4.05-.36-1.59-.54-3.34-.54-5.27v-25.04Z"/><path class="cls-3" d="M317.56,330.55c-1.7,5.74-3.48,11.12-5.34,16.15-1.86,5.02-3.88,9.9-6.08,14.62-.8,1.7-1.59,3.15-2.38,4.33-.8,1.19-1.66,2.17-2.61,2.95-.95.77-2.01,1.34-3.21,1.7-1.19.36-2.58.54-4.17.54-1.32,0-2.55-.12-3.66-.37s-2.03-.52-2.75-.82l1.47-6.74c.87.3,1.64.51,2.32.62.68.11,1.4.17,2.16.17,1.51,0,2.67-.41,3.49-1.22.81-.81,1.5-1.94,2.07-3.37-1.93-3.78-3.85-8.02-5.78-12.72-1.93-4.7-3.74-9.98-5.44-15.84h8.95c.38,1.47.82,3.07,1.34,4.79.51,1.72,1.05,3.46,1.62,5.21.57,1.76,1.15,3.47,1.74,5.13.59,1.66,1.15,3.17,1.68,4.53.49-1.36,1-2.87,1.54-4.53.53-1.66,1.05-3.37,1.56-5.13.51-1.76,1-3.49,1.48-5.21.47-1.72.9-3.31,1.28-4.79h8.73Z"/><path class="cls-3" d="M359.6,352.76v7.59h-26.23v-39.26h8.84v31.67h17.39Z"/><path class="cls-3" d="M374.7,329.75c2.49,0,4.57.28,6.23.85,1.66.57,2.99,1.38,3.99,2.44,1,1.06,1.71,2.34,2.12,3.85s.62,3.19.62,5.04v17.56c-1.21.26-2.89.58-5.04.93-2.15.36-4.76.54-7.82.54-1.93,0-3.67-.17-5.24-.51-1.57-.34-2.92-.9-4.05-1.67-1.13-.77-2-1.78-2.61-3.03-.6-1.25-.91-2.78-.91-4.59s.35-3.21,1.05-4.42c.7-1.21,1.63-2.17,2.8-2.89,1.17-.72,2.51-1.24,4.02-1.56,1.51-.32,3.08-.48,4.7-.48,1.09,0,2.07.05,2.92.14.85.09,1.54.22,2.07.37v-.79c0-1.44-.43-2.59-1.3-3.46-.87-.87-2.38-1.3-4.53-1.3-1.44,0-2.85.1-4.25.31-1.4.21-2.61.5-3.63.88l-1.08-6.8c.49-.15,1.11-.31,1.84-.48.74-.17,1.54-.32,2.41-.45.87-.13,1.79-.24,2.75-.34.96-.09,1.94-.14,2.92-.14ZM375.37,354.46c.83,0,1.62-.02,2.38-.06.75-.04,1.36-.09,1.81-.17v-6.4c-.34-.08-.85-.15-1.53-.23-.68-.08-1.3-.11-1.87-.11-.79,0-1.54.05-2.24.14-.7.1-1.31.27-1.84.54-.53.26-.94.62-1.25,1.08s-.45,1.02-.45,1.7c0,1.32.44,2.24,1.33,2.75.89.51,2.11.76,3.65.76Z"/><path class="cls-3" d="M421.29,345.45c0,2.38-.35,4.53-1.05,6.46-.7,1.93-1.71,3.57-3.03,4.93-1.32,1.36-2.95,2.41-4.87,3.15-1.93.74-4.12,1.11-6.57,1.11-1.02,0-2.09-.05-3.2-.14-1.11-.09-2.21-.22-3.29-.37-1.08-.15-2.11-.33-3.09-.54-.98-.21-1.85-.43-2.61-.65v-41.64l8.44-1.36v14.85c.94-.41,1.93-.74,2.95-.96,1.02-.23,2.12-.34,3.29-.34,2.12,0,3.99.37,5.61,1.11,1.62.74,2.98,1.78,4.08,3.14,1.09,1.36,1.93,2.99,2.49,4.9.57,1.91.85,4.03.85,6.37ZM412.68,345.22c0-5.44-2-8.16-6.01-8.16-.87,0-1.73.11-2.58.34-.85.23-1.54.51-2.07.85v15.35c.42.08.94.14,1.59.2.64.06,1.34.08,2.1.08,2.3,0,4.04-.79,5.21-2.38,1.17-1.59,1.76-3.68,1.76-6.29Z"/></svg>