<?xml version="1.0" encoding="UTF-8"?><svg id="Layer_1" xmlns="http://www.w3.org/2000/svg" viewBox="0 0 376.25 376.25"><defs><style>.cls-1{fill:#ee447f;}.cls-2{fill:#fec415;}.cls-3{fill:#2e2a6a;}.cls-4{fill:#43c4d9;}.cls-5{fill:#8670b2;}</style></defs><rect class="cls-3" x="162.75" y="188.83" width="84.16" height="32" rx="3.56" ry="3.56" transform="translate(-84.84 204.83) rotate(-45)"/><rect class="cls-3" x="129.35" y="155.43" width="84.16" height="32.01" rx="3.56" ry="3.56" transform="translate(-71.01 171.43) rotate(-45)"/><path class="cls-5" d="M122.72,122.72c8.06-8.06,8.06-21.14,0-29.2-8.06-8.06-21.14-8.06-29.2,0-8.06,8.06-8.06,21.14,0,29.2,8.06,8.06,21.14,8.06,29.2,0Z"/><path class="cls-5" d="M158.25,67.95c-10.75,6.26-17.36,17.75-17.36,30.19v8.78c0,18.76-15.21,33.97-33.97,33.97h-8.78c-12.44,0-23.93,6.61-30.19,17.36l-13.01,22.36h48.32c9.29,0,18.2-3.69,24.76-10.26l42.31-42.31c6.57-6.57,10.26-15.48,10.26-24.76v-48.32s-22.36,13.01-22.36,13.01Z"/><path class="cls-1" d="M282.83,122.14c7.93-7.93,7.93-20.79,0-28.72-7.93-7.93-20.79-7.93-28.72,0-7.93,7.93-7.93,20.79,0,28.72,7.93,7.93,20.79,7.93,28.72,0Z"/><path class="cls-1" d="M309.08,157.47c-6.26-10.75-17.75-17.36-30.19-17.36h-8.78c-18.76,0-33.97-15.21-33.97-33.97v-8.78c0-12.44-6.61-23.93-17.36-30.19l-22.36-13.01v48.32c0,9.29,3.69,18.2,10.26,24.77l42.31,42.31c6.57,6.57,15.48,10.26,24.76,10.26h48.32l-13.01-22.36Z"/><path class="cls-2" d="M253.54,253.54c-8.06,8.06-8.06,21.12,0,29.18,8.06,8.06,21.12,8.06,29.18,0,8.06-8.06,8.06-21.12,0-29.18-8.06-8.06-21.12-8.06-29.18,0Z"/><path class="cls-2" d="M272.99,195.65c-9.29,0-18.2,3.69-24.76,10.26l-42.31,42.31c-6.57,6.57-10.26,15.48-10.26,24.76v48.32s22.36-13.01,22.36-13.01c10.75-6.26,17.36-17.75,17.36-30.19v-8.78c0-18.76,15.21-33.97,33.97-33.97h8.78c12.44,0,23.93-6.61,30.19-17.36l13.01-22.36h-48.32Z"/><path class="cls-4" d="M92.74,254.31c-8.07,8.07-8.07,21.14,0,29.21,8.07,8.07,21.14,8.07,29.21,0,8.07-8.07,8.07-21.14,0-29.21-8.07-8.07-21.14-8.07-29.21,0Z"/><path class="cls-4" d="M169.56,249l-42.31-42.31c-6.57-6.57-15.48-10.26-24.76-10.26h-48.32s13.01,22.36,13.01,22.36c6.26,10.75,17.75,17.36,30.19,17.36h8.78c18.76,0,33.97,15.21,33.97,33.97v8.78c0,12.44,6.61,23.93,17.36,30.19l22.36,13.01v-48.32c0-9.29-3.69-18.2-10.26-24.76Z"/></svg>