<?xml version="1.0" encoding="UTF-8"?><svg id="Layer_1" xmlns="http://www.w3.org/2000/svg" viewBox="0 0 302.12 302.12"><defs><style>.cls-1{fill:#ee447f;}.cls-2{fill:#fec415;}.cls-3{fill:#2e2a6a;}.cls-4{fill:#43c4d9;}.cls-5{fill:#8670b2;}</style></defs><path class="cls-3" d="M302.12,151.06c0,18.28-3.24,35.8-9.2,52.02-20.46,55.82-72.97,96.22-135.25,98.88-2.19.11-4.39.16-6.61.16C67.63,302.12,0,234.48,0,151.06S67.63,0,151.06,0s151.06,67.63,151.06,151.06Z"/><path class="cls-5" d="M212.06,41.32h-122.01c-16.45,0-29.83,13.38-29.83,29.83v159.82c0,16.45,13.38,29.83,29.83,29.83h122.01c16.45,0,29.83-13.38,29.83-29.83V71.15c0-16.45-13.38-29.83-29.83-29.83ZM79.32,71.15c0-5.92,4.81-10.74,10.73-10.74h122.01c5.92,0,10.74,4.82,10.74,10.74v159.82c0,5.92-4.82,10.74-10.74,10.74h-122.01c-5.92,0-10.73-4.82-10.73-10.74V71.15Z"/><rect class="cls-2" x="99.31" y="151.04" width="26.71" height="66.05" rx="4.07" ry="4.07"/><rect class="cls-4" x="136.74" y="98.89" width="27.13" height="118.2" rx="4.07" ry="4.07"/><rect class="cls-1" x="174.87" y="127.8" width="27.13" height="89.3" rx="4.07" ry="4.07"/></svg>