<?xml version="1.0" encoding="UTF-8"?><svg id="Layer_1" xmlns="http://www.w3.org/2000/svg" viewBox="0 0 302.12 302.12"><defs><style>.cls-1{fill:#fec415;}.cls-2{fill:none;}.cls-3{fill:#43c4d9;}.cls-4{fill:#8670b2;}</style></defs><path class="cls-2" d="M302.12,151.06c0,18.28-3.24,35.8-9.2,52.02-20.46,55.82-72.97,96.22-135.25,98.88-2.19.11-4.39.16-6.61.16C67.63,302.12,0,234.48,0,151.06S67.63,0,151.06,0s151.06,67.63,151.06,151.06Z"/><path class="cls-4" d="M151.06,47.04l100.38,82.6h-29.61v99.23H80.29v-99.23h-29.61l100.38-82.6M151.06,31.23c-3.56,0-7.12,1.2-10.04,3.6L40.64,117.44c-5.15,4.24-7.08,11.25-4.83,17.53,2.25,6.28,8.2,10.47,14.87,10.47h13.81v83.43c0,8.73,7.07,15.8,15.8,15.8h141.54c8.73,0,15.8-7.07,15.8-15.8v-83.43h13.81c6.67,0,12.62-4.19,14.87-10.47,2.25-6.28.32-13.3-4.83-17.53l-100.38-82.6c-2.92-2.4-6.48-3.6-10.04-3.6h0Z"/><rect class="cls-1" x="133.28" y="155.56" width="40.62" height="61.8"/><circle class="cls-3" cx="153.59" cy="110.46" r="23.02"/></svg>