<?xml version="1.0" encoding="UTF-8"?><svg id="Layer_1" xmlns="http://www.w3.org/2000/svg" viewBox="0 0 302.12 302.12"><defs><style>.cls-1{fill:#ee447f;}.cls-2{fill:none;}.cls-3{fill:#43c4d9;}.cls-4{fill:#8670b2;}</style></defs><path class="cls-2" d="M302.12,151.06c0,18.28-3.24,35.8-9.2,52.02-20.46,55.82-72.97,96.22-135.25,98.88-2.19.11-4.39.16-6.61.16C67.63,302.12,0,234.48,0,151.06S67.63,0,151.06,0s151.06,67.63,151.06,151.06Z"/><path class="cls-4" d="M236.42,232.46H60.81c-9.85,0-17.86-8.02-17.86-17.88v-91.15c0-9.86,8.01-17.88,17.86-17.88h49.6v-50.55c0-5.72,2.77-11.14,7.41-14.49,4.63-3.35,10.64-4.27,16.07-2.47l108.17,35.85c7.32,2.43,12.23,9.25,12.23,16.95v123.74c0,9.86-8.01,17.88-17.86,17.88ZM61.51,213.9h174.2v-122.54l-106.74-35.38v68.14H61.51v89.78Z"/><polygon class="cls-1" points="186.06 106.53 186.06 88.3 167.83 88.3 167.83 106.53 149.6 106.53 149.6 124.76 167.83 124.76 167.83 142.99 186.06 142.99 186.06 124.76 204.29 124.76 204.29 106.53 186.06 106.53"/><rect class="cls-3" x="79.7" y="164.13" width="32.39" height="32.39"/><rect class="cls-3" x="131.97" y="164.13" width="32.39" height="32.39"/><rect class="cls-3" x="184.25" y="164.13" width="32.39" height="32.39"/></svg>