<?xml version="1.0" encoding="UTF-8"?><svg id="Layer_1" xmlns="http://www.w3.org/2000/svg" viewBox="0 0 302.12 302.12"><defs><style>.cls-1{fill:#ee447f;}.cls-2{fill:#fec415;}.cls-3{fill:none;}.cls-4{fill:#43c4d9;}.cls-5{fill:#8670b2;}</style></defs><path class="cls-3" d="M302.12,151.06c0,18.28-3.24,35.8-9.2,52.02-20.46,55.82-72.97,96.22-135.25,98.88-2.19.11-4.39.16-6.61.16C67.63,302.12,0,234.48,0,151.06S67.63,0,151.06,0s151.06,67.63,151.06,151.06Z"/><path class="cls-5" d="M197.64,134.89v54.54c0,22.86-16.56,41.89-38.31,45.81V96.44h-20.23v137.97c-19.9-5.3-34.63-23.43-34.63-44.97v-19.11h-20.23v19.11c0,32.76,23.71,60.07,54.86,65.73,0,0,0,0,0,0v21.31h20.23v-20.75c32.95-4.09,58.54-32.25,58.54-66.29v-54.54h-20.23Z"/><circle class="cls-1" cx="149.22" cy="60.93" r="23.02"/><circle class="cls-4" cx="207.76" cy="96.44" r="23.02"/><circle class="cls-2" cx="94.36" cy="134.33" r="23.02"/></svg>