<?xml version="1.0" encoding="UTF-8"?><svg id="Layer_1" xmlns="http://www.w3.org/2000/svg" viewBox="0 0 302.12 302.12"><defs><style>.cls-1{fill:#ee447f;}.cls-2{fill:#fec415;}.cls-3{fill:none;}.cls-4{fill:#43c4d9;}</style></defs><path class="cls-3" d="M302.12,151.06c0,18.28-3.24,35.8-9.2,52.02-20.46,55.82-72.97,96.22-135.25,98.88-2.19.11-4.39.16-6.61.16C67.63,302.12,0,234.48,0,151.06S67.63,0,151.06,0s151.06,67.63,151.06,151.06Z"/><path class="cls-1" d="M158.74,53.57c-6.16-.27-11.99,2.37-15.98,7.08-3.98,4.68-5.57,10.88-4.35,17,1.68,8.48,8.92,15.01,17.6,15.9,1.22.12,2.42.14,3.63.04v32.91c0,19.4-14.68,35.34-33.42,36.28-9.72.51-18.98-2.94-26.04-9.65-7.07-6.73-10.97-15.79-10.97-25.52v-34.01c1.2.09,2.4.08,3.63-.04,8.68-.89,15.92-7.42,17.6-15.9,1.21-6.12-.37-12.31-4.35-17-3.99-4.7-9.84-7.34-15.98-7.08-10.68.36-19.38,9.65-19.38,20.71v53.31c0,19.73,10.81,37.84,28.21,47.25,7.23,3.91,15.92,5.98,25.12,5.98h.7c9.19,0,17.88-2.07,25.11-5.97,17.42-9.41,28.24-27.52,28.24-47.26v-53.31c0-11.07-8.69-20.36-19.38-20.71Z"/><path class="cls-4" d="M202.62,164.41v38.89c0,19.42-15.79,35.23-35.2,35.23s-35.2-15.8-35.2-35.23v-12.22l-2.81.43c-4.13.62-8.51.5-12.69-.44l-2.98-.67v12.9c0,29.61,24.08,53.7,53.67,53.7s53.68-24.09,53.68-53.7v-38.89h-18.48Z"/><path class="cls-2" d="M194.83,144.76s.02.02.05.02c.54.54,1.11,1.06,1.7,1.53.3.25.59.49.91.71.3.22.62.44.94.66.64.44,1.28.84,1.97,1.21.32.17.66.34,1.03.52.25.12.52.25.76.37.37.15.76.32,1.13.44.44.17.89.34,1.35.47,2.24.71,4.63,1.08,7.09,1.08,1.7,0,3.37-.17,4.97-.52v-.05c2.73-.59,5.37-1.62,7.8-3.15.49-.32.96-.64,1.43-.98.47-.34.94-.71,1.38-1.11.44-.37.89-.79,1.3-1.21.32-.3.59-.59.84-.89.84-.91,1.55-1.87,2.22-2.86.22-.34.42-.69.64-1.01.59-1.03,1.11-2.09,1.55-3.15,1.45-3.59,1.99-7.48,1.65-11.3v-.1c-.1-.74-.2-1.45-.34-2.19-.15-.84-.37-1.67-.62-2.46-.12-.37-.25-.74-.37-1.11-.15-.37-.27-.74-.44-1.08-.15-.37-.3-.71-.47-1.06-.17-.34-.34-.69-.52-1.03-.37-.69-.79-1.33-1.21-1.97-.22-.32-.44-.64-.66-.94-.22-.32-.47-.62-.71-.91-.47-.62-.98-1.18-1.55-1.75-.54-.54-1.11-1.06-1.7-1.5-.25-.22-.52-.42-.79-.64-.34-.25-.69-.49-1.03-.74-.64-.42-1.3-.84-1.97-1.21l-1.03-.52c-.34-.17-.71-.32-1.06-.49-1.08-.47-2.19-.84-3.32-1.11-.39-.1-.79-.2-1.16-.27-.39-.07-.79-.15-1.18-.22-.73-.11-1.48-.17-2.23-.22-.35-.02-.7-.03-1.05-.04-.12,0-.24-.01-.36-.01-.21,0-.41.03-.61.03-.58.01-1.16.03-1.74.09-.14.01-.28.04-.42.06-5.18.59-10.2,2.83-14.16,6.79-9.33,9.3-9.33,24.47,0,33.8Z"/></svg>