<?xml version="1.0" encoding="UTF-8"?><svg id="Layer_1" xmlns="http://www.w3.org/2000/svg" viewBox="0 0 302.12 302.12"><defs><style>.cls-1{fill:#ee447f;}.cls-2{fill:#fec415;}.cls-3{fill:none;}.cls-4{fill:#43c4d9;}.cls-5{fill:#8670b2;}</style></defs><path class="cls-3" d="M302.12,151.06c0,18.28-3.24,35.8-9.2,52.02-20.46,55.82-72.97,96.22-135.25,98.88-2.19.11-4.39.16-6.61.16C67.63,302.12,0,234.48,0,151.06S67.63,0,151.06,0s151.06,67.63,151.06,151.06Z"/><path class="cls-2" d="M142.92,227.77v14.56H46.5v-14.56c0-16.7,8.51-31.43,21.43-40.1,5.52,8.98,15.46,14.95,26.8,14.95s21.24-6,26.76-14.98c2.64,1.78,5.08,3.81,7.3,6.03,8.73,8.73,14.13,20.79,14.13,34.1Z"/><path class="cls-1" d="M94.71,195.09c13.22,0,23.93-10.71,23.93-23.93s-10.71-23.93-23.93-23.93c-13.22,0-23.93,10.71-23.93,23.93,0,13.22,10.71,23.93,23.93,23.93Z"/><path class="cls-1" d="M254.41,125.44v14.56h-96.42v-14.56c0-16.7,8.51-31.43,21.43-40.1,5.52,8.98,15.46,14.95,26.8,14.95s21.24-6,26.76-14.98c2.64,1.78,5.08,3.81,7.3,6.03,8.73,8.73,14.13,20.79,14.13,34.1Z"/><path class="cls-2" d="M206.21,92.76c13.22,0,23.93-10.71,23.93-23.93s-10.71-23.93-23.93-23.93c-13.22,0-23.93,10.71-23.93,23.93,0,13.22,10.71,23.93,23.93,23.93Z"/><path class="cls-5" d="M253.45,228.08v14.56h-96.42v-14.56c0-16.7,8.51-31.43,21.43-40.1,5.52,8.98,15.46,14.95,26.8,14.95s21.24-6,26.76-14.98c2.64,1.78,5.08,3.81,7.3,6.03,8.73,8.73,14.13,20.79,14.13,34.1Z"/><path class="cls-4" d="M205.25,195.4c13.22,0,23.93-10.71,23.93-23.93s-10.71-23.93-23.93-23.93c-13.22,0-23.93,10.71-23.93,23.93,0,13.22,10.71,23.93,23.93,23.93Z"/><path class="cls-4" d="M142.92,125.13v14.56H46.5v-14.56c0-16.7,8.51-31.43,21.43-40.1,5.52,8.98,15.46,14.95,26.8,14.95s21.24-6,26.76-14.98c2.64,1.78,5.08,3.81,7.3,6.03,8.73,8.73,14.13,20.79,14.13,34.1Z"/><path class="cls-5" d="M94.71,92.45c13.22,0,23.93-10.71,23.93-23.93s-10.71-23.93-23.93-23.93c-13.22,0-23.93,10.71-23.93,23.93,0,13.22,10.71,23.93,23.93,23.93Z"/></svg>